#N canvas 375 132 205 505 12;
#X obj 2 1 cnv 15 200 500 empty empty empty 20 12 0 14 -203904 -66577
0;
#X obj 13 5 cnv 15 150 60 empty empty saw~ 20 12 0 30 -233017 -66577
0;
#X obj 34 131 inlet~;
#X text 31 106 freq;
#X obj 84 81 loadbang;
#X obj 84 105 f \$1;
#X obj 84 129 sig~;
#X obj 34 299 *~ 0.2;
#X obj 34 333 outlet~;
#X obj 34 198 phasor~;
#X obj 34 222 *~ 2;
#X obj 34 246 -~ 1;
#X connect 2 0 9 0;
#X connect 4 0 5 0;
#X connect 5 0 6 0;
#X connect 6 0 9 0;
#X connect 7 0 8 0;
#X connect 9 0 10 0;
#X connect 10 0 11 0;
#X connect 11 0 7 0;
