#N canvas 416 212 473 314 12;
#X obj 2 2 cnv 15 126 100 empty empty LF_WAVEFORM_SEL 5 10 0 10 -162280
-1 0;
#X obj 7 19 vradio 20 1 0 4 \$0-waveSel empty empty 0 -8 0 10 -261241
-1 -1 3;
#X text 28 20 SINE;
#X text 29 80 SQUARE;
#X text 28 40 TRIANGLE;
#X text 29 60 SAW;
#X obj 131 11 inlet;
#X obj 356 11 inlet;
#X obj 131 77 osc~;
#X obj 250 77 phasor~;
#X obj 185 77 triwave~;
#X obj 356 35 t b;
#X text 170 10 <- Freq;
#X text 254 10 Reset Phase ->;
#X obj 28 114 r \$0-waveSel;
#X obj 149 166 == 0;
#X obj 203 166 == 1;
#X obj 268 166 == 2;
#X obj 328 166 == 3;
#X obj 131 234 *~;
#X obj 185 234 *~;
#X obj 250 234 *~;
#X obj 310 234 *~;
#X msg 149 188 \$1 10;
#X obj 149 209 line~;
#X msg 203 188 \$1 10;
#X obj 203 209 line~;
#X msg 268 188 \$1 10;
#X obj 268 209 line~;
#X msg 328 188 \$1 10;
#X obj 328 209 line~;
#X obj 131 268 outlet~;
#X obj 250 106 *~ 2;
#X obj 250 130 -~ 1;
#X obj 28 145 loadbang;
#X msg 28 167 0;
#X obj 310 77 lf-sqwave~;
#X obj 76 83 nbx 5 12 0 1 0 0 \$0-duty \$0-setDuty duty_cycle 0 16
0 8 -262144 -1 -1 0.5 256;
#X obj 384 51 r \$0-duty;
#X msg 20 193 0.5;
#X obj 20 214 s \$0-setDuty;
#X connect 6 0 8 0;
#X connect 6 0 10 0;
#X connect 6 0 9 0;
#X connect 6 0 36 0;
#X connect 7 0 11 0;
#X connect 8 0 19 0;
#X connect 9 0 32 0;
#X connect 10 0 20 0;
#X connect 11 0 10 1;
#X connect 14 0 15 0;
#X connect 14 0 16 0;
#X connect 14 0 17 0;
#X connect 14 0 18 0;
#X connect 15 0 23 0;
#X connect 16 0 25 0;
#X connect 17 0 27 0;
#X connect 18 0 29 0;
#X connect 19 0 31 0;
#X connect 20 0 31 0;
#X connect 21 0 31 0;
#X connect 22 0 31 0;
#X connect 23 0 24 0;
#X connect 24 0 19 1;
#X connect 25 0 26 0;
#X connect 26 0 20 1;
#X connect 27 0 28 0;
#X connect 28 0 21 1;
#X connect 29 0 30 0;
#X connect 30 0 22 1;
#X connect 32 0 33 0;
#X connect 33 0 21 0;
#X connect 34 0 35 0;
#X connect 34 0 39 0;
#X connect 35 0 15 0;
#X connect 35 0 16 0;
#X connect 35 0 17 0;
#X connect 35 0 18 0;
#X connect 36 0 22 0;
#X connect 38 0 36 1;
#X connect 39 0 40 0;
#X coords 0 -1 1 1 130 104 2 0 0;
