#N canvas 275 25 1108 741 12;
#X obj 3 3 cnv 15 1100 40 empty empty ADSR_ABSTRACTION 20 12 0 20 #e0e0e0
#404040 0;
#X obj 82 71 inlet;
#X obj 521 77 inlet;
#X text 78 50 trigger;
#X text 520 57 A;
#X obj 606 77 inlet;
#X obj 696 77 inlet;
#X obj 786 77 inlet;
#X text 605 57 D;
#X text 695 57 S;
#X text 785 57 R;
#X obj 82 94 sel 0;
#X text 129 94 <-- Filter any non-0 message to right inlet;
#X obj 521 171 s \$0-a;
#X obj 606 171 s \$0-d;
#X obj 696 171 s \$0-s;
#X obj 786 171 s \$0-r;
#X obj 163 137 s \$0-peak;
#X obj 82 116 t b;
#X obj 45 390 pack f f;
#X obj 64 345 r \$0-peak;
#X obj 101 369 r \$0-a;
#X obj 45 368 f;
#X obj 805 482 pack f f;
#X obj 823 321 r \$0-peak;
#X obj 805 460 f;
#X obj 861 461 r \$0-d;
#X obj 823 434 *;
#X obj 832 411 t b f;
#X text 110 388 <-- Pack peak amplitude with attack time in a 2 number
list, f 23;
#X obj 832 387 r \$0-s;
#X text 872 427 <-- Multiply peak by sustain to give the sustain level
, f 31;
#X obj 664 423 del, f 4;
#X obj 689 402 r \$0-a;
#X text 513 390 Wait until after the attack time to trigger decay -->
, f 19;
#X obj 116 116 t b b f;
#X msg 664 372 stop;
#X text 506 322 Cancel decay part of the envelope if the note is released
or re-attacked early -->, f 21;
#X obj 24 412 s \$0-attack;
#X obj 791 504 s \$0-decay;
#X obj 139 161 s \$0-startAttack;
#X obj 45 323 r \$0-startAttack;
#X obj 681 349 r \$0-startAttack;
#X obj 82 210 s \$0-startRelease;
#X obj 664 325 r \$0-startRelease;
#X obj 116 185 s \$0-startDecay;
#X text 233 136 <-- send out peak amp for use later;
#X text 257 161 <-- then trigger the attack;
#X text 228 186 <-- then trigger the decay;
#X text 10 183 trigger release -->, f 9;
#X obj 702 372 r \$0-startDecay;
#X obj 18 256 cnv 30 400 60 empty empty ATTACK 20 12 0 14 #e0e0e0 #404040
0;
#X text 36 286 Ramp to peak amplitude over the attack time in ms;
#X obj 507 256 cnv 30 400 60 empty empty DECAY 20 12 0 14 #e0e0e0 #404040
0;
#X text 525 286 Ramp down to the sustain level over decay time in ms
;
#X obj 18 536 cnv 30 400 60 empty empty RELEASE 20 12 0 14 #e0e0e0
#404040 0;
#X text 36 561 Ramp down from the sustain level to 0 over the release
time, f 53;
#X obj 51 639 r \$0-r;
#X text 840 76 <-- input values for ADSR env;
#X obj 33 663 f;
#X msg 33 685 0 \$1;
#X obj 33 610 r \$0-startRelease;
#X obj 498 536 cnv 30 400 60 empty empty GENERATE_ENV 20 12 0 14 #e0e0e0
#404040 0;
#X text 516 561 Generate the envelope and output, f 53;
#X obj 33 707 s \$0-release;
#X obj 535 604 r \$0-attack;
#X obj 636 604 r \$0-decay;
#X obj 739 604 r \$0-release;
#X obj 636 654 line~;
#X obj 636 678 outlet~;
#X obj 521 126 f \$1;
#X obj 606 126 f \$2;
#X obj 696 126 f \$3;
#X obj 786 126 f \$4;
#X text 840 125 <-- get arguments of abstraction;
#X connect 1 0 11 0;
#X connect 2 0 70 0;
#X connect 5 0 71 0;
#X connect 6 0 72 0;
#X connect 7 0 73 0;
#X connect 11 0 18 0;
#X connect 11 1 35 0;
#X connect 18 0 43 0;
#X connect 19 0 38 0;
#X connect 20 0 22 1;
#X connect 21 0 19 1;
#X connect 22 0 19 0;
#X connect 23 0 39 0;
#X connect 24 0 27 0;
#X connect 25 0 23 0;
#X connect 26 0 23 1;
#X connect 27 0 25 1;
#X connect 28 0 27 0;
#X connect 28 1 27 1;
#X connect 30 0 28 0;
#X connect 32 0 25 0;
#X connect 33 0 32 1;
#X connect 35 0 45 0;
#X connect 35 1 40 0;
#X connect 35 2 17 0;
#X connect 36 0 32 0;
#X connect 41 0 22 0;
#X connect 42 0 36 0;
#X connect 44 0 36 0;
#X connect 50 0 32 0;
#X connect 57 0 59 1;
#X connect 59 0 60 0;
#X connect 60 0 64 0;
#X connect 61 0 59 0;
#X connect 65 0 68 0;
#X connect 66 0 68 0;
#X connect 67 0 68 0;
#X connect 68 0 69 0;
#X connect 70 0 13 0;
#X connect 71 0 14 0;
#X connect 72 0 15 0;
#X connect 73 0 16 0;
