#N canvas 76 173 750 313 12;
#X obj 38 38 hsl 150 30 2 2000 1 1 \$0-a \$0-setA ATTACK 5 16 0 15 #ffffff #000000 #000000 11190 1;
#X obj 38 70 hsl 150 30 2 2000 1 1 \$0-d \$0-setD DECAY 5 16 0 15 #ffffff #000000 #000000 14900 1;
#X obj 38 102 hsl 150 30 0 1 0 1 \$0-s \$0-setS SUSTAIN 5 16 0 15 #ffffff #000000 #000000 14900 1;
#X obj 38 134 hsl 150 30 2 2000 1 1 \$0-r \$0-setR RELEASE 5 16 0 15 #ffffff #000000 #000000 11097 1;
#X obj 398 55 inlet;
#X obj 476 55 inlet;
#X obj 556 55 inlet;
#X obj 630 55 inlet;
#X obj 311 55 inlet;
#X obj 398 79 s \$0-setA;
#X obj 630 79 s \$0-setR;
#X obj 556 79 s \$0-setS;
#X obj 476 79 s \$0-setD;
#X obj 403 127 r \$0-d;
#X obj 453 127 r \$0-s;
#X obj 503 127 r \$0-r;
#X obj 353 127 r \$0-a;
#X obj 321 78 s \$0-setT;
#X obj 205 249 outlet~;
#X obj 206 55 inlet~;
#X obj 205 222 *~;
#X obj 311 249 outlet~;
#X text 199 13 INLETS:;
#X text 199 33 1 - signal in;
#X text 315 33 2 - trig;
#X text 398 33 3 - a;
#X text 476 33 4 - d;
#X text 556 33 5 - s;
#X text 630 33 6 - r;
#X text 38 274 OUTLETS:;
#X text 106 273 1 - Enveloped Signal Out~;
#X text 312 272 2 - Envelope Only~;
#X obj 311 167 adsrEnv~, f 21;
#X connect 4 0 9 0 empty;
#X connect 5 0 12 0 empty;
#X connect 6 0 11 0 empty;
#X connect 7 0 10 0 empty;
#X connect 8 0 17 0 empty;
#X connect 8 0 32 0 empty;
#X connect 13 0 32 2 empty;
#X connect 14 0 32 3 empty;
#X connect 15 0 32 4 empty;
#X connect 16 0 32 1 empty;
#X connect 19 0 20 0 empty;
#X connect 20 0 18 0 empty;
#X connect 32 0 20 1 empty;
#X connect 32 0 21 0 empty;
#X coords 0 -1 1 1 160 152 2 33 15;
