#N canvas 229 133 622 521 12;
#X msg 398 180 \$1 10;
#X obj 255 130 *~ 0.5;
#X obj 255 153 +~ 0.5;
#X text 307 134 scale to 0-1 range, f 9;
#X obj 255 248 *~;
#X obj 398 209 line~;
#X obj 179 248 sig~ 1;
#X obj 179 289 -~;
#X text 285 248 scale by chosen depth value;
#X text 206 289 take our modulator away from 1 \, this way if depth == 0 \, we still get a full-volume carrier wave when we multiply the carrier and modifier together.;
#X obj 14 335 *~;
#X obj 13 76 inlet~;
#X obj 255 76 inlet~;
#X obj 398 76 inlet;
#X obj 14 427 outlet~;
#X text 254 54 MODULATOR SIG~;
#X text 13 54 CARRIER SIG~;
#X text 397 53 DEPTH;
#X text 71 427 AM OUTPUT~;
#X text 7 5 INLET: 1 - carrier signal \, 2 - modulator signal \, 3 - depth;
#X text 9 482 OUTLET: 1 - AM signal Out;
#X connect 0 0 5 0;
#X connect 1 0 2 0;
#X connect 2 0 4 0;
#X connect 4 0 7 1;
#X connect 5 0 4 1;
#X connect 6 0 7 0;
#X connect 7 0 10 1;
#X connect 10 0 14 0;
#X connect 11 0 10 0;
#X connect 12 0 1 0;
#X connect 13 0 0 0;
