#N canvas 0 25 1041 733 12;
#X obj 414 138 r \$0-trig;
#X obj 53 33 hsl 152 34 2 5000 1 0 \$0-att \$0-setAtt ATTACK 7 16 0 15 #ffffff #000000 #000000 0 1;
#X obj 53 70 hsl 152 34 2 5000 1 0 \$0-rel \$0-setRel RELEASE 7 16 0 15 #ffffff #000000 #000000 0 1;
#X obj 13 70 bng 34 250 50 0 \$0-trig \$0-trigIn empty 5 -20 0 20 #ffffff #000000 #000000;
#X obj 414 33 inlet;
#X obj 485 279 outlet~;
#X obj 497 33 inlet;
#X obj 597 33 inlet;
#X obj 497 93 s \$0-setAtt;
#X obj 597 93 s \$0-setRel;
#X obj 414 93 s \$0-trigIn;
#X obj 414 181 ar~, f 20;
#X obj 326 33 inlet~;
#X obj 326 279 outlet~;
#X obj 326 249 *~;
#X obj 487 138 r \$0-att;
#X obj 552 138 r \$0-rel;
#X obj 606 56 loadnum 800;
#X obj 506 57 loadnum 80;
#X text 304 10 1 signal in;
#X text 239 10 INLETS:;
#X text 413 9 2 -Bang in;
#X text 495 10 3 -attack;
#X text 591 10 4 -release;
#X text 296 305 1 - enveloped signal~;
#X text 465 305 2 - envelope only~;
#X text 182 305 OUTLETS:;
#X connect 0 0 11 0;
#X connect 4 0 10 0;
#X connect 6 0 8 0;
#X connect 7 0 9 0;
#X connect 11 0 5 0;
#X connect 11 0 14 1;
#X connect 12 0 14 0;
#X connect 14 0 13 0;
#X connect 15 0 11 1;
#X connect 16 0 11 2;
#X connect 17 0 9 0;
#X connect 18 0 8 0;
#X coords 0 -1 1 1 200 97 1 10 10;
