#N canvas 345 47 544 416 12;
#X msg 11 265 0 \$1;
#X msg 93 264 1 \$1;
#X obj 11 168 del;
#X obj 11 115 t b b, f 12;
#X obj 11 307 line~;
#X obj 11 61 inlet;
#X obj 259 60 inlet;
#X obj 380 60 inlet;
#X obj 11 350 outlet~;
#X obj 259 118 s \$0-att;
#X obj 380 118 s \$0-rel;
#X obj 111 133 r \$0-att;
#X obj 29 205 r \$0-rel;
#X obj 93 231 f;
#X obj 11 229 f;
#X obj 259 89 f \$1;
#X obj 380 89 f \$2;
#X obj 469 61 loadbang;
#X obj 169 303 line;
#X obj 169 350 outlet;
#X text 9 38 TRIGGER ENVELOPE (bang);
#X text 259 36 ATTACK;
#X text 379 36 RELEASE;
#X text 4 5 INLETS: 1 - trigger \, 2 - attack \, 3 - release;
#X text 4 390 OUTLETS: 1 - envelope~ \, 2 - envelope (control rate);
#X connect 0 0 4 0 empty;
#X connect 0 0 18 0 empty;
#X connect 1 0 4 0 empty;
#X connect 1 0 18 0 empty;
#X connect 2 0 14 0 empty;
#X connect 3 0 2 0 empty;
#X connect 3 1 13 0 empty;
#X connect 4 0 8 0 empty;
#X connect 5 0 3 0 empty;
#X connect 6 0 15 0 empty;
#X connect 7 0 16 0 empty;
#X connect 11 0 2 1 empty;
#X connect 11 0 13 1 empty;
#X connect 12 0 14 1 empty;
#X connect 13 0 1 0 empty;
#X connect 14 0 0 0 empty;
#X connect 15 0 9 0 empty;
#X connect 16 0 10 0 empty;
#X connect 17 0 16 0 empty;
#X connect 17 0 15 0 empty;
#X connect 18 0 19 0 empty;
