#N canvas 736 25 1004 819.094 12;
#X obj 46 38 bng 15 250 50 0 \$0-open empty empty 17 7 0 10 #fcfcfc
#000000 #000000;
#X obj 44 99 tgl 15 0 \$0-record empty empty 17 7 0 10 #fcfcfc #000000
#000000 0 1;
#X text 68 36 open default sound file (do this first), f 15;
#X text 68 96 record toggle;
#X text 46 12 ++++AUDIO RECORD++++;
#X obj 302 189 r \$0-record;
#X obj 192 374 writesf~ 2;
#X msg 36 272 open -bytes 3 pdRecording.wav;
#X obj 302 238 sel 1 0;
#X msg 302 267 start;
#X msg 348 267 stop;
#X obj 42 329 inlet~;
#X obj 316 329 inlet~;
#X obj 36 189 r \$0-open;
#X connect 5 0 8 0;
#X connect 7 0 6 0;
#X connect 8 0 9 0;
#X connect 8 1 10 0;
#X connect 9 0 6 0;
#X connect 10 0 6 0;
#X connect 11 0 6 0;
#X connect 12 0 6 1;
#X connect 13 0 7 0;
#X coords 0 -1 1 1 155 113 2 40 9;
