#N canvas 827 239 527 327 12;
#X obj 15 103 inlet;
#X obj 181 132 f \$1;
#X obj 181 160 sel 0, f 7;
#X msg 181 185 25;
#X obj 181 103 loadbang;
#X obj 264 103 inlet;
#X obj 15 258 pack, f 31;
#X obj 15 299 line~;
#X obj 99 299 line;
#X obj 15 325 outlet~;
#X obj 99 325 outlet;
#X text 8 71 input to declick;
#X text 266 75 smooth rate;
#X text 259 184 defaults to 25ms;
#X text 15 356 signal out;
#X text 99 356 ctl out;
#X connect 0 0 6 0;
#X connect 1 0 2 0;
#X connect 2 0 3 0;
#X connect 2 1 6 1;
#X connect 3 0 6 1;
#X connect 4 0 1 0;
#X connect 5 0 6 1;
#X connect 6 0 7 0;
#X connect 6 0 8 0;
#X connect 7 0 9 0;
#X connect 8 0 10 0;
