#N canvas 495 25 517 496 12;
#X obj 33 90 mtof;
#X obj 93 89 / 127;
#X obj 33 278 simpleFM~;
#X obj 63 242 *, f 5;
#X obj 73 204 t b f;
#X obj 153 386 ar~;
#X obj 33 342 *~;
#X obj 33 435 *~;
#X obj 93 113 t b f;
#X obj 186 26 inlet;
#X obj 283 26 inlet;
#X obj 33 26 inlet;
#X obj 369 26 inlet;
#X obj 449 26 inlet;
#X obj 33 467 outlet~;
#X obj 93 145 s \$0-bang;
#X obj 97 353 r \$0-bang;
#X obj 162 145 s \$0-amp;
#X obj 73 177 r \$0-ratio;
#X obj 186 56 s \$0-ratio;
#X obj 283 55 s \$0-depth;
#X obj 111 242 r \$0-depth;
#X obj 51 313 r \$0-amp;
#X obj 369 55 s \$0-att;
#X obj 449 55 s \$0-rel;
#X obj 167 353 r \$0-att;
#X obj 230 353 r \$0-rel;
#X text 19 3 midi note;
#X text 91 3 velocity;
#X text 177 3 mod ratio;
#X text 274 3 mod depth;
#X text 365 3 attack;
#X text 444 3 release;
#X obj 33 56 unpack 0 0;
#X text 89 467 FM signal out~;
#X connect 0 0 2 0;
#X connect 0 0 3 0;
#X connect 1 0 8 0;
#X connect 2 0 6 0;
#X connect 3 0 2 1;
#X connect 4 0 3 0;
#X connect 4 1 3 1;
#X connect 5 0 7 1;
#X connect 6 0 7 0;
#X connect 7 0 14 0;
#X connect 8 0 15 0;
#X connect 8 1 17 0;
#X connect 9 0 19 0;
#X connect 10 0 20 0;
#X connect 11 0 33 0;
#X connect 12 0 23 0;
#X connect 13 0 24 0;
#X connect 16 0 5 0;
#X connect 18 0 4 0;
#X connect 21 0 2 2;
#X connect 22 0 6 1;
#X connect 25 0 5 1;
#X connect 26 0 5 2;
#X connect 33 0 0 0;
#X connect 33 1 1 0;
