#N canvas 292 87 702 500 12;
#X obj 20 94 mtof;
#X obj 86 91 / 127;
#X obj 20 282 simpleFM~;
#X obj 50 246 *, f 5;
#X obj 60 208 t b f;
#X obj 20 439 *~;
#X obj 173 30 inlet;
#X obj 270 30 inlet;
#X obj 20 30 inlet;
#X obj 20 471 outlet~;
#X obj 60 181 r \$0-ratio;
#X obj 173 60 s \$0-ratio;
#X obj 270 59 s \$0-depth;
#X obj 98 246 r \$0-depth;
#X text 6 7 midi note;
#X text 78 7 velocity;
#X text 164 7 mod ratio;
#X text 261 7 mod depth;
#X obj 20 60 unpack 0 0;
#X obj 140 390 adsr~;
#X obj 358 28 inlet;
#X text 357 8 A;
#X obj 443 28 inlet;
#X obj 533 28 inlet;
#X obj 623 28 inlet;
#X text 442 8 D;
#X text 532 8 S;
#X text 622 8 R;
#X obj 358 57 s \$0-a;
#X obj 443 57 s \$0-d;
#X obj 533 57 s \$0-s;
#X obj 623 57 s \$0-r;
#X obj 156 357 r \$0-a;
#X obj 206 357 r \$0-d;
#X obj 256 357 r \$0-s;
#X obj 306 357 r \$0-r;
#X obj 86 120 s \$0-vol;
#X obj 84 357 r \$0-vol;
#X connect 0 0 2 0;
#X connect 0 0 3 0;
#X connect 1 0 36 0;
#X connect 2 0 5 0;
#X connect 3 0 2 1;
#X connect 4 0 3 0;
#X connect 4 1 3 1;
#X connect 5 0 9 0;
#X connect 6 0 11 0;
#X connect 7 0 12 0;
#X connect 8 0 18 0;
#X connect 10 0 4 0;
#X connect 13 0 2 2;
#X connect 18 0 0 0;
#X connect 18 1 1 0;
#X connect 19 0 5 1;
#X connect 20 0 28 0;
#X connect 22 0 29 0;
#X connect 23 0 30 0;
#X connect 24 0 31 0;
#X connect 32 0 19 1;
#X connect 33 0 19 2;
#X connect 34 0 19 3;
#X connect 35 0 19 4;
#X connect 37 0 19 0;
