#N canvas 579 48 656 463 12;
#X obj 188 261 *~;
#X obj 8 306 +~;
#X obj 8 363 outlet~;
#X msg 8 134 \$1 10;
#X obj 8 156 line~;
#X obj 8 71 inlet;
#X msg 188 134 \$1 10;
#X obj 188 156 line~;
#X obj 188 71 inlet;
#X msg 468 194 \$1 10;
#X obj 468 216 line~;
#X obj 468 71 inlet;
#X obj 8 100 f \$1;
#X obj 188 100 f \$2;
#X obj 468 100 f \$3;
#X obj 382 70 loadbang;
#X obj 188 220 waveSelect~;
#X obj 8 331 waveSelect~;
#X obj 547 72 inlet;
#X obj 592 72 inlet;
#X obj 537 101 s \$0-c;
#X obj 593 101 s \$0-m;
#X obj 75 136 t b;
#X obj 75 165 s \$0-rstPh;
#X obj 283 190 r \$0-rstPh;
#X obj 125 306 r \$0-rstPh;
#X obj 59 306 r \$0-c;
#X obj 231 190 r \$0-m;
#X text 6 47 CARRIER FREQ (Hz);
#X text 186 47 MODULATOR FREQ (Hz);
#X text 466 47 DEPTH;
#X text 545 48 CAR;
#X text 590 48 MOD;
#X text 67 363 FM SIGNAL OUT;
#X text 7 7 INLETS: 1 - car freq \, 2 - mod freq \, 3 - depth \, 4 - car \,;
#X text 403 7 5 - mod;
#X text 12 423 OUTLETS: 1 - FM Signal Out;
#X connect 0 0 1 1;
#X connect 1 0 17 0;
#X connect 3 0 4 0;
#X connect 4 0 1 0;
#X connect 5 0 12 0;
#X connect 6 0 7 0;
#X connect 7 0 16 0;
#X connect 8 0 13 0;
#X connect 9 0 10 0;
#X connect 10 0 0 1;
#X connect 11 0 14 0;
#X connect 12 0 3 0;
#X connect 12 0 22 0;
#X connect 13 0 6 0;
#X connect 14 0 9 0;
#X connect 15 0 12 0;
#X connect 15 0 13 0;
#X connect 15 0 14 0;
#X connect 16 0 0 0;
#X connect 17 0 2 0;
#X connect 18 0 20 0;
#X connect 19 0 21 0;
#X connect 22 0 23 0;
#X connect 24 0 16 2;
#X connect 25 0 17 2;
#X connect 26 0 17 1;
#X connect 27 0 16 1;
