#N canvas -1057 -500 1037 368 12;
#X obj 19 27 inlet;
#X obj 19 56 clip \$1 \$2;
#X obj 493 58 loadbang;
#X obj 107 112 f \$1;
#X obj 221 112 f \$2;
#X obj 107 195 -, f 5;
#X obj 107 144 t b f;
#X obj 107 56 inlet;
#X obj 221 56 inlet;
#X obj 312 56 inlet;
#X obj 426 56 inlet;
#X obj 159 195 s \$0-inLo;
#X text 63 28 ARGUMENTS: inLo \, inHi \, outLo \, outHi;
#X obj 107 228 s \$0-inDiff;
#X obj 312 195 -, f 5;
#X obj 359 195 s \$0-outLo;
#X obj 312 228 s \$0-outDiff;
#X obj 20 315 expr ((($f1-$f2)/$f3) * $f5) + $f4, f 50;
#X obj 106 288 r \$0-inLo;
#X obj 193 288 r \$0-inDiff;
#X obj 280 288 r \$0-outLo;
#X obj 367 288 r \$0-outDiff;
#X obj 20 341 outlet;
#X obj 312 144 t b f;
#X obj 312 112 f \$3;
#X obj 426 112 f \$4;
#X text 73 341 OUTLET: mapped values;
#X text 62 3 INLETS: values to be mapped \, inLo \, inHi \, outLo \, outHi;
#X text 510 107 This middle section lets us caluclate the range of our expected input \, and the range of our output \, and sends this on...;
#X text 508 273 This is where the magic happens. [expr] excecutes the formula we give it. The incoming value is first changed to a ratio of the input range \, then multiplied by the output range. We then add the minimum output value to this number to get our output.;
#X connect 0 0 1 0;
#X connect 1 0 17 0;
#X connect 2 0 3 0;
#X connect 2 0 4 0;
#X connect 2 0 24 0;
#X connect 2 0 25 0;
#X connect 3 0 6 0;
#X connect 4 0 5 0;
#X connect 5 0 13 0;
#X connect 6 0 5 0;
#X connect 6 1 5 1;
#X connect 6 1 11 0;
#X connect 7 0 3 0;
#X connect 8 0 4 0;
#X connect 9 0 24 0;
#X connect 10 0 25 0;
#X connect 14 0 16 0;
#X connect 17 0 22 0;
#X connect 18 0 17 1;
#X connect 19 0 17 2;
#X connect 20 0 17 3;
#X connect 21 0 17 4;
#X connect 23 0 14 0;
#X connect 23 1 15 0;
#X connect 23 1 14 1;
#X connect 24 0 23 0;
#X connect 25 0 14 0;
