#N canvas 827 239 527 327 12;
#X obj 119 99 inlet;
#X obj 119 139 clip \$1 \$2;
#X obj 879 101 loadbang;
#X obj 493 155 f \$1;
#X obj 607 155 f \$2;
#X obj 493 238 -, f 5;
#X obj 493 187 t b f;
#X obj 493 99 inlet;
#X obj 607 99 inlet;
#X obj 698 99 inlet;
#X obj 812 99 inlet;
#X obj 545 238 s \$0-inLo;
#X text 163 100 ARGUMENTS: inLo \, inHi \, outLo \, outHi;
#X obj 493 271 s \$0-inDiff;
#X obj 698 238 -, f 5;
#X obj 745 238 s \$0-outLo;
#X obj 698 271 s \$0-outDiff;
#X obj 283 512 r \$0-outLo;
#X obj 448 512 r \$0-outDiff;
#X obj 119 565 outlet;
#X obj 698 187 t b f;
#X obj 698 155 f \$3;
#X obj 812 155 f \$4;
#X text 172 565 OUTLET: mapped values;
#X text 896 150 This middle section lets us caluclate the range of our expected input \, and the range of our output \, and sends this on...;
#X text 607 497 This is where the magic happens. [expr] excecutes the formula we give it. The incoming value is first changed to a ratio of the input range \, then multiplied by the output range. We then add the minimum output value to this number to get our output.;
#X obj 119 215 - \$1;
#X obj 139 179 r \$0-inLo;
#X obj 119 319 /;
#X obj 172 239 r \$0-inDiff;
#X obj 172 268 t b f;
#X obj 119 539 expr ($f1 * $f3) + $f2, f 50;
#X obj 119 419 pow 1;
#X obj 896 330 f \$5;
#X obj 896 359 sel 0;
#X obj 931 279 inlet;
#X text 162 75 INLETS: values to be mapped \, inLo \, inHi \, outLo \, outHi \, exponent;
#X text 939 305 Setting the exponent will change the distribution of values across the output range, f 29;
#X floatatom 784 446 5 0 0 0 - - - 12;
#X connect 0 0 1 0;
#X connect 1 0 26 0;
#X connect 2 0 3 0;
#X connect 2 0 4 0;
#X connect 2 0 21 0;
#X connect 2 0 22 0;
#X connect 2 0 33 0;
#X connect 3 0 6 0;
#X connect 4 0 5 0;
#X connect 5 0 13 0;
#X connect 6 0 5 0;
#X connect 6 1 5 1;
#X connect 6 1 11 0;
#X connect 7 0 3 0;
#X connect 8 0 4 0;
#X connect 9 0 21 0;
#X connect 10 0 22 0;
#X connect 14 0 16 0;
#X connect 17 0 31 1;
#X connect 18 0 31 2;
#X connect 20 0 14 0;
#X connect 20 1 15 0;
#X connect 20 1 14 1;
#X connect 21 0 20 0;
#X connect 22 0 14 0;
#X connect 26 0 28 0;
#X connect 27 0 26 1;
#X connect 28 0 32 0;
#X connect 29 0 30 0;
#X connect 30 0 28 0 32.................P....v7+++OD....L+++++A....;
#X connect 30 1 28 1 32.................a....r7++++F....K+++++A....;
#X connect 31 0 19 0;
#X connect 32 0 31 0;
#X connect 33 0 34 0;
#X connect 34 1 32 1;
#X connect 34 1 38 0;
#X connect 35 0 33 0;
