#N canvas 495 25 450 300 12;
#X obj 13 171 pack 0 0 0;
#X obj 13 56 inlet;
#X obj 80 56 inlet;
#X obj 13 240 outlet;
#X obj 13 114 poly \$1 \$2;
#X text 12 27 MIDI note;
#X text 84 27 Velocity;
#X text 14 264 Voice/Note/Vel;
#X obj 13 143 - 1;
#X connect 0 0 3 0;
#X connect 1 0 4 0;
#X connect 2 0 4 1;
#X connect 4 0 8 0;
#X connect 4 1 0 1;
#X connect 4 2 0 2;
#X connect 8 0 0 0;
