#N canvas 224 150 506 342 12;
#X obj 138 99 inlet;
#X obj 243 99 inlet;
#X obj 17 196 *~;
#X obj 138 138 f \$1;
#X obj 243 138 f \$2;
#X obj 342 99 inlet;
#X obj 342 138 f \$3;
#X obj 426 99 loadbang;
#X obj 17 240 osc~;
#X obj 17 281 *~;
#X obj 17 310 outlet~;
#X obj 17 99 inlet~;
#X text 74 310 PARTIAL SIGNAL~;
#X text 14 1 INLETS: 1 - freq \, 2 - freq mul \, 3 - Phase \, 4 - amp;
#X text 15 21 ARGUMENTS: 1 - freq \, 2 - freq mul \, 3 - Phase \, 4 - amp;
#X text 17 74 FREQ;
#X text 139 75 REQ MUL;
#X text 244 74 PHASE;
#X text 342 75 AMP;
#X connect 0 0 3 0;
#X connect 1 0 4 0;
#X connect 2 0 8 0;
#X connect 3 0 2 1;
#X connect 4 0 8 1;
#X connect 5 0 6 0;
#X connect 6 0 9 1;
#X connect 7 0 6 0;
#X connect 7 0 4 0;
#X connect 7 0 3 0;
#X connect 8 0 9 0;
#X connect 9 0 10 0;
#X connect 11 0 2 0;
