#N canvas 121 146 450 300 12;
#X obj 25 68 inlet;
#X obj 92 67 inlet;
#X text 21 9 INLETS: 1 - MIDI note \, 2 - MIDI vel;
#X text 21 30 ARGUMENTS: 1 - Number of voices \, 2 - voice stealing;
#X obj 25 111 poly \$1 \$2;
#X obj 25 159 pack f f f;
#X obj 25 183 outlet;
#X text 25 212 OUTLETS: 1 - Voice assigned MIDI messages \, formatted for [clone];
#X obj 25 135 - 1;
#X connect 0 0 4 0;
#X connect 1 0 4 1;
#X connect 4 0 8 0;
#X connect 4 1 5 1;
#X connect 4 2 5 2;
#X connect 5 0 6 0;
#X connect 8 0 5 0;
