#N canvas 277 118 779 457 12;
#X obj 112 147 *~;
#X obj 6 188 xFade~, f 42;
#X obj 6 100 inlet~;
#X obj 130 100 inlet~;
#X obj 297 101 inlet;
#X obj 6 261 outlet~;
#X obj 297 139 f \$1;
#X obj 338 101 loadbang;
#X text 6 75 CARRIER SIG~;
#X text 130 75 MODULATOR SIG~;
#X text 297 75 DRY/WET MIX;
#X text 62 261 RINGMOD OUTPUT~;
#X text 6 18 ARGUMENTS: 1 - Dry/wet mix;
#X text 6 1 INLETS: 1 - carrier signal \, 2 - modlulator \, 3 - dry/wet mix;
#X text 7 322 OUTLETS: 1 - ringmod output;
#X connect 0 0 1 1;
#X connect 1 0 5 0;
#X connect 2 0 1 0;
#X connect 2 0 0 0;
#X connect 3 0 0 1;
#X connect 4 0 6 0;
#X connect 6 0 1 2;
#X connect 7 0 6 0;
