#N canvas 196 -1049 441 394 12;
#X obj 74 107 loadbang;
#X obj 74 131 f \$1;
#X obj 24 333 outlet~;
#X obj 24 198 phasor~;
#X obj 24 222 *~ 2;
#X obj 24 246 -~ 1;
#X obj 74 160 sig~;
#X obj 24 101 inlet~;
#X text 21 78 FREQUENCY;
#X text 19 34 ARGUMENTS: 1 - Initial Frequency;
#X text 24 356 OUTLETS: 1 - SAWTOOTH~;
#X text 18 6 INLETS: 1 - Frequency;
#X connect 0 0 1 0;
#X connect 1 0 6 0;
#X connect 3 0 4 0;
#X connect 4 0 5 0;
#X connect 5 0 2 0;
#X connect 6 0 3 0;
#X connect 7 0 3 0;
