#N canvas 551 214 600 414 12;
#X obj 36 240 *~ 2;
#X obj 36 270 -~ 1;
#X obj 36 300 outlet~;
#X text 32 34 ARGUMENTS: 1 - Initial Frequency;
#X text 31 6 INLETS: 1 - Frequency;
#X text 38 335 OUTLETS: 1 Sawtooth Out;
#X obj 156 106 f \$1;
#X obj 156 85 loadbang;
#X obj 35 96 inlet~;
#X text 32 75 FREQUENCY;
#X obj 36 178 +~ \$1;
#N canvas -770 -160 450 300 unset 0;
#X obj 61 45 inlet~;
#X obj 143 46 inlet;
#X obj 143 245 outlet;
#X obj 143 92 metro 50;
#X obj 143 70 > 0;
#X obj 143 117 snapshot~;
#X obj 143 141 change;
#X obj 143 165 != 0;
#X obj 143 189 sel 1;
#X msg 143 213 0;
#X obj 198 246 s \$0-stop;
#X obj 171 70 r \$0-stop;
#X connect 0 0 5 0;
#X connect 1 0 4 0;
#X connect 3 0 5 0;
#X connect 4 0 3 0;
#X connect 5 0 6 0;
#X connect 6 0 7 0;
#X connect 7 0 8 0;
#X connect 8 0 9 0;
#X connect 9 0 2 0;
#X connect 9 0 10 0;
#X connect 11 0 3 0;
#X restore 68 128 pd unset argument on freq change;
#X f 13;
#X obj 36 210 phasor~;
#X connect 0 0 1 0;
#X connect 1 0 2 0;
#X connect 6 0 11 1;
#X connect 7 0 6 0;
#X connect 8 0 11 0;
#X connect 8 0 10 0;
#X connect 10 0 12 0;
#X connect 11 0 10 1;
#X connect 12 0 0 0;
