#N canvas 193 138 586 214 12;
#X obj 215 56 inlet~;
#X obj 271 56 loadbang;
#X msg 271 80 1;
#X obj 271 104 metro 250;
#X text 360 59 The \$0 in the argument of array sets a unique number for each instance of the abstraction \, meaning we dont accidentally duplicate our arrays/tables, f 31;
#N canvas 32 25 450 278 (subpatch) 0;
#X array \$0-scope 256 float 0;
#X coords 0 1 255 -1 198 126 1 0 0;
#X restore 9 25 graph;
#X obj 162 8 nbx 4 15 21 1000 0 1 empty empty Refresh\ Rate -75 8 0 10 #ffffff #000000 #000000 1000 256;
#X obj 215 160 outlet~;
#X obj 222 127 tabwrite~ \$0-scope;
#X text 221 7 INLETS: 1 - signal to be scoped;
#X text 215 187 OUTLET: 1 - passthrough signal.;
#X connect 0 0 7 0;
#X connect 0 0 8 0;
#X connect 1 0 2 0;
#X connect 2 0 3 0;
#X connect 3 0 8 0;
#X connect 6 0 3 0;
#X coords 0 -1 1 1 204 148 2 6 6;
