#N canvas 495 25 730 815 12;
#X obj 278 34 tgl 41 0 \$0-t1 empty empty 17 7 0 10 #fcfcfc #000000 #000000 0 1;
#X obj 321 34 tgl 41 0 \$0-t2 empty empty 17 7 0 10 #fcfcfc #000000 #000000 0 1;
#X obj 364 34 tgl 41 0 \$0-t3 empty empty 17 7 0 10 #fcfcfc #000000 #000000 0 1;
#X obj 407 34 tgl 41 0 \$0-t4 empty empty 17 7 0 10 #fcfcfc #000000 #000000 0 1;
#X obj 450 34 tgl 41 0 \$0-t5 empty empty 17 7 0 10 #fcfcfc #000000 #000000 0 1;
#X obj 493 34 tgl 41 0 \$0-t6 empty empty 17 7 0 10 #fcfcfc #000000 #000000 0 1;
#X obj 536 34 tgl 41 0 \$0-t7 empty empty 17 7 0 10 #fcfcfc #000000 #000000 0 1;
#X obj 579 34 tgl 41 0 \$0-t8 empty empty 17 7 0 10 #fcfcfc #000000 #000000 0 1;
#X obj 27 398 r \$0-t1;
#X obj 9 431 f;
#X obj 9 511 sel 1;
#X obj 88 431 f;
#X obj 167 431 f;
#X obj 246 431 f;
#X obj 327 431 f;
#X obj 406 431 f;
#X obj 485 431 f;
#X obj 564 431 f;
#X obj 106 398 r \$0-t2;
#X obj 185 398 r \$0-t3;
#X obj 264 398 r \$0-t4;
#X obj 345 398 r \$0-t5;
#X obj 424 398 r \$0-t6;
#X obj 503 398 r \$0-t7;
#X obj 582 398 r \$0-t8;
#X obj 9 583 outlet;
#X obj 9 200 inlet;
#X obj 536 -68 inlet;
#X text 10 167 count;
#X text 71 168 start no.;
#X obj 9 274 -;
#X obj 9 312 sel 0 1 2 3 4 5 6 7, f 91;
#X obj 585 19 nbx 3 12 -1e+37 1e+37 0 0 \$0-guiOffset \$0-offset offset -40 6 0 10 #ffffff #000000 #000000 0 256;
#X text 8 106 INLETS: 1 - count number \, 2 - Start Number (offset);
#X text 333 139 The offset input to the 2nd [inlet] can be used to chain together multiple [seq] abstractions for longer sequenced patterns. i.e. you can use 2 [seq] objects to create a 16- beat pattern by using [seq 0] and [seq 8] together with a count of 0-15. [seq 0] will cover the first 8 beats \, [seq 8] picks up after that with beats 8-15.;
#X text 8 123 ARGUMENTS: 1 - count offset.;
#X text 10 605 OUTLET: 1 Sequenced Bangs;
#X text 551 606 Joe Wright Music;
#X text 551 622 2022 \, CC0 Public Domain;
#X obj 143 168 r \$0-guiOffset;
#X obj 143 197 change;
#X obj 717 312 outlet;
#X obj 581 -30 f \$1;
#X obj 581 -68 loadbang;
#X connect 8 0 9 1;
#X connect 9 0 10 0;
#X connect 10 0 25 0;
#X connect 11 0 10 0;
#X connect 12 0 10 0;
#X connect 13 0 10 0;
#X connect 14 0 10 0;
#X connect 15 0 10 0;
#X connect 16 0 10 0;
#X connect 17 0 10 0;
#X connect 18 0 11 1;
#X connect 19 0 12 1;
#X connect 20 0 13 1;
#X connect 21 0 14 1;
#X connect 22 0 15 1;
#X connect 23 0 16 1;
#X connect 24 0 17 1;
#X connect 26 0 30 0;
#X connect 26 0 41 0;
#X connect 27 0 42 0;
#X connect 30 0 31 0;
#X connect 31 0 9 0;
#X connect 31 1 11 0;
#X connect 31 2 12 0;
#X connect 31 3 13 0;
#X connect 31 4 14 0;
#X connect 31 5 15 0;
#X connect 31 6 16 0;
#X connect 31 7 17 0;
#X connect 39 0 40 0;
#X connect 40 0 30 1;
#X connect 42 0 32 0;
#X connect 43 0 42 0;
#X coords 0 -1 1 1 348 67 1 275 11;
