#N canvas 121 25 663 272 12;
#X obj 278 33 bng 41 100 100 0 empty \$0-b1 empty 17 7 0 10 #fcfcfc #000000 #000000;
#X obj 321 33 bng 41 100 100 0 empty \$0-b2 empty 17 7 0 10 #fcfcfc #000000 #000000;
#X obj 364 33 bng 41 100 100 0 empty \$0-b3 empty 17 7 0 10 #fcfcfc #000000 #000000;
#X obj 407 33 bng 41 100 100 0 empty \$0-b4 empty 17 7 0 10 #fcfcfc #000000 #000000;
#X obj 450 33 bng 41 100 100 0 empty \$0-b5 empty 17 7 0 10 #fcfcfc #000000 #000000;
#X obj 493 33 bng 41 100 100 0 empty \$0-b6 empty 17 7 0 10 #fcfcfc #000000 #000000;
#X obj 536 33 bng 41 100 100 0 empty \$0-b7 empty 17 7 0 10 #fcfcfc #000000 #000000;
#X obj 579 33 bng 41 100 100 0 empty \$0-b8 empty 17 7 0 10 #fcfcfc #000000 #000000;
#X obj 10 180 s \$0-b1;
#X obj 89 180 s \$0-b2;
#X obj 168 180 s \$0-b3;
#X obj 247 180 s \$0-b4;
#X obj 327 180 s \$0-b5;
#X obj 406 180 s \$0-b6;
#X obj 486 180 s \$0-b7;
#X obj 565 180 s \$0-b8;
#X obj 10 46 inlet;
#X obj 73 46 inlet;
#X text 11 13 count;
#X text 72 14 start no.;
#X obj 73 77 f \$1;
#X obj 117 46 loadbang;
#X obj 10 120 -;
#X obj 10 152 sel 0 1 2 3 4 5 6 7, f 91;
#X obj 79 104 s \$0-offset;
#X obj 585 18 nbx 3 12 -1e+37 1e+37 0 0 \$0-dummyReceive \$0-offset offset -40 6 0 10 #ffffff #000000 #000000 0 256;
#X text 482 227 Joe Wright Music;
#X text 482 243 2022 \, CC0 Public Domain;
#X connect 16 0 22 0;
#X connect 17 0 20 0;
#X connect 20 0 22 1;
#X connect 20 0 24 0;
#X connect 21 0 20 0;
#X connect 22 0 23 0;
#X connect 23 0 8 0;
#X connect 23 1 9 0;
#X connect 23 2 10 0;
#X connect 23 3 11 0;
#X connect 23 4 12 0;
#X connect 23 5 13 0;
#X connect 23 6 14 0;
#X connect 23 7 15 0;
#X coords 0 -1 1 1 348 67 2 275 10;
