#N canvas 531 -910 730 847 12;
#X obj 662 32 tgl 41 0 \$0-t1 empty empty 17 7 0 10 #fcfcfc #000000 #000000 0 1;
#X obj 705 32 tgl 41 0 \$0-t2 empty empty 17 7 0 10 #fcfcfc #000000 #000000 0 1;
#X obj 748 32 tgl 41 0 \$0-t3 empty empty 17 7 0 10 #fcfcfc #000000 #000000 0 1;
#X obj 791 32 tgl 41 0 \$0-t4 empty empty 17 7 0 10 #fcfcfc #000000 #000000 0 1;
#X obj 834 32 tgl 41 0 \$0-t5 empty empty 17 7 0 10 #fcfcfc #000000 #000000 0 1;
#X obj 877 32 tgl 41 0 \$0-t6 empty empty 17 7 0 10 #fcfcfc #000000 #000000 0 1;
#X obj 920 32 tgl 41 0 \$0-t7 empty empty 17 7 0 10 #fcfcfc #000000 #000000 0 1;
#X obj 963 32 tgl 41 0 \$0-t8 empty empty 17 7 0 10 #fcfcfc #000000 #000000 0 1;
#X obj 27 558 r \$0-t1;
#X obj 9 591 f;
#X obj 88 591 f;
#X obj 167 591 f;
#X obj 246 591 f;
#X obj 327 591 f;
#X obj 406 591 f;
#X obj 485 591 f;
#X obj 564 591 f;
#X obj 106 558 r \$0-t2;
#X obj 185 558 r \$0-t3;
#X obj 264 558 r \$0-t4;
#X obj 345 558 r \$0-t5;
#X obj 424 558 r \$0-t6;
#X obj 503 558 r \$0-t7;
#X obj 582 558 r \$0-t8;
#X obj 9 834 outlet;
#X obj 9 360 inlet;
#X obj 72 360 inlet;
#X text 10 327 count;
#X text 71 328 start no.;
#X obj 72 391 f \$1;
#X obj 116 360 loadbang;
#X obj 9 434 -;
#X obj 9 472 sel 0 1 2 3 4 5 6 7, f 91;
#X obj 969 17 nbx 3 12 -1e+37 1e+37 0 0 \$0-dummyReceive \$0-offset offset -40 6 0 10 #ffffff #000000 #000000 0 256;
#X obj 72 425 s \$0-offset;
#X text 8 266 INLETS: 1 - count number \, 2 - Start Number (offset);
#X text 193 328 The offset input to the 2nd [inlet] can be used to chain together multiple [seq] abstractions for longer sequenced patterns. i.e. you can use 2 [seq] objects to create a 16- beat pattern by using [seq 0] and [seq 8] together with a count of 0-15. [seq 0] will cover the first 8 beats \, [seq 8] picks up after that with beats 8-15.;
#X text 8 283 ARGUMENTS: 1 - count offset.;
#X obj 662 79 vsl 41 101 0 127 0 0 \$0-v1 empty empty 0 -9 0 12 #fcfcfc #000000 #000000 0 1;
#X obj 705 79 vsl 41 101 0 127 0 0 \$0-v2 empty empty 0 -9 0 12 #fcfcfc #000000 #000000 0 1;
#X obj 748 79 vsl 41 101 0 127 0 0 \$0-v3 empty empty 0 -9 0 12 #fcfcfc #000000 #000000 0 1;
#X obj 791 79 vsl 41 101 0 127 0 0 \$0-v4 empty empty 0 -9 0 12 #fcfcfc #000000 #000000 0 1;
#X obj 834 79 vsl 41 101 0 127 0 0 \$0-v5 empty empty 0 -9 0 12 #fcfcfc #000000 #000000 0 1;
#X obj 877 79 vsl 41 101 0 127 0 0 \$0-v6 empty empty 0 -9 0 12 #fcfcfc #000000 #000000 0 1;
#X obj 920 79 vsl 41 101 0 127 0 0 \$0-v7 empty empty 0 -9 0 12 #fcfcfc #000000 #000000 0 1;
#X obj 963 79 vsl 41 101 0 127 0 0 \$0-v8 empty empty 0 -9 0 12 #fcfcfc #000000 #000000 0 1;
#X obj 9 615 sel 1;
#X obj 9 772 f;
#X obj 27 739 r \$0-v1;
#X obj 88 615 sel 1;
#X obj 88 772 f;
#X obj 167 615 sel 1;
#X obj 167 772 f;
#X obj 246 615 sel 1;
#X obj 246 772 f;
#X obj 328 615 sel 1;
#X obj 328 772 f;
#X obj 407 615 sel 1;
#X obj 407 772 f;
#X obj 486 615 sel 1;
#X obj 486 772 f;
#X obj 565 615 sel 1;
#X obj 565 772 f;
#X obj 106 739 r \$0-v2;
#X obj 185 739 r \$0-v3;
#X obj 264 739 r \$0-v4;
#X obj 346 739 r \$0-v5;
#X obj 425 739 r \$0-v6;
#X obj 504 739 r \$0-v7;
#X obj 583 739 r \$0-v8;
#X obj 662 186 vsl 41 114 0 127 0 0 \$0-v1b empty empty 0 -9 0 12 #fcfcfc #000000 #000000 0 1;
#X obj 705 186 vsl 41 114 0 127 0 0 \$0-v2b empty empty 0 -9 0 12 #fcfcfc #000000 #000000 0 1;
#X obj 748 186 vsl 41 114 0 127 0 0 \$0-v3b empty empty 0 -9 0 12 #fcfcfc #000000 #000000 0 1;
#X obj 791 186 vsl 41 114 0 127 0 0 \$0-v4b empty empty 0 -9 0 12 #fcfcfc #000000 #000000 0 1;
#X obj 834 186 vsl 41 114 0 127 0 0 \$0-v5b empty empty 0 -9 0 12 #fcfcfc #000000 #000000 0 1;
#X obj 877 186 vsl 41 114 0 127 0 0 \$0-vb empty empty 0 -9 0 12 #fcfcfc #000000 #000000 0 1;
#X obj 920 186 vsl 41 114 0 127 0 0 \$0-v7b empty empty 0 -9 0 12 #fcfcfc #000000 #000000 0 1;
#X obj 963 186 vsl 41 114 0 127 0 0 \$0-v8b empty empty 0 -9 0 12 #fcfcfc #000000 #000000 0 1;
#X obj 1087 99 loadbang;
#X msg 1087 143 64;
#X obj 641 834 outlet;
#X obj 641 772 f;
#X obj 720 772 f;
#X obj 799 772 f;
#X obj 878 772 f;
#X obj 960 772 f;
#X obj 1039 772 f;
#X obj 1118 772 f;
#X obj 1197 772 f;
#X obj 659 739 r \$0-v1b;
#X obj 738 739 r \$0-v2b;
#X obj 817 739 r \$0-v3b;
#X obj 896 739 r \$0-v4b;
#X obj 978 739 r \$0-v5b;
#X obj 1057 739 r \$0-v6b;
#X obj 1136 739 r \$0-v7b;
#X obj 1215 739 r \$0-v8b;
#X connect 8 0 9 1 empty;
#X connect 9 0 46 0 empty;
#X connect 10 0 49 0 empty;
#X connect 11 0 51 0 empty;
#X connect 12 0 53 0 empty;
#X connect 13 0 55 0 empty;
#X connect 14 0 57 0 empty;
#X connect 15 0 59 0 empty;
#X connect 16 0 61 0 empty;
#X connect 17 0 10 1 empty;
#X connect 18 0 11 1 empty;
#X connect 19 0 12 1 empty;
#X connect 20 0 13 1 empty;
#X connect 21 0 14 1 empty;
#X connect 22 0 15 1 empty;
#X connect 23 0 16 1 empty;
#X connect 25 0 31 0 empty;
#X connect 26 0 29 0 empty;
#X connect 29 0 31 1 empty;
#X connect 29 0 34 0 empty;
#X connect 30 0 29 0 empty;
#X connect 31 0 32 0 empty;
#X connect 32 0 9 0 empty;
#X connect 32 1 10 0 empty;
#X connect 32 2 11 0 empty;
#X connect 32 3 12 0 empty;
#X connect 32 4 13 0 empty;
#X connect 32 5 14 0 empty;
#X connect 32 6 15 0 empty;
#X connect 32 7 16 0 empty;
#X connect 46 0 47 0 empty;
#X connect 46 0 81 0 empty;
#X connect 47 0 24 0 empty;
#X connect 48 0 47 1 empty;
#X connect 49 0 50 0 empty;
#X connect 49 0 82 0 empty;
#X connect 50 0 24 0 empty;
#X connect 51 0 52 0 empty;
#X connect 51 0 83 0 empty;
#X connect 52 0 24 0 empty;
#X connect 53 0 54 0 empty;
#X connect 53 0 84 0 empty;
#X connect 54 0 24 0 empty;
#X connect 55 0 56 0 empty;
#X connect 55 0 85 0 empty;
#X connect 56 0 24 0 empty;
#X connect 57 0 58 0 empty;
#X connect 57 0 86 0 empty;
#X connect 58 0 24 0 empty;
#X connect 59 0 60 0 empty;
#X connect 59 0 87 0 empty;
#X connect 60 0 24 0 empty;
#X connect 61 0 62 0 empty;
#X connect 61 0 88 0 empty;
#X connect 62 0 24 0 empty;
#X connect 63 0 50 1 empty;
#X connect 64 0 52 1 empty;
#X connect 65 0 54 1 empty;
#X connect 66 0 56 1 empty;
#X connect 67 0 58 1 empty;
#X connect 68 0 60 1 empty;
#X connect 69 0 62 1 empty;
#X connect 78 0 79 0 empty;
#X connect 79 0 45 0 empty;
#X connect 79 0 44 0 empty;
#X connect 79 0 43 0 empty;
#X connect 79 0 42 0 empty;
#X connect 79 0 41 0 empty;
#X connect 79 0 40 0 empty;
#X connect 79 0 39 0 empty;
#X connect 79 0 38 0 empty;
#X connect 79 0 70 0 empty;
#X connect 79 0 71 0 empty;
#X connect 79 0 72 0 empty;
#X connect 79 0 73 0 empty;
#X connect 79 0 74 0 empty;
#X connect 79 0 75 0 empty;
#X connect 79 0 76 0 empty;
#X connect 79 0 77 0 empty;
#X connect 81 0 80 0 empty;
#X connect 82 0 80 0 empty;
#X connect 83 0 80 0 empty;
#X connect 84 0 80 0 empty;
#X connect 85 0 80 0 empty;
#X connect 86 0 80 0 empty;
#X connect 87 0 80 0 empty;
#X connect 88 0 80 0 empty;
#X connect 89 0 81 1 empty;
#X connect 90 0 82 1 empty;
#X connect 91 0 83 1 empty;
#X connect 92 0 84 1 empty;
#X connect 93 0 85 1 empty;
#X connect 94 0 86 1 empty;
#X connect 95 0 87 1 empty;
#X connect 96 0 88 1 empty;
#X coords 0 -1 1 1 356 292 1 655 13;
