#N canvas 318 56 734 506 12;
#X obj 278 57 tgl 41 0 \$0-t1 empty empty 17 7 0 10 #fcfcfc #000000
#000000 0 1;
#X obj 278 14 bng 41 250 50 0 empty \$0-b1 empty 17 7 0 10 #fcfcfc
#000000 #000000;
#X obj 321 57 tgl 41 0 \$0-t2 empty empty 17 7 0 10 #fcfcfc #000000
#000000 0 1;
#X obj 321 14 bng 41 250 50 0 empty \$0-b2 empty 17 7 0 10 #fcfcfc
#000000 #000000;
#X obj 364 57 tgl 41 0 \$0-t3 empty empty 17 7 0 10 #fcfcfc #000000
#000000 0 1;
#X obj 364 14 bng 41 250 50 0 empty \$0-b3 empty 17 7 0 10 #fcfcfc
#000000 #000000;
#X obj 407 57 tgl 41 0 \$0-t4 empty empty 17 7 0 10 #fcfcfc #000000
#000000 0 1;
#X obj 407 14 bng 41 250 50 0 empty \$0-b4 empty 17 7 0 10 #fcfcfc
#000000 #000000;
#X obj 450 57 tgl 41 0 \$0-t5 empty empty 17 7 0 10 #fcfcfc #000000
#000000 0 1;
#X obj 450 14 bng 41 250 50 0 empty \$0-b5 empty 17 7 0 10 #fcfcfc
#000000 #000000;
#X obj 493 57 tgl 41 0 \$0-t6 empty empty 17 7 0 10 #fcfcfc #000000
#000000 0 1;
#X obj 493 14 bng 41 250 50 0 empty \$0-b6 empty 17 7 0 10 #fcfcfc
#000000 #000000;
#X obj 536 57 tgl 41 0 \$0-t7 empty empty 17 7 0 10 #fcfcfc #000000
#000000 0 1;
#X obj 536 14 bng 41 250 50 0 empty \$0-b7 empty 17 7 0 10 #fcfcfc
#000000 #000000;
#X obj 579 57 tgl 41 0 \$0-t8 empty empty 17 7 0 10 #fcfcfc #000000
#000000 0 1;
#X obj 579 14 bng 41 250 50 0 empty \$0-b8 empty 17 7 0 10 #fcfcfc
#000000 #000000;
#X obj 16 184 s \$0-b1;
#X obj 98 184 s \$0-b2;
#X obj 177 184 s \$0-b3;
#X obj 255 184 s \$0-b4;
#X obj 337 184 s \$0-b5;
#X obj 416 184 s \$0-b6;
#X obj 495 184 s \$0-b7;
#X obj 573 184 s \$0-b8;
#X obj 10 152 sel 1 2 3 4 5 6 7 8, f 91;
#X obj 28 238 r \$0-t1;
#X obj 10 271 f;
#X obj 10 351 sel 1;
#X obj 89 271 f;
#X obj 168 271 f;
#X obj 247 271 f;
#X obj 327 271 f;
#X obj 406 271 f;
#X obj 485 271 f;
#X obj 564 271 f;
#X obj 107 238 r \$0-t2;
#X obj 186 238 r \$0-t3;
#X obj 265 238 r \$0-t4;
#X obj 345 238 r \$0-t5;
#X obj 424 238 r \$0-t6;
#X obj 503 238 r \$0-t7;
#X obj 582 238 r \$0-t8;
#X obj 10 46 inlet;
#X obj 73 46 inlet;
#X obj 10 423 outlet;
#X text 11 13 count;
#X text 72 14 start no.;
#X text 62 423 Bangs on Selected Beats;
#X obj 73 77 f \$1;
#X obj 117 46 loadbang;
#X obj 10 120 -;
#X obj 73 100 - 1;
#X connect 24 0 16 0;
#X connect 24 0 26 0;
#X connect 24 1 17 0;
#X connect 24 1 28 0;
#X connect 24 2 18 0;
#X connect 24 2 29 0;
#X connect 24 3 19 0;
#X connect 24 3 30 0;
#X connect 24 4 20 0;
#X connect 24 4 31 0;
#X connect 24 5 21 0;
#X connect 24 5 32 0;
#X connect 24 6 22 0;
#X connect 24 6 33 0;
#X connect 24 7 23 0;
#X connect 24 7 34 0;
#X connect 25 0 26 1;
#X connect 26 0 27 0;
#X connect 27 0 44 0;
#X connect 28 0 27 0;
#X connect 29 0 27 0;
#X connect 30 0 27 0;
#X connect 31 0 27 0;
#X connect 32 0 27 0;
#X connect 33 0 27 0;
#X connect 34 0 27 0;
#X connect 35 0 28 1;
#X connect 36 0 29 1;
#X connect 37 0 30 1;
#X connect 38 0 31 1;
#X connect 39 0 32 1;
#X connect 40 0 33 1;
#X connect 41 0 34 1;
#X connect 42 0 50 0;
#X connect 43 0 48 0;
#X connect 48 0 51 0;
#X connect 49 0 48 0;
#X connect 50 0 24 0;
#X connect 51 0 50 1;
#X coords 0 -1 1 1 348 90 2 275 11;
