#N canvas 333 64 916 701 12;
#X obj 12 82 inlet~;
#X text 10 47 INCOMING DRY SIGNAL;
#X obj 137 249 *~;
#X obj 155 82 inlet;
#X obj 285 82 inlet;
#X text 283 47 LENGTH (0-100) \, where 100 is infinite reverb.;
#X msg 155 197 \$1 5;
#X msg 285 247 \$1 5;
#X obj 285 271 line;
#X obj 155 221 line~;
#X obj 137 322 rev1~;
#X obj 155 167 clip 0 1;
#X obj 285 217 clip 0 100;
#X obj 607 82 inlet;
#X msg 362 440 \$1 5;
#X obj 362 464 line;
#X obj 295 491 lop~ 20000;
#X text 606 47 LP FILTER CUTOFF;
#X text 231 323 <-- reverb object \, right click and choose "help" to find out more about it., f 26;
#X text 382 493 <-- low pass filter;
#X obj 12 622 clip~ -1 1;
#X text 115 624 <-- clip incase of runaway feedback;
#X obj 729 77 inlet;
#X text 727 47 DRY/WET (0-1);
#X obj 12 593 xFade~, f 15;
#X obj 12 646 outlet~;
#X obj 729 165 s \$0-dryWet;
#X obj 114 570 r \$0-dryWet;
#X obj 155 116 f \$1;
#X obj 285 116 f \$2;
#X obj 607 116 f \$3;
#X obj 729 116 f \$4;
#X obj 347 82 loadbang;
#X text 153 47 INPUT GAIN (0-1);
#X obj 607 145 clip 10 24000;
#X text 9 9 INLETS:;
#X text 10 26 1;
#X text 153 26 2;
#X text 288 26 3;
#X text 604 26 4;
#X text 726 26 5;
#X text 12 669 OUTLET: 1 - Combined Wet/Dry sig out~;
#X connect 0 0 2 0;
#X connect 0 0 24 0;
#X connect 2 0 10 0;
#X connect 3 0 28 0;
#X connect 4 0 29 0;
#X connect 6 0 9 0;
#X connect 7 0 8 0;
#X connect 8 0 10 1;
#X connect 9 0 2 1;
#X connect 10 0 16 0;
#X connect 11 0 6 0;
#X connect 12 0 7 0;
#X connect 13 0 30 0;
#X connect 14 0 15 0;
#X connect 15 0 16 1;
#X connect 16 0 24 1;
#X connect 20 0 25 0;
#X connect 22 0 31 0;
#X connect 24 0 20 0;
#X connect 27 0 24 2;
#X connect 28 0 11 0;
#X connect 29 0 12 0;
#X connect 30 0 34 0;
#X connect 31 0 26 0;
#X connect 32 0 29 0;
#X connect 32 0 28 0;
#X connect 32 0 30 0;
#X connect 32 0 31 0;
#X connect 34 0 14 0;
