#N canvas 335 43 624 421 12;
#X obj 188 181 osc~;
#X text 222 181 <-- Generate modulating signal;
#X obj 118 289 *~;
#X text 154 289 <-- Scale modulating signal (depth);
#X obj 8 326 +~;
#X text 36 326 <-- Add the modulator signal to the carrier Frequency;
#X obj 8 350 osc~;
#X text 44 350 <-- Generate the frequency-modulated carrier Signal;
#X obj 8 374 outlet~;
#X msg 8 124 \$1 10;
#X obj 8 146 line~;
#X obj 8 61 inlet;
#X msg 188 124 \$1 10;
#X obj 188 146 line~;
#X obj 188 61 inlet;
#X msg 468 184 \$1 10;
#X obj 468 206 line~;
#X obj 468 61 inlet;
#X obj 8 90 f \$1;
#X obj 188 90 f \$2;
#X obj 468 90 f \$3;
#X obj 382 60 loadbang;
#X text 186 37 MODULATOR FREQUENCY (Hz);
#X text 6 37 CARRIER FREQUENCY (Hz);
#X text 466 37 DEPTH;
#X text 5 7 INLETS/ARGUMENTS: 1 - Car Freq \, 2 - Mod Freq \, 3 Depth;
#X text 6 398 OUTLETS: 1 - FM SIGNAL;
#X connect 0 0 2 0;
#X connect 2 0 4 1;
#X connect 4 0 6 0;
#X connect 6 0 8 0;
#X connect 9 0 10 0;
#X connect 10 0 4 0;
#X connect 11 0 18 0;
#X connect 12 0 13 0;
#X connect 13 0 0 0;
#X connect 14 0 19 0;
#X connect 15 0 16 0;
#X connect 16 0 2 1;
#X connect 17 0 20 0;
#X connect 18 0 9 0;
#X connect 19 0 12 0;
#X connect 20 0 15 0;
#X connect 21 0 18 0;
#X connect 21 0 19 0;
#X connect 21 0 20 0;
