#N canvas 270 84 457 416 12;
#X obj 231 155 noise~;
#X obj 294 132 t b b;
#X obj 294 199 line~;
#X obj 16 288 clip~ -1 1;
#X obj 231 244 *~;
#X obj 16 155 noise~;
#X obj 110 132 t b b;
#X obj 110 199 line~;
#X obj 110 155 del 5;
#X obj 16 234 *~;
#X msg 356 177 0.5 25;
#X obj 294 155 del 25;
#X msg 162 177 1 1;
#X msg 110 177 0 35;
#X obj 231 177 hip~ 100;
#X text 11 36 TRIGGER SNARE;
#X obj 16 177 bp~ 1000 0.6;
#X msg 294 177 0 160;
#X obj 231 199 lop~ 650;
#X obj 15 54 inlet;
#X obj 15 76 t b;
#X obj 16 347 outlet~;
#X text 72 346 AUDIO OUT~;
#X text 8 2 INLETS: 1 - trigger;
#X text 7 389 OUTLETS: 1 - audio out;
#X connect 0 0 14 0;
#X connect 1 0 11 0;
#X connect 1 1 10 0;
#X connect 2 0 4 1;
#X connect 3 0 21 0;
#X connect 4 0 3 0;
#X connect 5 0 16 0;
#X connect 6 0 8 0;
#X connect 6 1 12 0;
#X connect 7 0 9 1;
#X connect 8 0 13 0;
#X connect 9 0 3 0;
#X connect 10 0 2 0;
#X connect 11 0 17 0;
#X connect 12 0 7 0;
#X connect 13 0 7 0;
#X connect 14 0 18 0;
#X connect 16 0 9 0;
#X connect 17 0 2 0;
#X connect 18 0 4 0;
#X connect 19 0 20 0;
#X connect 20 0 6 0;
#X connect 20 0 1 0;
