#N canvas 224 43 602 402 12;
#X obj 153 297 *~;
#X obj 208 95 bng 15 250 50 0 empty empty empty 17 7 0 10 #fcfcfc #000000 #000000;
#X obj 153 338 clip~ -1 1;
#X obj 10 130 cnv 15 200 135 empty empty FM_with_two_sinewaves 20 12 0 12 #ececf0 #404040 0;
#X obj 230 130 cnv 15 140 135 empty empty AR_Envelope 20 12 0 12 #ececf0 #404040 0;
#X text 230 95 <--- TRIGGER THE BELL;
#X obj 250 160 t b b;
#X obj 250 239 line~;
#X obj 250 191 del 10;
#X msg 309 210 0.1 0;
#X msg 250 210 0 300;
#X obj 31 216 +~ 440;
#X obj 31 194 *~ 10000;
#X obj 31 237 osc~;
#X obj 31 173 osc~ 3000;
#X obj 173 60 inlet;
#X obj 144 376 outlet~;
#X connect 0 0 2 0;
#X connect 1 0 6 0;
#X connect 2 0 16 0;
#X connect 6 0 8 0;
#X connect 6 1 9 0;
#X connect 7 0 0 1;
#X connect 8 0 10 0;
#X connect 9 0 7 0;
#X connect 10 0 7 0;
#X connect 11 0 13 0;
#X connect 12 0 11 0;
#X connect 13 0 0 0;
#X connect 14 0 12 0;
#X connect 15 0 1 0;
