#N canvas 295 50 463 450 12;
#X obj 19 310 *~;
#X obj 36 65 t b b;
#X obj 37 133 line~;
#X msg 92 110 1 1;
#X msg 37 110 0 30;
#X obj 36 87 del 3;
#X obj 19 214 noise~;
#X obj 19 267 hip~ 5600;
#X obj 19 339 clip~ -1 1;
#X obj 36 32 inlet;
#X obj 19 377 outlet~;
#X text 78 32 TRIGGER HAT;
#X text 75 376 AUDIO OUT~;
#X obj 178 31 inlet;
#X text 220 31 HI PASS FREQ;
#X text 9 4 INLETS: 1 - trigger \, 2 - Hi-Pass Freq;
#X text 6 410 OUTLETS: 1 - audio signal out;
#X obj 132 265 bp~ 4000 50;
#X obj 226 266 bp~ 8000 50;
#X connect 0 0 8 0;
#X connect 1 0 5 0;
#X connect 1 1 3 0;
#X connect 2 0 0 1;
#X connect 3 0 2 0;
#X connect 4 0 2 0;
#X connect 5 0 4 0;
#X connect 6 0 7 0;
#X connect 6 0 17 0;
#X connect 6 0 18 0;
#X connect 7 0 0 0;
#X connect 8 0 10 0;
#X connect 9 0 1 0;
#X connect 13 0 7 1;
#X connect 17 0 0 0;
#X connect 18 0 0 0;
