#N canvas -848 -582 806 381 12;
#X obj 580 94 inlet;
#X obj 580 118 t b;
#X msg 580 142 0.75;
#X obj 607 117 loadbang;
#X obj 153 105 f \$1;
#X obj 153 84 loadbang;
#X obj 33 233 par~ 1 0.75 1;
#X obj 133 233 par~ 3 0.75 0.333;
#X obj 260 233 par~ 5 0.75 0.2;
#X obj 374 233 par~ 7 0.75 0.143;
#X obj 502 233 par~ 9 0.75 0.111;
#X obj 32 95 inlet~;
#X obj 33 296 outlet~;
#X text 29 74 FREQUENCY;
#X text 580 72 reset phase (bang);
#X text 31 6 INLETS: 1 - Frequency \, 2 - Reset Phase;
#X text 32 34 ARGUMENTS: 1 - Initial Frequency;
#X text 31 318 OUTLETS: 1 - SQUARE;
#X obj 33 177 +~ \$1;
#N canvas -770 -160 450 300 unset 0;
#X obj 61 45 inlet~;
#X obj 143 46 inlet;
#X obj 143 245 outlet;
#X obj 143 92 metro 50;
#X obj 143 70 > 0;
#X obj 143 117 snapshot~;
#X obj 143 141 change;
#X obj 143 165 != 0;
#X obj 143 189 sel 1;
#X msg 143 213 0;
#X obj 198 246 s \$0-stop;
#X obj 171 70 r \$0-stop;
#X connect 0 0 5 0;
#X connect 1 0 4 0;
#X connect 3 0 5 0;
#X connect 4 0 3 0;
#X connect 5 0 6 0;
#X connect 6 0 7 0;
#X connect 7 0 8 0;
#X connect 8 0 9 0;
#X connect 9 0 2 0;
#X connect 9 0 10 0;
#X connect 11 0 3 0;
#X restore 65 127 pd unset argument on freq change;
#X f 13;
#X connect 0 0 1 0;
#X connect 1 0 2 0;
#X connect 2 0 6 2;
#X connect 2 0 7 2;
#X connect 2 0 8 2;
#X connect 2 0 9 2;
#X connect 2 0 10 2;
#X connect 3 0 2 0;
#X connect 4 0 19 1;
#X connect 5 0 4 0;
#X connect 6 0 12 0;
#X connect 7 0 12 0;
#X connect 8 0 12 0;
#X connect 9 0 12 0;
#X connect 10 0 12 0;
#X connect 11 0 19 0;
#X connect 11 0 18 0;
#X connect 18 0 6 0;
#X connect 18 0 7 0;
#X connect 18 0 8 0;
#X connect 18 0 9 0;
#X connect 18 0 10 0;
#X connect 19 0 18 1;
