#N canvas 32 25 735 328 12;
#X obj 608 103 inlet;
#X text 23 34 freq~;
#X text 608 81 phase (bang);
#X obj 608 127 t b;
#X msg 608 151 0.75;
#X obj 635 126 loadbang;
#X obj 78 35 f \$1;
#X obj 78 14 loadbang;
#X obj 23 193 par~ 1 0.75 1;
#X obj 123 193 par~ 3 0.75 0.333;
#X obj 250 193 par~ 5 0.75 0.2;
#X obj 364 193 par~ 7 0.75 0.143;
#X obj 492 193 par~ 9 0.75 0.111;
#X obj 22 55 inlet~;
#X obj 78 56 sig~;
#X obj 23 246 outlet~;
#X connect 0 0 3 0;
#X connect 3 0 4 0;
#X connect 4 0 8 2;
#X connect 4 0 9 2;
#X connect 4 0 10 2;
#X connect 4 0 11 2;
#X connect 4 0 12 2;
#X connect 5 0 4 0;
#X connect 6 0 14 0;
#X connect 7 0 6 0;
#X connect 8 0 15 0;
#X connect 9 0 15 0;
#X connect 10 0 15 0;
#X connect 11 0 15 0;
#X connect 12 0 15 0;
#X connect 13 0 9 0;
#X connect 13 0 10 0;
#X connect 13 0 11 0;
#X connect 13 0 12 0;
#X connect 13 0 8 0;
#X connect 14 0 8 0;
#X connect 14 0 9 0;
#X connect 14 0 10 0;
#X connect 14 0 11 0;
#X connect 14 0 12 0;
