#N canvas 0 76 538 369 12;
#X obj 16 34 tgl 41 0 \$0-start empty empty 17 7 0 10 #fcfcfc #000000 #000000 0 1;
#X text 61 34 BPM;
#X floatatom 91 34 5 0 0 0 - - \$0-bpm 0;
#X floatatom 168 57 5 0 0 0 - - \$0-beatDiv 0;
#X text 128 34 cycle;
#X floatatom 168 34 5 0 0 0 - - \$0-cycle 0;
#X obj 216 314 outlet;
#X obj 18 121 r \$0-bpm;
#X obj 18 179 /;
#X msg 18 150 60000 \$1;
#X text 17 337 step count output;
#X obj 18 254 /;
#X text 61 57 Beat Division;
#X text 18 99 BPM to Ms;
#X text 65 244 use Division to get subdivisions of the beat, f 12;
#X obj 18 316 s \$0-tempoInMs;
#X obj 216 123 r \$0-start;
#X obj 216 152 metro;
#X obj 293 123 r \$0-tempoInMs;
#X obj 270 153 sel 0;
#X msg 270 182 0;
#X obj 216 241 f 0;
#X obj 307 231 + 1;
#X obj 307 256 % 4;
#X obj 345 231 r \$0-cycle;
#X text 428 230 limit the count to the cycle length, f 13;
#X msg 216 64 120;
#X msg 256 64 1;
#X obj 68 179 r \$0-beatDiv;
#X obj 216 37 t b b b, f 12;
#X obj 216 10 loadbang;
#X text 214 99 Generate Count;
#X text 266 315 <- Our resulting count starts from 0!;
#X msg 297 64 8;
#X obj 68 202 t b f;
#X connect 7 0 9 0;
#X connect 8 0 11 0;
#X connect 9 0 8 0;
#X connect 11 0 15 0;
#X connect 16 0 17 0;
#X connect 16 0 19 0;
#X connect 17 0 21 0;
#X connect 18 0 17 1;
#X connect 19 0 20 0;
#X connect 20 0 21 1;
#X connect 21 0 22 0;
#X connect 21 0 6 0;
#X connect 22 0 23 0;
#X connect 23 0 21 1;
#X connect 24 0 23 1;
#X connect 26 0 2 0;
#X connect 27 0 3 0;
#X connect 28 0 34 0;
#X connect 29 0 26 0;
#X connect 29 1 27 0;
#X connect 29 2 33 0;
#X connect 30 0 29 0;
#X connect 33 0 5 0;
#X connect 34 0 11 0;
#X connect 34 1 11 1;
#X coords 0 -1 1 1 197 69 1 12 10;
