#N canvas 619 70 491 393 12;
#X obj 14 13 tgl 41 0 \$0-start empty empty 17 7 0 10 #fcfcfc #000000
#000000 0 1;
#X text 60 13 BPM;
#X floatatom 85 12 5 0 0 0 - - #0-bpm, f 5;
#X floatatom 166 34 5 0 0 0 - - #0-beatDiv, f 5;
#X text 126 12 cycle;
#X floatatom 166 12 5 0 0 0 - - #0-cycle, f 5;
#X obj 217 336 outlet;
#X obj 18 141 r \$0-bpm;
#X obj 18 199 /;
#X msg 18 170 60000 \$1;
#X text 181 359 step count output;
#X obj 18 237 /;
#X text 60 34 Beat Division;
#X text 18 109 BPM to Ms;
#X text 65 227 use Division to get subdivisions of the beat, f 12
;
#X obj 18 336 s \$0-tempoInMs;
#X obj 216 143 r \$0-start;
#X obj 216 172 metro;
#X obj 293 143 r \$0-tempoInMs;
#X obj 270 173 sel 0;
#X msg 270 202 0;
#X obj 216 241 f 0;
#X obj 216 296 + 1;
#X obj 280 266 % 4;
#X obj 298 239 r \$0-cycle;
#X text 381 238 limit the count to the cycle length, f 13;
#X floatatom 304 333 5 0 0 0 - - -, f 5;
#X msg 307 68 120;
#X msg 345 68 1;
#X msg 383 68 4;
#X obj 58 203 r \$0-beatDiv;
#X floatatom 46 310 5 0 0 0 - - -, f 5;
#X obj 127 140 print;
#X floatatom 113 170 5 0 0 0 - - -, f 5;
#X obj 306 36 t b b b;
#X floatatom 165 228 5 0 0 0 - - -, f 5;
#X floatatom 164 193 5 0 0 0 - - -, f 5;
#X obj 306 9 loadbang;
#X text 214 108 Generate Count;
#X connect 7 0 9 0;
#X connect 8 0 11 0;
#X connect 8 0 33 0;
#X connect 9 0 8 0;
#X connect 9 0 32 0;
#X connect 11 0 15 0;
#X connect 11 0 31 0;
#X connect 11 0 35 0;
#X connect 16 0 17 0;
#X connect 16 0 19 0;
#X connect 17 0 21 0;
#X connect 18 0 17 1;
#X connect 19 0 20 0;
#X connect 20 0 21 1;
#X connect 21 0 22 0;
#X connect 22 0 23 0;
#X connect 22 0 6 0;
#X connect 22 0 26 0;
#X connect 23 0 21 1;
#X connect 24 0 23 1;
#X connect 27 0 2 0;
#X connect 28 0 3 0;
#X connect 29 0 5 0;
#X connect 30 0 11 1;
#X connect 30 0 36 0;
#X connect 34 0 27 0;
#X connect 34 1 28 0;
#X connect 34 2 29 0;
#X connect 37 0 34 0;
#X coords 0 -1 1 1 194 47 2 12 10;
