#N canvas 0 76 538 369 12;
#X obj 16 119 tgl 41 0 \$0-start empty empty 17 7 0 10 #fcfcfc #000000 #000000 0 1;
#X text 56 118 BPM;
#X floatatom 90 118 5 0 0 0 - - \$0-bpm 0;
#X floatatom 168 142 5 0 0 0 - - \$0-beatDiv 0;
#X floatatom 168 118 5 0 0 0 - - \$0-cycle 0;
#X obj 216 377 outlet;
#X obj 18 184 r \$0-bpm;
#X obj 18 242 /;
#X msg 18 213 60000 \$1;
#X text 17 400 step count output;
#X obj 18 317 /;
#X text 18 162 BPM to Ms;
#X text 65 307 use Division to get subdivisions of the beat, f 12;
#X obj 18 379 s \$0-tempoInMs;
#X obj 216 186 r \$0-start;
#X obj 216 215 metro;
#X obj 293 186 r \$0-tempoInMs;
#X obj 270 216 sel 0;
#X msg 270 245 0;
#X obj 216 304 f 0;
#X obj 307 294 + 1;
#X obj 307 319 % 4;
#X obj 345 294 r \$0-cycle;
#X text 428 293 limit the count to the cycle length, f 13;
#X obj 68 242 r \$0-beatDiv;
#X text 214 162 Generate Count;
#X text 266 378 <- Our resulting count starts from 0!;
#X obj 68 265 t b f;
#X obj 499 19 playhead;
#X obj 531 72 s \$0-setBPPM;
#X obj 168 22 r \$0-setBPPM;
#X text 125 117 Cycle:;
#X text 85 142 Beat Division:;
#X obj 639 72 change;
#X obj 639 101 t b b;
#X obj 639 184 s \$0-resyncEveryBar;
#X obj 16 22 r \$0-resyncEveryBar;
#X obj 499 184 s \$0-DAWplay;
#X obj 38 48 r \$0-DAWplay;
#X obj 719 72 s \$0-DAWcycle;
#X obj 168 48 r \$0-DAWcycle;
#X obj 499 142 change;
#X obj 285 47 loadbang;
#X msg 232 95 120;
#X msg 288 95 4;
#X msg 288 130 4;
#X connect 6 0 8 0 empty;
#X connect 7 0 10 0 empty;
#X connect 8 0 7 0 empty;
#X connect 10 0 13 0 empty;
#X connect 14 0 15 0 empty;
#X connect 14 0 17 0 empty;
#X connect 15 0 19 0 empty;
#X connect 16 0 15 1 empty;
#X connect 17 0 18 0 empty;
#X connect 18 0 19 1 empty;
#X connect 19 0 20 0 empty;
#X connect 19 0 5 0 empty;
#X connect 20 0 21 0 empty;
#X connect 21 0 19 1 empty;
#X connect 22 0 21 1 empty;
#X connect 24 0 27 0 empty;
#X connect 27 0 10 0 empty;
#X connect 27 1 10 1 empty;
#X connect 28 0 41 0 empty;
#X connect 28 5 29 0 empty;
#X connect 28 6 33 0 empty;
#X connect 28 7 39 0 empty;
#X connect 30 0 2 0 empty;
#X connect 33 0 34 0 empty;
#X connect 34 0 35 0 empty;
#X connect 34 1 35 0 empty;
#X connect 36 0 0 0 empty;
#X connect 38 0 0 0 empty;
#X connect 40 0 4 0 empty;
#X connect 41 0 37 0 empty;
#X connect 42 0 44 0 empty;
#X connect 42 0 43 0 empty;
#X connect 42 0 45 0 empty;
#X connect 43 0 2 0 empty;
#X connect 44 0 4 0 empty;
#X connect 45 0 3 0 empty;
#X coords 0 -1 1 1 197 69 1 13 96;
