#N canvas 189 102 815 583 12;
#X obj 176 233 inlet~;
#X obj 197 373 *~;
#X obj 197 414 *~;
#X obj 197 463 clip~ -1 1;
#X obj 102 51 hsl 148 31 0.01 1.01 1 0 \$0-volume \$0-setVolume VOLUME 48 16 0 15 #ffffff #000000 #000000 0 1;
#X obj 335 252 r \$0-volume;
#X obj 335 274 - 0.01;
#X msg 335 296 \$1 10;
#X obj 335 317 line~;
#X obj 67 51 tgl 31 0 \$0-mute \$0-setMute MUTE 3 15 0 10 #ffffff #000000 #000000 0 1;
#X msg 454 350 \$1 10;
#X obj 454 371 line~;
#X obj 447 252 r \$0-mute;
#X obj 454 284 t b f;
#X obj 454 327 -;
#X msg 454 306 1;
#X obj 519 226 loadbang;
#X msg 519 250 0;
#X text 174 210 signal in;
#X obj 337 41 inlet;
#X obj 471 43 inlet;
#X text 336 22 volume 0-1;
#X text 470 23 mute 0/1 mute==1;
#X obj 337 64 s \$0-setVolume;
#X obj 471 145 s \$0-setMute;
#X obj 471 65 sel 0;
#X msg 471 89 0;
#X obj 503 88 t b;
#X msg 503 109 1;
#X obj 38 127 r pd;
#X obj 38 151 route dsp;
#X obj 35 51 tgl 31 0 \$0-fromDspTog \$0-toDspTog DSP 7 15 0 10 #000000 #ffffff #ffffff 0 1;
#X obj 38 252 change;
#X obj 38 297 s pd;
#X msg 38 275 dsp \$1;
#X obj 38 229 r \$0-fromDspTog;
#X obj 38 175 s \$0-toDspTog;
#X text 38 102 Turn DSP on/off;
#X obj 317 372 *~;
#X obj 317 413 *~;
#X obj 317 462 clip~ -1 1;
#X obj 245 233 inlet~;
#X text 243 210 signal in;
#X obj 316 517 outlet~;
#X obj 376 517 outlet~;
#X obj 201 517 dac~;
#X obj 105 291 bng 19 250 50 0 empty empty empty 0 -10 0 12 #fcfcfc #000000 #000000;
#X obj 228 143 tgl 19 0 empty empty empty 0 -10 0 12 #fcfcfc #000000 #000000 0 1;
#X text 104 517 Audio Out -->;
#X text 261 547 OUTLETS: Audio (L) \, Audio (R);
#X text 32 4 INLETS: 1 - Audio (L) \, 2 - Audio (R) \, Volume \, Mute;
#X connect 0 0 1 0;
#X connect 1 0 2 0;
#X connect 2 0 3 0;
#X connect 3 0 43 0;
#X connect 3 0 45 0;
#X connect 5 0 6 0;
#X connect 6 0 7 0;
#X connect 7 0 8 0;
#X connect 8 0 1 1;
#X connect 8 0 38 1;
#X connect 10 0 11 0;
#X connect 11 0 2 1;
#X connect 11 0 39 1;
#X connect 12 0 13 0;
#X connect 13 0 15 0;
#X connect 13 1 14 1;
#X connect 14 0 10 0;
#X connect 15 0 14 0;
#X connect 16 0 17 0;
#X connect 17 0 13 0;
#X connect 19 0 23 0;
#X connect 20 0 25 0;
#X connect 25 0 26 0;
#X connect 25 1 27 0;
#X connect 26 0 24 0;
#X connect 27 0 28 0;
#X connect 28 0 24 0;
#X connect 29 0 30 0;
#X connect 30 0 36 0;
#X connect 30 0 47 0;
#X connect 32 0 34 0;
#X connect 34 0 33 0;
#X connect 35 0 32 0;
#X connect 38 0 39 0;
#X connect 39 0 40 0;
#X connect 40 0 44 0;
#X connect 40 0 45 1;
#X connect 41 0 38 0;
#X coords 0 -1 1 1 221 55 1 34 29;
