#N canvas 237 25 807 586 12;
#X obj 257 171 loadbang;
#X obj 257 195 f \$1;
#X obj 472 156 inlet;
#X obj 472 180 t b;
#X obj 517 156 loadbang;
#X msg 472 216 0;
#X obj 483 397 par~ 9 0.0123 0;
#X text 27 93 a = 1 / (n^2);
#X text 27 73 odd harmonics;
#X obj 43 154 inlet~;
#X obj 257 219 sig~;
#X obj 133 397 par~ 3 0 0.1111;
#X obj 43 397 par~ 1 0 1;
#X obj 253 397 par~ 5 0 0.04;
#X obj 363 397 par~ 7 0 0.02044;
#X obj 43 548 outlet~;
#X obj 43 519 *~ 0.85;
#X text 40 129 FREQ;
#X text 472 128 RESET;
#X text 24 6 INLETS: 1 - Frequency \, 2 - Reset Phase;
#X text 25 34 ARGUMENTS: 1 - Initial Frequency;
#X text 103 549 OUTLETS: 1 - SIGNAL OUT~;
#X connect 0 0 1 0;
#X connect 1 0 10 0;
#X connect 2 0 3 0;
#X connect 3 0 5 0;
#X connect 4 0 5 0;
#X connect 5 0 6 2;
#X connect 5 0 11 2;
#X connect 5 0 12 2;
#X connect 5 0 13 2;
#X connect 5 0 14 2;
#X connect 6 0 16 0;
#X connect 9 0 6 0;
#X connect 9 0 11 0;
#X connect 9 0 12 0;
#X connect 9 0 13 0;
#X connect 9 0 14 0;
#X connect 10 0 6 0;
#X connect 10 0 11 0;
#X connect 10 0 12 0;
#X connect 10 0 13 0;
#X connect 10 0 14 0;
#X connect 11 0 16 0;
#X connect 12 0 16 0;
#X connect 13 0 16 0;
#X connect 14 0 16 0;
#X connect 16 0 15 0;
