#N canvas 237 25 807 586 12;
#X obj 472 156 inlet;
#X obj 472 180 t b;
#X obj 517 156 loadbang;
#X msg 472 216 0;
#X obj 483 397 par~ 9 0.0123 0;
#X text 27 93 a = 1 / (n^2);
#X text 27 73 odd harmonics;
#X obj 133 397 par~ 3 0 0.1111;
#X obj 43 397 par~ 1 0 1;
#X obj 253 397 par~ 5 0 0.04;
#X obj 363 397 par~ 7 0 0.02044;
#X obj 43 548 outlet~;
#X obj 43 519 *~ 0.85;
#X text 472 128 RESET;
#X text 24 6 INLETS: 1 - Frequency \, 2 - Reset Phase;
#X text 25 34 ARGUMENTS: 1 - Initial Frequency;
#X text 103 549 OUTLETS: 1 - SIGNAL OUT~;
#X obj 153 155 f \$1;
#X obj 153 134 loadbang;
#X obj 32 145 inlet~;
#X text 29 124 FREQUENCY;
#X obj 33 227 +~ \$1;
#N canvas -770 -160 450 300 unset 0;
#X obj 61 45 inlet~;
#X obj 143 46 inlet;
#X obj 143 245 outlet;
#X obj 143 92 metro 50;
#X obj 143 70 > 0;
#X obj 143 117 snapshot~;
#X obj 143 141 change;
#X obj 143 165 != 0;
#X obj 143 189 sel 1;
#X msg 143 213 0;
#X obj 198 246 s \$0-stop;
#X obj 171 70 r \$0-stop;
#X connect 0 0 5 0;
#X connect 1 0 4 0;
#X connect 3 0 5 0;
#X connect 4 0 3 0;
#X connect 5 0 6 0;
#X connect 6 0 7 0;
#X connect 7 0 8 0;
#X connect 8 0 9 0;
#X connect 9 0 2 0;
#X connect 9 0 10 0;
#X connect 11 0 3 0;
#X restore 65 177 pd unset argument on freq change;
#X f 13;
#X connect 0 0 1 0;
#X connect 1 0 3 0;
#X connect 2 0 3 0;
#X connect 3 0 4 2;
#X connect 3 0 7 2;
#X connect 3 0 8 2;
#X connect 3 0 9 2;
#X connect 3 0 10 2;
#X connect 4 0 12 0;
#X connect 7 0 12 0;
#X connect 8 0 12 0;
#X connect 9 0 12 0;
#X connect 10 0 12 0;
#X connect 12 0 11 0;
#X connect 17 0 22 1;
#X connect 18 0 17 0;
#X connect 19 0 22 0;
#X connect 19 0 21 0;
#X connect 21 0 8 0;
#X connect 21 0 10 0;
#X connect 21 0 9 0;
#X connect 21 0 7 0;
#X connect 21 0 4 0;
#X connect 22 0 21 1;
