#N canvas 292 87 683 582 12;
#X obj 20 134 mtof;
#X obj 146 141 / 127;
#X obj 20 322 simpleFM~;
#X obj 50 286 *, f 5;
#X obj 60 248 t b f;
#X obj 20 479 *~;
#X obj 173 70 inlet;
#X obj 270 70 inlet;
#X obj 20 70 inlet;
#X obj 20 511 outlet~;
#X obj 60 221 r \$0-ratio;
#X obj 173 100 s \$0-ratio;
#X obj 270 99 s \$0-depth;
#X obj 98 286 r \$0-depth;
#X text 6 47 midi note;
#X text 78 47 velocity;
#X text 164 47 mod ratio;
#X text 261 47 mod depth;
#X obj 20 100 unpack 0 0;
#X obj 140 430 adsr~;
#X obj 358 68 inlet;
#X text 357 48 A;
#X obj 443 68 inlet;
#X obj 533 68 inlet;
#X obj 623 68 inlet;
#X text 442 48 D;
#X text 532 48 S;
#X text 622 48 R;
#X obj 358 97 s \$0-a;
#X obj 443 97 s \$0-d;
#X obj 533 97 s \$0-s;
#X obj 623 97 s \$0-r;
#X obj 156 397 r \$0-a;
#X obj 206 397 r \$0-d;
#X obj 256 397 r \$0-s;
#X obj 306 397 r \$0-r;
#X obj 178 190 s \$0-vol;
#X obj 47 371 r \$0-vol;
#X obj 20 402 *~;
#X obj 84 397 r \$0-trig;
#X obj 76 141 s \$0-trig;
#X obj 146 165 sel 0;
#X text 77 512 comment;
#X text 0 8 INLETS: 1 - MIDI note&vel \, 2 - mod ratio \, 3 - mod depth \,;
#X text 404 8 4 - Att \, 5 - Dec \, 6 - Sus \, 7 - Rel;
#X text 6 559 OUTLETS: 1 - FM voice out;
#X connect 0 0 3 0;
#X connect 0 0 2 0;
#X connect 1 0 41 0;
#X connect 2 0 38 0;
#X connect 3 0 2 1;
#X connect 4 0 3 0;
#X connect 4 1 3 1;
#X connect 5 0 9 0;
#X connect 6 0 11 0;
#X connect 7 0 12 0;
#X connect 8 0 18 0;
#X connect 10 0 4 0;
#X connect 13 0 2 2;
#X connect 18 0 0 0;
#X connect 18 1 1 0;
#X connect 18 1 40 0;
#X connect 19 0 5 1;
#X connect 20 0 28 0;
#X connect 22 0 29 0;
#X connect 23 0 30 0;
#X connect 24 0 31 0;
#X connect 32 0 19 1;
#X connect 33 0 19 2;
#X connect 34 0 19 3;
#X connect 35 0 19 4;
#X connect 37 0 38 1;
#X connect 38 0 5 0;
#X connect 39 0 19 0;
#X connect 41 1 36 0;
