#N canvas 292 87 1050 605 12;
#X obj 15 144 mtof;
#X obj 208 152 / 127;
#X obj 141 316 *, f 5;
#X obj 151 278 t b f;
#X obj 15 509 *~;
#X obj 223 80 inlet;
#X obj 320 80 inlet;
#X obj 15 80 inlet;
#X obj 15 541 outlet~;
#X obj 151 251 r \$0-ratio;
#X obj 223 110 s \$0-ratio;
#X obj 320 109 s \$0-depth;
#X obj 212 316 r \$0-depth;
#X obj 15 110 unpack 0 0;
#X obj 408 78 inlet;
#X text 407 58 A;
#X obj 493 78 inlet;
#X obj 583 78 inlet;
#X obj 673 78 inlet;
#X text 492 58 D;
#X text 582 58 S;
#X text 672 58 R;
#X obj 408 107 s \$0-a;
#X obj 493 107 s \$0-d;
#X obj 583 107 s \$0-s;
#X obj 673 107 s \$0-r;
#X obj 206 427 r \$0-a;
#X obj 256 427 r \$0-d;
#X obj 306 427 r \$0-s;
#X obj 356 427 r \$0-r;
#X obj 34 418 r \$0-vol;
#X obj 137 181 s \$0-trig;
#X obj 208 181 sel 0;
#X obj 240 207 s \$0-vol;
#X obj 190 403 r \$0-trig;
#X obj 15 453 *~;
#X obj 749 78 inlet;
#X obj 839 78 inlet;
#X obj 15 352 FMwaveSel~, f 41;
#X obj 749 107 s \$0-wC;
#X obj 839 107 s \$0-wM;
#X obj 290 316 r \$0-wC;
#X obj 347 316 r \$0-wM;
#X text 214 57 MOD RATIO;
#X text 311 57 MOD DEPTH;
#X text 748 58 SEL C WAVE;
#X text 838 58 SEL M WAVE;
#X text 16 57 LIST: MIDI NOTE - VELOCITY;
#X text 15 6 INLETS: 1 - MIDI note&vel \, 2 - Mod Ratio \, 3 - Mod Depth \,;
#X text 418 6 4 - Att \, 5 - Dec \, 6 - Sus \, 7 - Rel \, 8;
#X text 8 579 OUTLETS: 1 - FM Signal Out;
#X obj 190 460 adsrEnv~, f 10;
#X connect 0 0 2 0 empty;
#X connect 0 0 38 0 empty;
#X connect 1 0 32 0 empty;
#X connect 2 0 38 1 empty;
#X connect 3 0 2 0 empty;
#X connect 3 1 2 1 empty;
#X connect 4 0 8 0 empty;
#X connect 5 0 10 0 empty;
#X connect 6 0 11 0 empty;
#X connect 7 0 13 0 empty;
#X connect 9 0 3 0 empty;
#X connect 12 0 38 2 empty;
#X connect 13 0 0 0 empty;
#X connect 13 1 1 0 empty;
#X connect 13 1 31 0 empty;
#X connect 14 0 22 0 empty;
#X connect 16 0 23 0 empty;
#X connect 17 0 24 0 empty;
#X connect 18 0 25 0 empty;
#X connect 26 0 51 1 empty;
#X connect 27 0 51 2 empty;
#X connect 28 0 51 3 empty;
#X connect 29 0 51 4 empty;
#X connect 30 0 35 1 empty;
#X connect 32 1 33 0 empty;
#X connect 34 0 51 0 empty;
#X connect 35 0 4 0 empty;
#X connect 36 0 39 0 empty;
#X connect 37 0 40 0 empty;
#X connect 38 0 35 0 empty;
#X connect 41 0 38 3 empty;
#X connect 42 0 38 4 empty;
#X connect 51 0 4 1 empty;
