#N canvas 469 159 772 579 12;
#X obj 166 268 osc~;
#X obj 16 268 r \$0-waveSel;
#X text 164 54 FREQUENCY (Hz);
#X obj 277 76 inlet;
#X text 275 53 WAVE SEL (0-3);
#X obj 417 76 inlet;
#X text 415 53 RESET PHASE (bang);
#X obj 184 336 == 0;
#X obj 256 336 == 1;
#X obj 336 336 == 2;
#X obj 416 336 == 3;
#X obj 166 450 *~;
#X obj 238 450 *~;
#X obj 318 450 *~;
#X obj 398 450 *~;
#X obj 166 511 outlet~;
#X obj 326 76 loadbang;
#X msg 326 100 0;
#X obj 399 268 sawOsc~;
#X obj 166 77 inlet~;
#X obj 460 76 r \$0-resetPhase;
#X obj 16 400 s \$0-resetPhase;
#X obj 16 336 t b;
#X text 3 6 INLET: 1 - freq \, 2 - Wave Sel \, 3 - reset phase;
#X text 8 504 OUTLETS: 1 - signal out;
#X obj 277 129 s \$0-waveSel;
#X obj 238 268 triOsc~;
#X obj 318 268 sqOsc~;
#X obj 184 391 deClick;
#X obj 256 391 deClick;
#X obj 336 391 deClick;
#X obj 416 391 deClick;
#X connect 0 0 11 0;
#X connect 1 0 7 0;
#X connect 1 0 8 0;
#X connect 1 0 9 0;
#X connect 1 0 10 0;
#X connect 1 0 22 0;
#X connect 3 0 25 0;
#X connect 5 0 26 1;
#X connect 5 0 27 1;
#X connect 7 0 28 0;
#X connect 8 0 29 0;
#X connect 9 0 30 0;
#X connect 10 0 31 0;
#X connect 11 0 15 0;
#X connect 12 0 15 0;
#X connect 13 0 15 0;
#X connect 14 0 15 0;
#X connect 16 0 17 0;
#X connect 17 0 25 0;
#X connect 18 0 14 0;
#X connect 19 0 0 0;
#X connect 19 0 18 0;
#X connect 19 0 26 0;
#X connect 19 0 27 0;
#X connect 22 0 21 0;
#X connect 26 0 12 0;
#X connect 27 0 13 0;
#X connect 28 0 11 1;
#X connect 29 0 12 1;
#X connect 30 0 13 1;
#X connect 31 0 14 1;
#X coords 0 579 1 578 94 108 0;
