#N canvas 219 51 772 579 12;
#X obj 9 26 vradio 25 0 0 4 \$0-waveSel \$0-setWave empty 0 -8 0 10 #ffffff #000000 #000000 0;
#X text 35 28 SINE;
#X text 35 106 SAW;
#X obj 16 278 r \$0-waveSel;
#X text 165 54 FREQUENCY (Hz);
#X obj 277 76 inlet;
#X text 275 53 WAVE SEL (0-3);
#X obj 417 76 inlet;
#X text 415 53 RESET PHASE (bang);
#X obj 186 346 == 0;
#X obj 260 346 == 1;
#X obj 348 346 == 2;
#X obj 444 346 == 3;
#X obj 168 410 *~;
#X obj 242 410 *~;
#X obj 330 410 *~;
#X obj 426 410 *~;
#X obj 277 139 s \$0-setWave;
#X obj 168 501 outlet~;
#X obj 326 76 loadbang;
#X msg 326 100 0;
#X obj 167 77 inlet~;
#X obj 460 76 r \$0-resetPhase;
#X obj 16 410 s \$0-resetPhase;
#X obj 16 346 t b;
#X text 113 6 INLET: 1 - freq \, 2 - Wave Sel \, 3 - reset phase;
#X text 167 524 OUTLETS: 1 - signal out;
#X text 35 54 TRIANGLE;
#X text 35 80 SQUARE;
#X obj 166 278 osc~ 440;
#X obj 242 278 triOsc~ 440;
#X obj 330 278 sqOsc~ 440;
#X obj 427 278 sawOsc~ 440;
#X connect 3 0 9 0;
#X connect 3 0 10 0;
#X connect 3 0 11 0;
#X connect 3 0 12 0;
#X connect 3 0 24 0;
#X connect 5 0 17 0;
#X connect 7 0 30 1;
#X connect 7 0 31 1;
#X connect 9 0 13 1;
#X connect 10 0 14 1;
#X connect 11 0 15 1;
#X connect 12 0 16 1;
#X connect 13 0 18 0;
#X connect 14 0 18 0;
#X connect 15 0 18 0;
#X connect 16 0 18 0;
#X connect 19 0 20 0;
#X connect 20 0 17 0;
#X connect 21 0 29 0;
#X connect 21 0 30 0;
#X connect 21 0 31 0;
#X connect 21 0 32 0;
#X connect 24 0 23 0;
#X connect 29 0 13 0;
#X connect 30 0 14 0;
#X connect 31 0 15 0;
#X connect 32 0 16 0;
#X coords 0 -1 1 1 94 128 1 5 5;
