#N canvas 413 -869 693 742 12;
#X obj 4 179 hsl 128 15 0 127 0 0 9.1sliderSend1 9.1slider1 empty -2 -8 0 10 #fcfcfc #000000 #000000 0 1;
#X obj 275 179 hsl 128 15 0 127 0 0 9.1sliderSend3 9.1slider3 empty -2 -8 0 10 #fcfcfc #000000 #000000 0 1;
#X obj 411 179 hsl 128 15 0 127 0 0 9.1sliderSend4 9.1slider4 empty -2 -8 0 10 #fcfcfc #000000 #000000 0 1;
#X obj 139 179 hsl 128 15 0 127 0 0 9.1sliderSend2 9.1slider2 empty -2 -8 0 10 #fcfcfc #000000 #000000 0 1;
#X obj 2 3 cnv 15 795 24 empty empty 9.1:\ Creating\ a\ Preset\ System 20 12 0 14 #dcdcdc #404040 0;
#X floatatom 4 203 5 0 0 0 - - - 0;
#X floatatom 139 203 5 0 0 0 - - - 0;
#X floatatom 275 203 5 0 0 0 - - - 0;
#X floatatom 411 203 5 0 0 0 - - - 0;
#X text 134 53 We can use special messages in pure data beginning with a semicolon to send messages to any receives in (or hidden within) the patch., f 67;
#X obj 6 35 bng 15 250 50 0 empty empty empty 17 7 0 10 #fcfcfc #000000 #000000;
#X text 5 239 Here are some more \, controlled with a radio control object and [sel];
#X obj 5 283 vradio 30 0 0 3 empty empty empty 0 -8 0 10 #fcfcfc #000000 #000000 0;
#X text 39 286 All Maxed Out;
#X text 39 317 All Zero;
#X text 39 349 User;
#X obj 5 388 sel 0 1 2;
#X text 135 95 In this case \, the message here sends a value to each slider by stating the send name and then a value on each line. Right click > properties on a slider to see the send/receive names assigned to it., f 67;
#X obj 101 648 pack 0 0 0 0, f 13;
#X msg 240 404 28 58 53 109;
#X obj 101 616 f;
#X obj 130 616 f;
#X obj 159 616 f;
#X obj 188 616 f;
#X obj 6 589 bng 15 250 50 0 empty empty empty 17 7 0 10 #fcfcfc #000000 #000000;
#X obj 164 288 bng 54 250 50 0 9.1savePreset empty empty 17 7 0 10 #fcfcfc #000000 #000000;
#X text 230 300 <- SAVE USER PRESET WITH CURRENT SLIDER VALUES;
#X msg 101 675 set \$1 \$2 \$3 \$4;
#X text 387 379 <- We also have a user-saveable preset!;
#X text 254 615 Here \, the slider values are stored in [f] objects \, and when we want to save a custom preset \, they are packed into a list and sent on in a 'set' message. This hard codes the message above with our new preset values.;
#X msg 6 60 \; 9.1slider1 64 \; 9.1slider2 12 \; 9.1slider3 127 \; 9.1slider4 88 \;;
#X obj 240 379 r 9.1setUsrPreset;
#X msg 5 427 \; 9.1slider1 127 \; 9.1slider2 127 \; 9.1slider3 127 \; 9.1slider4 127 \;;
#X msg 129 427 \; 9.1slider1 0 \; 9.1slider2 0 \; 9.1slider3 0 \; 9.1slider4 0 \;;
#X msg 240 427 \; 9.1slider1 \$1 \; 9.1slider2 \$2 \; 9.1slider3 \$3 \; 9.1slider4 \$4 \;;
#X obj 6 554 r 9.1savePreset;
#X obj 119 554 r 9.1sliderSend1;
#X obj 240 554 r 9.1sliderSend2;
#X obj 360 554 r 9.1sliderSend3;
#X obj 481 554 r 9.1sliderSend4;
#X obj 101 702 s 9.1setUsrPreset;
#X connect 0 0 5 0;
#X connect 1 0 7 0;
#X connect 2 0 8 0;
#X connect 3 0 6 0;
#X connect 10 0 30 0;
#X connect 12 0 16 0;
#X connect 16 0 32 0;
#X connect 16 1 33 0;
#X connect 16 2 19 0;
#X connect 18 0 27 0;
#X connect 19 0 34 0;
#X connect 20 0 18 0;
#X connect 21 0 18 1;
#X connect 22 0 18 2;
#X connect 23 0 18 3;
#X connect 24 0 20 0;
#X connect 24 0 21 0;
#X connect 24 0 23 0;
#X connect 24 0 22 0;
#X connect 27 0 40 0;
#X connect 31 0 19 0;
#X connect 35 0 24 0;
#X connect 36 0 20 1;
#X connect 37 0 21 1;
#X connect 38 0 22 1;
#X connect 39 0 23 1;
