#N canvas 492 -975 1103 918 12;
#X obj 753 160 hsl 107 37 0.1 20 1 1 modR setModR Modulator\ Ratio -2 -8 0 10 #fcfcfc #000000 #000000 3864 1;
#X obj 753 226 hsl 107 37 0.1 10000 1 1 modD empty Modulator\ Depth -2 -8 0 10 #fcfcfc #000000 #000000 7454 1;
#X obj 407 293 hsl 107 37 10 1000 1 1 a setA Attack -2 -8 0 10 #fcfcfc #000000 #000000 0 1;
#X obj 756 293 hsl 103 37 0.001 10000 1 1 r setR Release -2 -8 0 10 #fcfcfc #000000 #000000 5829 1;
#X obj 25 29 notein;
#X obj 25 59 poly2clone 16 1;
#X obj 524 293 hsl 107 37 10 1000 1 1 d setD Decay -2 -8 0 10 #fcfcfc #000000 #000000 0 1;
#X obj 640 293 hsl 107 37 0.01 1 1 1 s setS Sustain -2 -8 0 10 #fcfcfc #000000 #000000 6646 1;
#X obj 25 284 clone voice-FMWaveSel~ 16;
#X obj 405 163 vradio 25 1 0 4 carWaveSel setCarWaveSel Carrier\ Wave 0 -8 0 10 #ffffff #000000 #000000 0;
#X text 431 165 SINE;
#X text 431 217 TRIANGLE;
#X text 431 191 SQUARE;
#X text 431 243 SAW;
#X obj 515 163 vradio 25 1 0 4 modWaveSel setModWaveSel Modulator\ Wave 0 -8 0 10 #ffffff #000000 #000000 0;
#X text 541 165 SINE;
#X text 541 217 TRIANGLE;
#X text 541 191 SQUARE;
#X text 541 243 SAW;
#X obj 673 375 hradio 21 1 0 4 \$0-choosePreset empty empty 0 -10 0 12 #fcfcfc #000000 #000000 0;
#X text 680 358 1;
#X text 700 358 2;
#X text 720 358 3;
#X text 726 336 Presets;
#X text 773 376 save U;
#X obj 822 375 bng 19 250 50 0 \$0-savePreset empty empty 0 -10 0 12 #fcfcfc #000000 #000000;
#X obj 89 743 f;
#X obj 118 743 f;
#X obj 147 743 f;
#X obj 176 743 f;
#X obj 89 775 pack 0 0 0 0 0 0 0 0;
#X obj 205 743 f;
#X obj 234 743 f;
#X obj 263 743 f;
#X obj 292 743 f;
#X msg 89 802 set \$1 \$2 \$3 \$4 \$5 \$6 \$7 \$8;
#X obj 89 534 r \$0-savePreset;
#X msg 549 696 0.1 384.508 10.9078 10 1 0.001 2 1;
#X obj 89 829 s \$0-saveValues;
#X obj 555 669 r \$0-saveValues;
#X text 740 358 U;
#X msg 454 587 4.19413 0 18.3718 12.4262 0.0737776 797.923 0 3;
#X msg 501 643 0.1 822.421 10.444 10 0.0840482 496.682 0 3;
#X obj 454 544 sel 0 1 2 3;
#X obj 454 519 r \$0-choosePreset;
#X msg 526 721 \; setModR \$1 \; setModD \$2 \; setA \$3 \; setD \$4 \; setS \$5 \; setR \$6 \; setCarWaveSel \$7 \; setModWaveSel \$8 \;;
#X obj 46 112 cloneReceive modR;
#X obj 68 133 cloneReceive modD;
#X obj 89 154 cloneReceive a;
#X obj 111 175 cloneReceive d;
#X obj 132 196 cloneReceive s;
#X obj 155 218 cloneReceive r;
#X obj 175 238 cloneReceive carWaveSel;
#X obj 197 259 cloneReceive modWaveSel;
#X obj 159 562 r modR;
#X obj 181 583 r modD;
#X obj 202 604 r a;
#X obj 224 625 r d;
#X obj 245 646 r s;
#X obj 267 668 r r;
#X obj 288 688 r carWaveSel;
#X obj 310 709 r modWaveSel;
#X msg 474 615 1.0444 822.421 10.444 10 0.0840482 496.682 2 0;
#X obj 404 341 stereoOut~;
#X obj 874 129 param modRatio;
#X obj 879 206 param modDepth;
#X obj 392 83 param carrierWave;
#X obj 525 86 param modulatorWave;
#X obj 412 423 param attack;
#X obj 521 424 param decay;
#X obj 638 424 param sustain;
#X obj 747 422 param release;
#X text 392 48 These [param] objects work like [send] and [receive]. any params we set up in the PlugData vst will send the data on into the patch.;
#X connect 4 0 5 0 empty;
#X connect 4 1 5 1 empty;
#X connect 5 0 8 0 empty;
#X connect 8 0 63 0 empty;
#X connect 8 0 63 1 empty;
#X connect 26 0 30 0 empty;
#X connect 27 0 30 1 empty;
#X connect 28 0 30 2 empty;
#X connect 29 0 30 3 empty;
#X connect 30 0 35 0 empty;
#X connect 31 0 30 4 empty;
#X connect 32 0 30 5 empty;
#X connect 33 0 30 6 empty;
#X connect 34 0 30 7 empty;
#X connect 35 0 38 0 empty;
#X connect 36 0 26 0 empty;
#X connect 36 0 34 0 empty;
#X connect 36 0 33 0 empty;
#X connect 36 0 32 0 empty;
#X connect 36 0 31 0 empty;
#X connect 36 0 29 0 empty;
#X connect 36 0 28 0 empty;
#X connect 36 0 27 0 empty;
#X connect 37 0 45 0 empty;
#X connect 39 0 37 0 empty;
#X connect 41 0 45 0 empty;
#X connect 42 0 45 0 empty;
#X connect 43 0 41 0 empty;
#X connect 43 1 62 0 empty;
#X connect 43 2 42 0 empty;
#X connect 43 3 37 0 empty;
#X connect 44 0 43 0 empty;
#X connect 46 0 8 1 empty;
#X connect 47 0 8 2 empty;
#X connect 48 0 8 3 empty;
#X connect 49 0 8 4 empty;
#X connect 50 0 8 5 empty;
#X connect 51 0 8 6 empty;
#X connect 52 0 8 7 empty;
#X connect 53 0 8 8 empty;
#X connect 54 0 26 1 empty;
#X connect 55 0 27 1 empty;
#X connect 56 0 28 1 empty;
#X connect 57 0 29 1 empty;
#X connect 58 0 31 1 empty;
#X connect 59 0 32 1 empty;
#X connect 60 0 33 1 empty;
#X connect 61 0 34 1 empty;
#X connect 62 0 45 0 empty;
#X connect 64 0 0 0 empty;
#X connect 65 0 1 0 empty;
#X connect 66 0 9 0 empty;
#X connect 67 0 14 0 empty;
#X connect 68 0 2 0 empty;
#X connect 69 0 6 0 empty;
#X connect 70 0 7 0 empty;
#X connect 71 0 3 0 empty;
#X coords 0 -1 1 1 465 280 1 400 120;
