#N canvas 624 260 405 306 12;
#X obj 2 2 cnv 15 400 300 empty empty empty 20 12 0 14 -203904 -66577
0;
#X obj 19 200 *~;
#X obj 195 84 t b b;
#X obj 196 152 line~;
#X msg 251 129 1 1;
#X msg 196 129 0 30;
#X obj 195 106 del 3;
#X obj 19 84 noise~;
#X obj 19 137 hip~ 5600;
#X obj 70 120 nbx 5 14 1000 10000 0 0 empty empty roll-off_frequency
0 -8 0 10 -262144 -1 -1 1000 256;
#X obj 19 229 clip~ -1 1;
#X obj 3 3 cnv 15 350 40 empty empty Simple_Hat 20 12 0 20 -233017
-66577 0;
#X obj 195 51 inlet;
#X obj 19 267 outlet~;
#X connect 1 0 10 0;
#X connect 2 0 6 0;
#X connect 2 1 4 0;
#X connect 3 0 1 1;
#X connect 4 0 3 0;
#X connect 5 0 3 0;
#X connect 6 0 5 0;
#X connect 7 0 8 0;
#X connect 8 0 1 0;
#X connect 9 0 8 1;
#X connect 10 0 13 0;
#X connect 12 0 2 0;
