#N canvas 426 168 903 533 12;
#X obj 311 267 adsr~, f 21;
#X obj 6 34 hsl 150 30 2 2000 1 1 \$0-a \$0-setA ATTACK 5 16 0 15 #ffffff
#000000 #000000 7290 1;
#X obj 6 65 hsl 150 30 2 2000 1 1 \$0-d \$0-setD DECAY 5 16 0 15 #ffffff
#000000 #000000 8043 1;
#X obj 6 96 hsl 150 30 0 1 0 1 \$0-s \$0-setS SUSTAIN 5 16 0 15 #ffffff
#000000 #000000 5700 1;
#X obj 6 127 hsl 150 30 2 2000 1 1 \$0-r \$0-setR RELEASE 5 16 0 15
#ffffff #000000 #000000 7697 1;
#X obj 401 35 inlet;
#X obj 491 35 inlet;
#X obj 561 35 inlet;
#X obj 631 35 inlet;
#X obj 311 35 inlet;
#X text 408 16 a;
#X text 496 16 d;
#X text 566 16 s;
#X text 640 16 r;
#X obj 401 68 s \$0-setA;
#X obj 631 66 s \$0-setR;
#X obj 561 67 s \$0-setS;
#X obj 491 68 s \$0-setD;
#X obj 403 227 r \$0-d;
#X obj 453 227 r \$0-s;
#X obj 503 227 r \$0-r;
#X obj 353 227 r \$0-a;
#X obj 68 160 tgl 30 0 empty \$0-setT empty 17 7 0 10 #000000 #ffffff
#ffffff 0 1;
#X obj 321 68 s \$0-setT;
#X obj 205 349 outlet~;
#X obj 6 4 cnv 15 155 29 empty empty ADSR 20 12 0 14 #e0e0e0 #404040
0;
#X text 315 16 trig;
#X obj 206 35 inlet~;
#X text 203 12 signal in;
#X obj 205 322 *~;
#X obj 311 349 outlet~;
#X text 106 373 Enveloped Signal Out~;
#X text 312 372 Envelope Only~;
#X connect 0 0 29 1;
#X connect 0 0 30 0;
#X connect 5 0 14 0;
#X connect 6 0 17 0;
#X connect 7 0 16 0;
#X connect 8 0 15 0;
#X connect 9 0 23 0;
#X connect 9 0 0 0;
#X connect 18 0 0 2;
#X connect 19 0 0 3;
#X connect 20 0 0 4;
#X connect 21 0 0 1;
#X connect 27 0 29 0;
#X connect 29 0 24 0;
#X coords 0 -1 1 1 168 192 2 0 0;
