#N canvas 424 177 725 541 12;
#X obj 156 193 inlet~;
#X obj 177 333 *~;
#X obj 177 374 *~;
#X obj 177 423 clip~ -1 1;
#X obj 83 4 hsl 148 31 0.01 1.01 1 0 \$0-volume \$0-setVolume VOLUME
48 13 0 15 #ffffff #000000 #000000 0 1;
#X obj 315 212 r \$0-volume;
#X obj 315 234 - 0.01;
#X msg 315 256 \$1 10;
#X obj 315 277 line~;
#X obj 50 4 tgl 31 0 \$0-mute \$0-setMute MUTE 3 13 0 10 #ffffff #000000
#000000 0 1;
#X msg 434 310 \$1 10;
#X obj 434 331 line~;
#X obj 427 212 r \$0-mute;
#X obj 434 244 t b f;
#X obj 434 287 -;
#X msg 434 266 1;
#X obj 499 186 loadbang;
#X msg 499 210 0;
#X text 154 170 signal in;
#X text 234 500 signal out;
#X obj 307 45 inlet;
#X obj 438 40 inlet;
#X text 306 16 volume 0-1;
#X text 435 16 mute 0/1 mute==1;
#X obj 307 68 s \$0-setVolume;
#X obj 438 142 s \$0-setMute;
#X obj 438 62 sel 0;
#X msg 438 86 0;
#X obj 470 85 t b;
#X msg 470 106 1;
#X obj 18 87 r pd;
#X obj 18 111 route dsp;
#X obj 17 4 tgl 31 0 \$0-fromDspTog \$0-toDspTog DSP 7 13 0 10 #000000
#ffffff #ffffff 0 1;
#X obj 18 212 change;
#X obj 18 257 s pd;
#X msg 18 235 dsp \$1;
#X obj 18 189 r \$0-fromDspTog;
#X obj 18 135 s \$0-toDspTog;
#X text 18 62 Turn DSP on/off;
#X obj 237 478 dac~;
#X obj 297 332 *~;
#X obj 297 373 *~;
#X obj 297 422 clip~ -1 1;
#X obj 225 193 inlet~;
#X text 223 170 signal in;
#X obj 296 477 outlet~;
#X obj 356 477 outlet~;
#X connect 0 0 1 0;
#X connect 1 0 2 0;
#X connect 2 0 3 0;
#X connect 3 0 39 0;
#X connect 3 0 45 0;
#X connect 5 0 6 0;
#X connect 6 0 7 0;
#X connect 7 0 8 0;
#X connect 8 0 1 1;
#X connect 8 0 40 1;
#X connect 10 0 11 0;
#X connect 11 0 2 1;
#X connect 11 0 41 1;
#X connect 12 0 13 0;
#X connect 13 0 15 0;
#X connect 13 1 14 1;
#X connect 14 0 10 0;
#X connect 15 0 14 0;
#X connect 16 0 17 0;
#X connect 17 0 13 0;
#X connect 20 0 24 0;
#X connect 21 0 26 0;
#X connect 26 0 27 0;
#X connect 26 1 28 0;
#X connect 27 0 25 0;
#X connect 28 0 29 0;
#X connect 29 0 25 0;
#X connect 30 0 31 0;
#X connect 31 0 37 0;
#X connect 33 0 35 0;
#X connect 35 0 34 0;
#X connect 36 0 33 0;
#X connect 40 0 41 0;
#X connect 41 0 42 0;
#X connect 42 0 39 1;
#X connect 42 0 46 0;
#X connect 43 0 40 0;
#X coords 0 -1 1 1 227 39 2 13 0;
