#N canvas 827 239 527 327 12;
#X obj 59 176 par~ 1 0.75 1;
#X msg 59 59 440;
#X obj 59 299 *~, f 7;
#X obj 82 259 tgl 25 0 empty empty empty 17 7 0 10 #e3dfd9 #5a5a5a #5a5a5a 0 1;
#X obj 59 399 stereoOut~;
#X obj 288 399 scope~ 221 181 2 3 128 -2 2 0 0 0 0 90 90 90 227 223 217 150 142 130 0 empty;
#X obj 168 299 *~, f 7;
#X obj 191 259 tgl 25 0 empty empty empty 17 7 0 10 #e3dfd9 #5a5a5a #5a5a5a 0 1;
#X obj 288 299 *~, f 7;
#X obj 311 259 tgl 25 0 empty empty empty 17 7 0 10 #e3dfd9 #5a5a5a #5a5a5a 0 1;
#X obj 408 299 *~, f 7;
#X obj 431 259 tgl 25 0 empty empty empty 17 7 0 10 #e3dfd9 #5a5a5a #5a5a5a 0 1;
#X obj 528 299 *~, f 7;
#X obj 551 259 tgl 25 0 empty empty empty 17 7 0 10 #e3dfd9 #5a5a5a #5a5a5a 0 1;
#X obj 59 19 loadbang;
#X obj 648 199 tgl 25 0 empty empty empty 17 7 0 10 #e3dfd9 #5a5a5a #5a5a5a 0 1;
#X msg 173 59 0;
#X obj 168 176 par~ 3 0.75 0.111;
#X obj 288 176 par~ 5 0.75 0.04;
#X obj 408 176 par~ 7 0.75 0.02;
#X obj 528 176 par~ 9 0.75 0.01;
#X connect 0 0 2 0 empty;
#X connect 1 0 0 0 32.................w.........PL.........DF....;
#X connect 1 0 17 0 32.................JA...zF...fR....sA...DF....;
#X connect 1 0 18 0 32.................IA...TN...PR....kC...DF....;
#X connect 1 0 19 0 32.................JA...zU...fR....cE...DF....;
#X connect 1 0 20 0 32.................IA...Tc...PR....UG...DF....;
#X connect 2 0 5 0 empty;
#X connect 2 0 4 0 empty;
#X connect 2 0 4 1 empty;
#X connect 3 0 2 1 empty;
#X connect 6 0 4 0 empty;
#X connect 6 0 4 1 empty;
#X connect 6 0 5 0 empty;
#X connect 7 0 6 1 empty;
#X connect 8 0 4 0 empty;
#X connect 8 0 4 1 empty;
#X connect 8 0 5 0 empty;
#X connect 9 0 8 1 empty;
#X connect 10 0 4 0 empty;
#X connect 10 0 4 1 empty;
#X connect 10 0 5 0 empty;
#X connect 11 0 10 1 empty;
#X connect 12 0 4 0 empty;
#X connect 12 0 4 1 empty;
#X connect 12 0 5 0 empty;
#X connect 13 0 12 1 empty;
#X connect 14 0 1 0 empty;
#X connect 14 0 16 0 empty;
#X connect 15 0 13 0 empty;
#X connect 15 0 11 0 empty;
#X connect 15 0 9 0 empty;
#X connect 15 0 7 0 empty;
#X connect 15 0 3 0 empty;
#X connect 16 0 0 2 32.................i....j6++++H....49+++GF....;
#X connect 16 0 17 2 32.................j....TB....I....k....DF....;
#X connect 16 0 18 2 32.................j....zI....I....cB...DF....;
#X connect 16 0 19 2 32.................j....TQ....I....UD...DF....;
#X connect 16 0 20 2 32.................j....zX....I....MF...DF....;
#X connect 17 0 6 0 empty;
#X connect 18 0 8 0 empty;
#X connect 19 0 10 0 empty;
#X connect 20 0 12 0 empty;
