#N canvas 827 239 527 327 12;
#X obj 130 196 par~ 1 0.75 1;
#X msg 130 79 440;
#X obj 130 319 *~, f 7;
#X obj 153 279 tgl 25 0 empty empty empty 17 7 0 10 #e3dfd9 #5a5a5a #5a5a5a 0 1;
#X obj 130 419 stereoOut~;
#X obj 359 419 scope~ 221 181 2 3 128 -2 2 0 0 0 0 90 90 90 227 223 217 150 142 130 0 empty;
#X obj 239 319 *~, f 7;
#X obj 262 279 tgl 25 0 empty empty empty 17 7 0 10 #e3dfd9 #5a5a5a #5a5a5a 0 1;
#X obj 359 319 *~, f 7;
#X obj 382 279 tgl 25 0 empty empty empty 17 7 0 10 #e3dfd9 #5a5a5a #5a5a5a 0 1;
#X obj 479 319 *~, f 7;
#X obj 502 279 tgl 25 0 empty empty empty 17 7 0 10 #e3dfd9 #5a5a5a #5a5a5a 0 1;
#X obj 599 319 *~, f 7;
#X obj 622 279 tgl 25 0 empty empty empty 17 7 0 10 #e3dfd9 #5a5a5a #5a5a5a 0 1;
#X obj 130 39 loadbang;
#X msg 244 79 0.75;
#X obj 239 196 par~ 3 0.75 0.333;
#X obj 359 196 par~ 5 0.75 0.2;
#X obj 479 196 par~ 7 0.75 0.142;
#X obj 599 196 par~ 9 0.75 0.111;
#X obj 719 219 tgl 25 0 empty empty empty 17 7 0 10 #e3dfd9 #5a5a5a #5a5a5a 0 1;
#X connect 0 0 2 0 empty;
#X connect 1 0 0 0 32.................w.........PL.........DF....;
#X connect 1 0 16 0 32.................JA...zF...fR....sA...DF....;
#X connect 1 0 17 0 32.................IA...TN...PR....kC...DF....;
#X connect 1 0 18 0 32.................JA...zU...fR....cE...DF....;
#X connect 1 0 19 0 32.................IA...Tc...PR....UG...DF....;
#X connect 2 0 5 0 empty;
#X connect 2 0 4 0 empty;
#X connect 2 0 4 1 empty;
#X connect 3 0 2 1 empty;
#X connect 6 0 4 0 empty;
#X connect 6 0 4 1 empty;
#X connect 6 0 5 0 empty;
#X connect 7 0 6 1 empty;
#X connect 8 0 4 0 empty;
#X connect 8 0 4 1 empty;
#X connect 8 0 5 0 empty;
#X connect 9 0 8 1 empty;
#X connect 10 0 4 0 empty;
#X connect 10 0 4 1 empty;
#X connect 10 0 5 0 empty;
#X connect 11 0 10 1 empty;
#X connect 12 0 4 0 empty;
#X connect 12 0 4 1 empty;
#X connect 12 0 5 0 empty;
#X connect 13 0 12 1 empty;
#X connect 14 0 1 0 empty;
#X connect 14 0 15 0 empty;
#X connect 15 0 0 2 32.................i....j6++++H....49+++GF....;
#X connect 15 0 16 2 32.................j....TB....I....k....DF....;
#X connect 15 0 17 2 32.................j....zI....I....cB...DF....;
#X connect 15 0 18 2 32.................j....TQ....I....UD...DF....;
#X connect 15 0 19 2 32.................j....zX....I....MF...DF....;
#X connect 16 0 6 0 empty;
#X connect 17 0 8 0 empty;
#X connect 18 0 10 0 empty;
#X connect 19 0 12 0 empty;
#X connect 20 0 13 0 empty;
#X connect 20 0 11 0 empty;
#X connect 20 0 9 0 empty;
#X connect 20 0 7 0 empty;
#X connect 20 0 3 0 empty;
