#N canvas 827 239 527 327 12;
#X msg 142 59 440;
#X obj 142 19 loadbang;
#X obj 142 119 *~ 1;
#X obj 142 168 osc~;
#X obj 142 217 *~ 1;
#X obj 142 330 *~;
#X obj 139 443 stereoOut~;
#X text 19 118 Harmonic No. -->;
#X text 19 216 Amplitude. -->;
#X obj 184 283 tgl 25 0 empty empty empty 17 7 0 10 #e3dfd9 #5a5a5a #5a5a5a 0 1;
#X obj 259 168 osc~;
#X obj 259 330 *~;
#X obj 301 283 tgl 25 0 empty empty empty 17 7 0 10 #e3dfd9 #5a5a5a #5a5a5a 0 1;
#X obj 379 168 osc~;
#X obj 379 330 *~;
#X obj 421 283 tgl 25 0 empty empty empty 17 7 0 10 #e3dfd9 #5a5a5a #5a5a5a 0 1;
#X obj 499 168 osc~;
#X obj 499 330 *~;
#X obj 541 283 tgl 25 0 empty empty empty 17 7 0 10 #e3dfd9 #5a5a5a #5a5a5a 0 1;
#X obj 619 164 osc~;
#X obj 619 326 *~;
#X obj 661 279 tgl 25 0 empty empty empty 17 7 0 10 #e3dfd9 #5a5a5a #5a5a5a 0 1;
#X obj 259 119 *~ 2;
#X obj 379 119 *~ 3;
#X obj 499 119 *~ 4;
#X obj 619 115 *~ 5;
#X obj 421 403 scope~ 359 261 4 3 128 -2 2 0 0 0 0 90 90 90 227 223 217 150 142 130 0 empty;
#X obj 259 217 *~ 0.5;
#X obj 499 217 *~ 0.25;
#X obj 379 217 *~ 0.33;
#X obj 619 213 *~ 0.2;
#X msg 1019 133 0.75;
#X obj 742 164 osc~;
#X obj 742 326 *~;
#X obj 784 279 tgl 25 0 empty empty empty 17 7 0 10 #e3dfd9 #5a5a5a #5a5a5a 0 1;
#X obj 859 164 osc~;
#X obj 859 326 *~;
#X obj 901 279 tgl 25 0 empty empty empty 17 7 0 10 #e3dfd9 #5a5a5a #5a5a5a 0 1;
#X obj 742 115 *~ 6;
#X obj 859 115 *~ 7;
#X obj 859 213 *~ 0.142;
#X obj 742 213 *~ 0.166;
#X obj 979 219 tgl 25 0 empty empty empty 17 7 0 10 #e3dfd9 #5a5a5a #5a5a5a 0 1;
#X obj 1019 99 loadbang;
#X text 19 238 (1/n);
#X connect 0 0 2 0 empty;
#X connect 0 0 22 0 empty;
#X connect 0 0 23 0 empty;
#X connect 0 0 24 0 empty;
#X connect 0 0 25 0 empty;
#X connect 0 0 38 0 empty;
#X connect 0 0 39 0 empty;
#X connect 1 0 0 0 empty;
#X connect 2 0 3 0 empty;
#X connect 3 0 4 0 empty;
#X connect 4 0 5 0 empty;
#X connect 5 0 6 0 empty;
#X connect 5 0 6 1 empty;
#X connect 5 0 26 0 empty;
#X connect 9 0 5 1 empty;
#X connect 10 0 27 0 empty;
#X connect 11 0 6 0 empty;
#X connect 11 0 6 1 empty;
#X connect 11 0 26 0 empty;
#X connect 12 0 11 1 empty;
#X connect 13 0 29 0 empty;
#X connect 14 0 6 0 empty;
#X connect 14 0 6 1 empty;
#X connect 14 0 26 0 empty;
#X connect 15 0 14 1 empty;
#X connect 16 0 28 0 empty;
#X connect 17 0 6 0 empty;
#X connect 17 0 6 1 empty;
#X connect 17 0 26 0 empty;
#X connect 18 0 17 1 empty;
#X connect 19 0 30 0 empty;
#X connect 20 0 6 0 empty;
#X connect 20 0 6 1 empty;
#X connect 20 0 26 0 empty;
#X connect 21 0 20 1 empty;
#X connect 22 0 10 0 empty;
#X connect 23 0 13 0 empty;
#X connect 24 0 16 0 empty;
#X connect 25 0 19 0 empty;
#X connect 27 0 11 0 empty;
#X connect 28 0 17 0 empty;
#X connect 29 0 14 0 empty;
#X connect 30 0 20 0 empty;
#X connect 31 0 19 1 empty;
#X connect 31 0 16 1 empty;
#X connect 31 0 13 1 empty;
#X connect 31 0 10 1 empty;
#X connect 31 0 3 1 empty;
#X connect 31 0 32 1 empty;
#X connect 31 0 35 1 empty;
#X connect 32 0 41 0 empty;
#X connect 33 0 6 0 empty;
#X connect 33 0 6 1 empty;
#X connect 33 0 26 0 empty;
#X connect 34 0 33 1 empty;
#X connect 35 0 40 0 empty;
#X connect 36 0 6 0 empty;
#X connect 36 0 6 1 empty;
#X connect 36 0 26 0 empty;
#X connect 37 0 36 1 empty;
#X connect 38 0 32 0 empty;
#X connect 39 0 35 0 empty;
#X connect 40 0 36 0 empty;
#X connect 41 0 33 0 empty;
#X connect 42 0 37 0 empty;
#X connect 42 0 9 0 empty;
#X connect 42 0 12 0 empty;
#X connect 42 0 15 0 empty;
#X connect 42 0 18 0 empty;
#X connect 42 0 21 0 empty;
#X connect 42 0 34 0 empty;
#X connect 43 0 31 0 empty;
