#N canvas 827 239 527 327 12;
#X obj 199 219 scope~ 130 130 4 3 128 -2 2 0 0 0 0 90 90 90 187 208 227 150 142 130 0 empty;
#X obj 385 219 scope~ 130 130 4 3 128 -2 2 0 0 0 0 90 90 90 227 226 179 150 142 130 0 empty;
#X obj 359 179 osc~ 1;
#X obj 179 179 osc~ 1;
#X obj 179 359 +~;
#X obj 579 219 scope~ 130 130 4 3 128 -2 2 0 0 0 0 90 90 90 179 227 180 150 142 130 0 empty;
#X obj 179 459 stereoOut~;
#X msg 86 87 1;
#X msg 119 87 440;
#X msg 279 89 0;
#X msg 399 89 0;
#X msg 432 89 0.5;
#X text 86 58 frequency;
#X text 279 41 in-phase;
#X text 399 41 out-of-phase;
#X obj 399 59 bng 25 250 50 0 empty empty empty 17 7 0 10 #e3dfd9 #5a5a5a #5a5a5a;
#X obj 279 59 bng 25 250 50 0 empty empty empty 17 7 0 10 #e3dfd9 #5a5a5a #5a5a5a;
#X connect 2 0 1 0 empty;
#X connect 2 0 4 1 32.................bB...f0+++Om....X8+++CJ....;
#X connect 3 0 0 0 empty;
#X connect 3 0 4 0 empty;
#X connect 4 0 6 0 empty;
#X connect 4 0 6 1 32.................n....DD....J....AA....E....;
#X connect 4 0 5 0 64.................M....bJ...PC....mB...z....vXA...M....LV...vO++++PF...7y+++OjA...g8+++C;
#X connect 7 0 3 0 empty;
#X connect 7 0 2 0 empty;
#X connect 8 0 3 0 empty;
#X connect 8 0 2 0 empty;
#X connect 9 0 2 1 empty;
#X connect 9 0 3 1 empty;
#X connect 10 0 3 1 empty;
#X connect 11 0 2 1 empty;
#X connect 15 0 10 0 empty;
#X connect 15 0 11 0 empty;
#X connect 16 0 9 0 empty;
