#N canvas 827 239 527 327 12;
#X obj 139 359 scope~ 130 130 4 3 128 -2 2 0 0 0 0 90 90 90 187 208 227 150 142 130 0 empty;
#X obj 325 359 scope~ 130 130 4 3 128 -2 2 0 0 0 0 90 90 90 227 226 179 150 142 130 0 empty;
#X obj 299 319 osc~ 1;
#X msg 159 277 0;
#X obj 159 237 bng 25 250 50 0 empty empty empty 17 7 0 10 #e3dfd9 #5a5a5a #5a5a5a;
#X obj 119 319 osc~ 1;
#X obj 119 499 +~;
#X obj 519 359 scope~ 130 130 4 3 128 -2 2 0 0 0 0 90 90 90 179 227 180 150 142 130 0 empty;
#X text 138 216 in - phase;
#X obj 119 599 stereoOut~;
#X obj 119 19 notein;
#X obj 119 48 stripnote;
#X obj 119 79 mtof;
#X obj 299 219 *~;
#X obj 313 51 hsl 128 17 0.9 1.1 0 0 empty empty empty -2 -8 0 10 #e3dfd9 #5a5a5a #5a5a5a 0 1;
#X floatatom 310 79 8 0 0 0 empty - - 24;
#X msg 310 19 1;
#X obj 499 99 arUI~;
#X obj 581 33 tgl 25 0 empty empty empty 17 7 0 10 #e3dfd9 #5a5a5a #5a5a5a 0 1;
#X obj 557 73 spigot;
#X obj 739 93 scope~ 130 130 256 3 128 -1 1 0 0 0 0 90 90 90 227 198 195 150 142 130 0 empty;
#X obj 675 239 +~ 1.01;
#X obj 675 211 *~ 0.2;
#X obj 180 79 s trigs;
#X obj 519 33 r trigs;
#X obj 321 259 number~;
#A saved 0 0 100 -inf inf #2a3434 #ffffff #b6fefd;
#X obj 199 259 number~;
#A saved 0 0 100 -inf inf #2a3434 #ffffff #b6fefd;
#X connect 2 0 1 0 empty;
#X connect 2 0 6 1 32.................bB...f0+++Om....X8+++CJ....;
#X connect 3 0 2 1 empty;
#X connect 3 0 5 1 empty;
#X connect 4 0 3 0 empty;
#X connect 5 0 0 0 empty;
#X connect 5 0 6 0 empty;
#X connect 6 0 9 0 empty;
#X connect 6 0 9 1 32.................n....DD....J....AA....E....;
#X connect 6 0 7 0 64.................M....bJ...PC....mB...z....vXA...M....LV...vO++++LG...7y+++OyA...g8+++C;
#X connect 10 0 11 0 empty;
#X connect 10 1 11 1 empty;
#X connect 11 0 12 0 empty;
#X connect 11 1 23 0 empty;
#X connect 12 0 5 0 empty;
#X connect 12 0 13 0 empty;
#X connect 12 0 26 0 empty;
#X connect 13 0 2 0 empty;
#X connect 13 0 25 0 empty;
#X connect 14 0 15 0 empty;
#X connect 15 0 13 1 empty;
#X connect 16 0 14 0 empty;
#X connect 17 1 20 0 empty;
#X connect 17 1 22 0 empty;
#X connect 18 0 19 1 empty;
#X connect 19 0 17 1 empty;
#X connect 22 0 21 0 empty;
#X connect 24 0 19 0 empty;
