#N canvas 827 239 527 327 12;
#X text 318 18 Depth;
#X obj 19 279 stereoOut~;
#X obj 119 119 *~, f 32;
#X obj 19 179 +~;
#X obj 19 214 osc~;
#X obj 322 39 hsl 128 17 0 1 0 0 empty empty empty -2 -8 0 10 #e3dfd9 #5a5a5a #5a5a5a 0 1;
#X obj 119 79 osc~;
#X floatatom 19 39 11 0 0 0 empty - - 16;
#X floatatom 119 39 11 0 0 0 empty - - 16;
#X text 27 18 C;
#X text 126 18 M;
#X text 263 158 FM 'Sounds';
#X obj 319 79 map 0 1 0 10000 6;
#X text 263 194 1) Any int : 1 \, 2 \, 3 \, or 4 - Carrier Wave is Prominent \; \; 2) Any int >4 : any int - Fundamental may dissapear! Harmonic Partials \; \; 3) Any int : 1 - Harmonic partials \, includes fundamental \; \; 4) Any int : even number - Odd Harmonic partials (square/triangly) \; \; 5) Irrational Ratios - dissonant timbres \, bell sounds, f 40;
#X connect 2 0 3 1 empty;
#X connect 3 0 4 0 empty;
#X connect 4 0 1 0 32.................b....nK....G....5B...bC....;
#X connect 4 0 1 1 32.................P....DD....D....AA...zB....;
#X connect 5 0 12 0 empty;
#X connect 6 0 2 0 empty;
#X connect 7 0 3 0 empty;
#X connect 8 0 6 0 empty;
#X connect 12 0 2 1 empty;
