#N canvas 827 239 527 327 12;
#X text 28 38 Carrier;
#X text 139 18 Modulator;
#X text 318 18 Depth;
#X obj 19 279 stereoOut~;
#X obj 119 119 *~, f 32;
#X obj 19 179 +~;
#X obj 19 214 osc~;
#X msg 19 59 200;
#X obj 19 19 loadbang;
#X obj 322 39 hsl 128 17 0 100 0 0 empty empty empty -2 -8 0 10 #e3dfd9 #5a5a5a #5a5a5a 0 1;
#X msg 119 39 50;
#X msg 159 39 100;
#X msg 211 39 673;
#X obj 119 79 osc~ 100;
#X connect 4 0 5 1 empty;
#X connect 5 0 6 0 empty;
#X connect 6 0 3 0 32.................b....nK....G....5B...bC....;
#X connect 6 0 3 1 32.................P....DD....D....AA...zB....;
#X connect 7 0 5 0 empty;
#X connect 8 0 7 0 empty;
#X connect 9 0 4 1 empty;
#X connect 10 0 13 0 empty;
#X connect 11 0 13 0 empty;
#X connect 12 0 13 0 empty;
#X connect 13 0 4 0 empty;
