#N canvas 827 239 527 327 12;
#X obj 382 179 hsl 136 21 0 1 0 0 empty empty empty -2 -8 0 10 #e3dfd9 #5a5a5a #5a5a5a 0 1;
#X text 379 158 Modulator;
#X obj 59 279 osc~;
#X obj 379 269 osc~;
#X obj 581 179 hsl 128 22 0 1 0 0 empty empty empty -2 -8 0 10 #e3dfd9 #5a5a5a #5a5a5a 0 1;
#X text 580 158 Depth;
#X obj 199 599 stereoOut~;
#X obj 379 299 *~, f 32;
#X obj 199 344 +~;
#X obj 199 207 mtof~;
#X obj 199 379 osc~;
#X floatatom 439 250 10 0 0 0 empty - - 16;
#X floatatom 609 250 10 0 0 0 empty - - 16;
#X obj 379 219 map 0 1 0.1 1000 3;
#X obj 578 219 map 0 1 0.001 1000 6;
#X obj 199 99 notein, f 18;
#X obj 199 139 stripnote;
#X obj 199 419 arUI~;
#X obj 257 344 t b f, f 25;
#X obj 409 419 / 127;
#X obj 199 539 *~, f 34;
#X msg 409 458 \$1 25;
#X obj 412 496 line~;
#X connect 0 0 13 0 empty;
#X connect 3 0 7 0 empty;
#X connect 4 0 14 0 empty;
#X connect 7 0 8 1 empty;
#X connect 8 0 10 0 empty;
#X connect 9 0 2 0 empty;
#X connect 9 0 8 0 empty;
#X connect 10 0 17 0 empty;
#X connect 13 0 3 0 empty;
#X connect 13 0 11 0 empty;
#X connect 14 0 7 1 empty;
#X connect 14 0 12 0 empty;
#X connect 15 0 16 0 empty;
#X connect 15 1 16 1 empty;
#X connect 16 0 9 0 empty;
#X connect 16 1 18 0 empty;
#X connect 17 0 20 0 empty;
#X connect 18 0 17 1 empty;
#X connect 18 1 19 0 empty;
#X connect 19 0 21 0 empty;
#X connect 20 0 6 0 empty;
#X connect 21 0 22 0 empty;
#X connect 22 0 20 1 empty;
