#N canvas 827 239 527 327 12;
#X obj 202 179 hsl 136 21 0 127 0 0 empty empty empty -2 -8 0 10 #e3dfd9 #5a5a5a #5a5a5a 0 1;
#X text 199 158 Carrier;
#X obj 382 179 hsl 136 21 0 1 0 0 empty empty empty -2 -8 0 10 #e3dfd9 #5a5a5a #5a5a5a 0 1;
#X text 379 158 Modulator;
#X obj 59 279 osc~;
#X obj 379 269 osc~;
#X obj 581 179 hsl 128 22 0 1 0 0 empty empty empty -2 -8 0 10 #e3dfd9 #5a5a5a #5a5a5a 0 1;
#X text 580 158 Depth;
#X obj 59 314 scope~ 130 130 8 3 128 -1 1 0 0 0 0 90 90 90 213 227 192 150 142 130 0 empty;
#X obj 419 299 scope~ 130 130 8 3 128 -1 1 0 0 0 0 90 90 90 159 202 227 150 142 130 0 empty;
#X obj 385 594 stereoOut~;
#X obj 199 579 scope~ 130 130 8 3 128 -1 1 0 0 0 0 90 90 90 173 227 195 150 142 130 0 empty;
#X obj 379 439 *~, f 32;
#X obj 199 484 +~;
#X obj 199 207 mtof~;
#X obj 199 519 osc~;
#X obj 218 239 number~;
#A saved 0 0 100 -inf inf #2a3434 #ffffff #b6fefd;
#X floatatom 439 250 10 0 0 0 empty - - 16;
#X floatatom 609 250 10 0 0 0 empty - - 16;
#X obj 379 219 map 0 1 0.1 1000 3;
#X obj 578 219 map 0 1 0.001 1000 6;
#X connect 0 0 14 0 empty;
#X connect 2 0 19 0 empty;
#X connect 4 0 8 0 empty;
#X connect 5 0 9 0 empty;
#X connect 5 0 12 0 empty;
#X connect 6 0 20 0 empty;
#X connect 12 0 13 1 empty;
#X connect 13 0 15 0 empty;
#X connect 14 0 4 0 empty;
#X connect 14 0 13 0 empty;
#X connect 14 0 16 0 empty;
#X connect 15 0 11 0 empty;
#X connect 15 0 10 0 32.................b....nK....G....5B...bC....;
#X connect 15 0 10 1 32.................b....rO....G....6C...bC....;
#X connect 19 0 5 0 empty;
#X connect 19 0 17 0 empty;
#X connect 20 0 12 1 empty;
#X connect 20 0 18 0 empty;
