#N canvas 649 319 497 224 12;
#X obj 0 0 cnv 15 1000 1000 empty empty empty 20 12 0 14 -203904 -66577
0;
#X obj 9 9 cnv 15 460 40 empty empty Lab4b-AmplitudeModulation 20 12
0 20 -233017 -66577 0;
#N canvas 41 127 1005 619 basic_amplitude_modulation 0;
#X obj 2 1 cnv 15 1000 1000 empty empty empty 20 12 0 14 -203904 -66577
0;
#X floatatom 7 155 5 0 0 0 - - -;
#X obj 7 174 mtof;
#X msg 7 216 \$1 10;
#X obj 7 238 line~;
#X obj 10 119 hsl 128 30 0 127 0 0 empty empty CARRIER_FREQ 5 15 0
15 -262130 -1 -1 6000 1;
#X floatatom 7 196 5 0 0 0 - - -;
#X obj 7 72 loadbang;
#X msg 7 94 60;
#X obj 7 10 cnv 15 320 25 empty empty Basic_Amplitude_Modulation 20
12 0 14 -228856 -66577 0;
#X text 146 124 <-- set Carrier Frequency;
#X text 82 253 frequency helps to avoid clicks \, if the;
#X text 82 266 ramp time is high enough \, we can also use;
#X text 82 279 it to add portamento.;
#X obj 7 304 osc~;
#X text 48 304 <--- Carrier Wave;
#X text 54 196 <--- Carrier Frequency;
#X obj 7 43 cnv 15 210 25 empty empty Generate_Carrier_Wave 20 12 0
12 -233017 -66577 0;
#X obj 417 43 cnv 15 220 25 empty empty Generate_Modulator_Wave 20
12 0 12 -233017 -66577 0;
#X obj 417 221 osc~;
#X msg 417 176 \$1 10;
#X obj 417 199 line~;
#X floatatom 417 154 5 0 0 0 - - -;
#X obj 417 72 loadbang;
#X msg 417 94 1;
#X obj 420 119 hsl 128 30 0.5 127 1 0 empty empty MODULATOR_FREQ 2
15 0 15 -262130 -1 -1 1590 1;
#X text 46 238 <--- using line~ to smooth out changes in;
#X text 457 153 <--- modulator frequency;
#X text 456 221 <--- modulator wave;
#X obj 7 354 cnv 15 220 25 empty empty The_AM_Bit! 20 12 0 12 -233017
-66577 0;
#X obj 7 420 *~;
#X text 34 420 <--- yep \, that's it. We just multiply them together.
;
#X text 68 437 It works the same way as a volume control in;
#X text 68 453 previous examples.;
#X obj 7 528 vol-ctl;
#X obj 7 572 dac~;
#X obj 7 477 cnv 15 330 25 empty empty We_can_re-use_our_volume_abstraction_here...
20 12 0 12 -233017 -66577 0;
#X obj 12 506 s~ toGraph;
#X obj 417 354 cnv 15 220 25 empty empty Graph_Output 20 12 0 12 -233017
-66577 0;
#X obj 417 383 r~ toGraph;
#X text 553 114 <--- notice the difference between;
#X text 587 126 low/high values here?;
#X obj 417 407 wave-scope;
#X obj 7 325 s~ bAM-carWave;
#X obj 417 250 s~ bAM-modWave;
#X obj 7 383 r~ bAM-carWave;
#X obj 121 383 r~ bAM-modWave;
#X connect 1 0 2 0;
#X connect 2 0 6 0;
#X connect 3 0 4 0;
#X connect 4 0 14 0;
#X connect 5 0 1 0;
#X connect 6 0 3 0;
#X connect 7 0 8 0;
#X connect 8 0 5 0;
#X connect 14 0 43 0;
#X connect 19 0 44 0;
#X connect 20 0 21 0;
#X connect 21 0 19 0;
#X connect 22 0 20 0;
#X connect 23 0 24 0;
#X connect 24 0 25 0;
#X connect 25 0 22 0;
#X connect 30 0 34 0;
#X connect 30 0 37 0;
#X connect 34 0 35 0;
#X connect 34 0 35 1;
#X connect 39 0 42 0;
#X connect 45 0 30 0;
#X connect 46 0 30 1;
#X restore 9 116 pd basic_amplitude_modulation;
#X text 8 51 We're going to use one wave to affect (or modulate) the
volume (or amplitude) of another \, e.g. Amplitude modulation.;
#X text 7 93 Let's start here:;
#X text 8 150 Now something a bit more fancy:;
#N canvas 330 97 1017 660 better_amplitude_modulation 0;
#X obj -7 -7 cnv 15 1000 1000 empty empty empty 20 12 0 14 -203904
-66577 0;
#X obj 7 182 mtof;
#X obj 10 149 hsl 128 30 0 127 0 0 empty empty CARRIER_FREQ 5 15 0
15 -262130 -1 -1 6000 1;
#X obj 7 102 loadbang;
#X msg 7 124 60;
#X obj 7 10 cnv 15 320 25 empty empty Better_Amplitude_Modulation 20
12 0 14 -228856 -66577 0;
#X obj 7 73 cnv 15 210 25 empty empty Generate_Carrier_Wave 20 12 0
12 -233017 -66577 0;
#X obj 227 73 cnv 15 220 25 empty empty Generate_Modulator_Wave 20
12 0 12 -233017 -66577 0;
#X msg 227 206 \$1 10;
#X floatatom 227 184 5 0 0 0 - - -;
#X obj 227 102 loadbang;
#X msg 227 124 1;
#X obj 230 149 hsl 128 30 0.5 127 1 0 empty empty MODULATOR_FREQ 2
15 0 15 -262130 -1 -1 1590 1;
#X obj 7 414 cnv 15 220 25 empty empty The_AM_Bit! 20 12 0 12 -233017
-66577 0;
#X obj 7 480 *~;
#X text 34 480 <--- yep \, that's it. We just multiply them together.
;
#X text 68 497 It works the same way as a volume control in;
#X text 68 513 previous examples.;
#X obj 7 588 vol-ctl;
#X obj 7 632 dac~;
#X obj 7 537 cnv 15 330 25 empty empty We_can_re-use_our_volume_abstraction_here...
20 12 0 12 -233017 -66577 0;
#X obj 557 414 cnv 15 220 25 empty empty Graph_Output 20 12 0 12 -233017
-66577 0;
#X obj 557 467 wave-scope;
#X obj 7 225 line;
#X floatatom 7 246 5 0 0 0 - - -;
#X msg 7 203 \$1 10;
#X obj 7 266 wave-select;
#X obj 557 443 r~ btAMtoGraph;
#X obj 227 229 line;
#X floatatom 227 251 5 0 0 0 - - -;
#X obj 7 373 s~ btAM-carFreq;
#X obj 7 443 r~ btAM-carFreq;
#X obj 20 564 s~ btAMtoGraph;
#X obj 227 379 s~ btAM-modWave;
#X obj 121 443 r~ btAM-mod;
#X obj 557 73 cnv 15 220 25 empty empty Scale_Modulator_Wave 20 12
0 12 -233017 -66577 0;
#X obj 575 127 loadbang;
#X obj 578 174 hsl 128 30 0.01 1 0 0 empty empty MOD_DEPTH 2 15 0 15
-204786 -1 -1 6286 1;
#X msg 575 149 0.5;
#X msg 575 231 \$1 10;
#X floatatom 575 209 5 0 0 0 - - -;
#X obj 575 254 line;
#X obj 592 324 -;
#X obj 557 105 r~ btAM-modWave;
#X obj 557 301 *~;
#X obj 557 372 +~;
#X text 726 102 Here we add a depth control \, which will allow us
to scale the mod frequency by the depth-ammount \, and always take
this away from 1, f 36;
#X text 726 165 Why? Because if we simply scale the modulator wave
by depth \, we would also reduce the volume of the sound as depth is
reduced (depth=0 means no sound)., f 36;
#X msg 592 301 1 \$1;
#X text 626 301 <--- remember that we can use lists for a lot of pd
;
#X text 661 315 objects that have multiple inlets. Here we take the
input away from 1, f 46;
#X obj 557 393 s~ btAM-mod;
#X obj 227 271 lf-wave-select;
#X text 363 219 Here we use an alternate waveform selector which contains
an alternate squarewave generator. This is because the additive version
isn't very accurate at low frequencies. Right click on the abstraction
and choose 'open' \, then repeat until you find [lf-sqwave~] if you
want to see how it works., f 23;
#X obj 575 278 * 0.5;
#X obj 575 347 +;
#X text 8 36 This is very similar to the previous example \, only we
can now choose waveforms for carrier and mod waves \, and set the depth
of the AM effect., f 107;
#X connect 1 0 25 0;
#X connect 2 0 1 0;
#X connect 3 0 4 0;
#X connect 4 0 2 0;
#X connect 8 0 28 0;
#X connect 9 0 8 0;
#X connect 10 0 11 0;
#X connect 11 0 12 0;
#X connect 12 0 9 0;
#X connect 14 0 18 0;
#X connect 14 0 32 0;
#X connect 18 0 19 0;
#X connect 18 0 19 1;
#X connect 23 0 24 0;
#X connect 24 0 26 0;
#X connect 25 0 23 0;
#X connect 26 0 30 0;
#X connect 27 0 22 0;
#X connect 28 0 29 0;
#X connect 29 0 52 0;
#X connect 31 0 14 0;
#X connect 34 0 14 1;
#X connect 36 0 38 0;
#X connect 37 0 40 0;
#X connect 38 0 37 0;
#X connect 39 0 41 0;
#X connect 40 0 39 0;
#X connect 41 0 48 0;
#X connect 41 0 54 0;
#X connect 42 0 55 1;
#X connect 43 0 44 0;
#X connect 44 0 45 0;
#X connect 45 0 51 0;
#X connect 48 0 42 0;
#X connect 52 0 33 0;
#X connect 54 0 44 1;
#X connect 54 0 55 0;
#X connect 55 0 45 1;
#X restore 9 171 pd better_amplitude_modulation;
