#N canvas 32 25 638 296 12;
#N canvas 32 25 450 278 (subpatch) 0;
#X array \$0-array 264600 float 2;
#X coords 0 1 264600 -1 200 140 1 0 0;
#X restore 9 46 graph;
#X obj 267 117 openpanel;
#X obj 267 198 soundfiler;
#X obj 397 68 loadbang;
#X msg 267 174 read -resize \$1 \$2;
#X obj 267 151 pack s s;
#X obj 267 86 t b b;
#X obj 267 220 outlet;
#X obj 517 163 outlet;
#X obj 2 22 cnv 15 205 22 empty empty Open_Sound_File_>> 60 12 0 12
-262144 -66577 0;
#X obj 194 27 bng 15 250 50 0 empty empty empty 17 7 0 10 -262144 -1
-1;
#X obj 397 130 symbol \$0-array;
#X obj 517 130 f \$0;
#X connect 1 0 5 0;
#X connect 2 0 7 0;
#X connect 3 0 11 0;
#X connect 3 0 12 0;
#X connect 4 0 2 0;
#X connect 5 0 4 0;
#X connect 6 0 1 0;
#X connect 6 1 11 0;
#X connect 6 1 12 0;
#X connect 10 0 6 0;
#X connect 11 0 5 1;
#X connect 12 0 8 0;
#X coords 0 -1 1 1 220 190 1 0 0;
