#N canvas 118 115 1148 483 12;
#X declare -path ./Dependencies;
#X obj 19 436 cnv 15 255 39 empty empty empty 20 12 0 14 #ffb1ad #5a5a5a 0;
#X obj 4 2 cnv 15 580 40 empty empty Milestone\ 2\ -\ Hardware\ Challenge 20 12 0 20 #e0e0e0 #404040 0;
#X obj 430 56 premadePatch;
#X obj 589 4 declare -path ./Dependencies;
#X text 20 58 1 - Connect to the Semi-Modular Synths via an audio interface or USB.;
#X text 20 98 2 - Set up a pattern and play it into the synth;
#X text 20 124 3 - Experiment with the hardware. Guidance will be given in labs, f 55;
#X text 20 440 NOTE: we'll need to add the PlugData vst as a 'MIDI FX plugin in logic for this to work!, f 36;
