#N canvas 159 25 1125 806 12;
#X obj 1 2 cnv 15 1120 800 empty empty empty 20 12 0 14 -203904 -66577
0;
#X obj 8 8 cnv 15 1100 40 empty empty ADSR_ABSTRACTION 20 12 0 20 -233017
-66577 0;
#X obj 23 261 cnv 30 400 60 empty empty ATTACK 20 12 0 14 -233017 -66577
0;
#X text 41 291 Ramp to peak amplitude over the attack time in ms;
#X obj 512 261 cnv 30 400 60 empty empty DECAY 20 12 0 14 -233017 -66577
0;
#X text 530 291 Ramp down to the sustain level over decay time in ms
;
#X obj 23 541 cnv 30 400 60 empty empty RELEASE 20 12 0 14 -233017
-66577 0;
#X text 41 566 Ramp down from the sustain level to 0 over the release
time, f 53;
#X obj 503 541 cnv 30 400 60 empty empty GENERATE_ENV 20 12 0 14 -233017
-66577 0;
#X text 521 566 Generate the envelope and output, f 53;
#X text 29 58 Trigger;
#X text 509 55 A;
#X text 619 55 D;
#X text 719 55 S;
#X text 829 55 R;
#X obj 35 91 inlet;
#X obj 505 91 inlet;
#X obj 615 91 inlet;
#X obj 725 91 inlet;
#X obj 835 91 inlet;
#X obj 35 124 sel 0;
#X obj 35 235 s \$0-startRelease;
#X obj 67 147 t b b f;
#X obj 113 168 s \$0-peak;
#X obj 90 190 s \$0-startAttack;
#X obj 67 213 s \$0-startDecay;
#X obj 505 115 s \$0-a;
#X obj 835 115 s \$0-r;
#X obj 725 114 s \$0-s;
#X obj 615 113 s \$0-d;
#X obj 25 615 r \$0-startRelease;
#X obj 44 654 r \$0-r;
#X obj 25 686 f;
#X msg 25 716 0 \$1;
#X obj 25 740 s \$0-release;
#X obj 628 738 line~;
#X obj 628 762 outlet~;
#X obj 747 687 r \$0-release;
#X obj 34 343 r \$0-startAttack;
#X obj 34 393 f;
#X obj 53 371 r \$0-peak;
#X obj 34 439 pack f f;
#X obj 87 416 r \$0-a;
#X obj 34 463 s \$0-attack;
#X obj 511 686 r \$0-attack;
#X obj 578 397 r \$0-startDecay;
#X obj 596 419 r \$0-a;
#X obj 578 441 del;
#X msg 513 411 stop;
#X obj 540 370 r \$0-startAttack;
#X obj 513 346 r \$0-startRelease;
#X obj 710 466 f;
#X obj 728 346 r \$0-peak;
#X obj 768 368 r \$0-s;
#X obj 728 420 *;
#X obj 768 392 t b f;
#X obj 710 489 pack f f;
#X obj 763 467 r \$0-d;
#X obj 709 511 s \$0-decay;
#X obj 628 686 r \$0-decay;
#X connect 15 0 20 0;
#X connect 16 0 26 0;
#X connect 17 0 29 0;
#X connect 18 0 28 0;
#X connect 19 0 27 0;
#X connect 20 0 21 0;
#X connect 20 1 22 0;
#X connect 22 0 25 0;
#X connect 22 1 24 0;
#X connect 22 2 23 0;
#X connect 30 0 32 0;
#X connect 31 0 32 1;
#X connect 32 0 33 0;
#X connect 33 0 34 0;
#X connect 35 0 36 0;
#X connect 37 0 35 0;
#X connect 38 0 39 0;
#X connect 39 0 41 0;
#X connect 40 0 39 1;
#X connect 41 0 43 0;
#X connect 42 0 41 1;
#X connect 44 0 35 0;
#X connect 45 0 47 0;
#X connect 46 0 47 1;
#X connect 47 0 51 0;
#X connect 48 0 47 0;
#X connect 49 0 48 0;
#X connect 50 0 48 0;
#X connect 51 0 56 0;
#X connect 52 0 54 0;
#X connect 53 0 55 0;
#X connect 54 0 51 1;
#X connect 55 0 54 0;
#X connect 55 1 54 1;
#X connect 56 0 58 0;
#X connect 57 0 56 1;
#X connect 59 0 35 0;
