#N canvas 270 84 457 457 12;
#X obj 2 3 cnv 15 450 450 empty empty empty 20 12 0 14 -203904 -66577
0;
#X obj 261 175 noise~;
#X obj 324 152 t b b;
#X obj 324 219 line~;
#X obj 46 308 clip~ -1 1;
#X obj 261 264 *~;
#X obj 46 175 noise~;
#X obj 140 152 t b b;
#X obj 140 219 line~;
#X obj 140 175 del 5;
#X obj 46 254 *~;
#X msg 386 197 0.5 25;
#X obj 324 175 del 25;
#X msg 192 197 1 1;
#X msg 140 197 0 35;
#X obj 261 197 hip~ 100;
#X text 41 56 TRIGGER SNARE;
#X obj 46 197 bp~ 1000 0.6;
#X msg 324 197 0 160;
#X obj 261 219 lop~ 650;
#X obj 3 3 cnv 15 450 40 empty empty SIMPLE_SNARE 20 12 0 20 -233017
-66577 0;
#X obj 45 74 inlet;
#X obj 45 96 t b;
#X obj 46 367 outlet~;
#X connect 1 0 15 0;
#X connect 2 0 12 0;
#X connect 2 1 11 0;
#X connect 3 0 5 1;
#X connect 4 0 23 0;
#X connect 5 0 4 0;
#X connect 6 0 17 0;
#X connect 7 0 9 0;
#X connect 7 1 13 0;
#X connect 8 0 10 1;
#X connect 9 0 14 0;
#X connect 10 0 4 0;
#X connect 11 0 3 0;
#X connect 12 0 18 0;
#X connect 13 0 8 0;
#X connect 14 0 8 0;
#X connect 15 0 19 0;
#X connect 17 0 10 0;
#X connect 18 0 3 0;
#X connect 19 0 5 0;
#X connect 21 0 22 0;
#X connect 22 0 7 0;
#X connect 22 0 2 0;
