#N canvas 32 25 757 623 12;
#X obj -1 0 cnv 15 750 600 empty empty empty 20 12 0 14 -203904 -66577
0;
#X obj 210 90 inlet~;
#X text 210 71 SIGNAL IN;
#X obj 210 188 simpleDelay~;
#X obj 237 121 r \$0-delT;
#X obj 257 140 r \$0-delFd;
#X obj 277 159 r \$0-delWet;
#X obj 210 318 simpleVerb~;
#X obj 231 231 r \$0-verbAmt;
#X obj 251 250 r \$0-verbLen;
#X obj 267 269 r \$0-verbLP;
#X obj 287 288 r \$0-verbWet;
#X obj 3 3 cnv 15 190 120 empty empty DELAY 10 12 0 14 -191407 -66577
0;
#X obj 22 25 hsl 150 30 0.1 2000 0 1 \$0-delT empty DELAY_TIME 7 16
0 15 -232576 -1 -1 8000 1;
#X obj 22 57 hsl 150 30 0.01 1 0 1 \$0-delFd empty FEEDBACK 7 16 0
15 -232576 -1 -1 0 1;
#X obj 22 89 hsl 150 30 0 1 0 1 \$0-delWet empty WET/DRY 7 16 0 15
-232576 -1 -1 8900 1;
#X obj 2 122 cnv 15 190 160 empty empty REVERB 10 12 0 14 -191407 -66577
0;
#X obj 22 143 hsl 150 30 0.01 1 0 1 \$0-verbAmt empty VERB_AMT 7 16
0 15 -232576 -1 -1 14900 1;
#X obj 22 175 hsl 150 30 0.1 100 0 1 \$0-verbLen empty VERB_LEN 7 16
0 15 -232576 -1 -1 14000 1;
#X obj 22 207 hsl 150 30 20 20000 1 1 \$0-verbLP empty LOW_PASS 7 16
0 15 -232576 -1 -1 12900 1;
#X obj 22 239 hsl 150 30 0 1 0 1 \$0-verbWet empty WET/DRY 7 16 0 15
-232576 -1 -1 6600 1;
#X obj 210 364 outlet~;
#X obj 209 6 cnv 15 400 60 empty empty simpleFX~ 20 12 0 14 -233017
-66577 0;
#X text 227 29 A visual wrapper for the simpleVerb~ and simpleDelay~
abstractions;
#X text 209 383 SIGNAL OUT;
#X text 400 142 <-- parameters from sliders;
#X text 400 262 <-- parameters from sliders;
#X connect 1 0 3 0;
#X connect 3 0 7 0;
#X connect 4 0 3 1;
#X connect 5 0 3 2;
#X connect 6 0 3 3;
#X connect 7 0 21 0;
#X connect 8 0 7 1;
#X connect 9 0 7 2;
#X connect 10 0 7 3;
#X connect 11 0 7 4;
#X coords 0 -1 1 1 195 285 2 0 0;
