#N canvas 32 25 706 407 12;
#X obj 2 2 cnv 15 700 400 empty empty empty 20 12 0 14 -203904 -66577
0;
#X obj 22 55 inlet~;
#X obj 608 103 inlet;
#X text 23 34 freq~;
#X text 608 81 phase (bang);
#X obj 608 127 t b;
#X msg 608 151 0.75;
#X obj 23 193 par~ 1 1 0.75;
#X obj 123 193 par~ 3 0.333 0.75;
#X obj 250 193 par~ 5 0.2 0.75;
#X obj 364 193 par~ 7 0.143 0.75;
#X obj 492 193 par~ 9 0.111 0.75;
#X obj 23 246 *~ 0.2;
#X obj 23 287 outlet~;
#X obj 635 126 loadbang;
#X obj 76 31 f \$1;
#X obj 77 53 sig~;
#X obj 76 10 loadbang;
#X connect 1 0 7 0;
#X connect 1 0 8 0;
#X connect 1 0 9 0;
#X connect 1 0 10 0;
#X connect 1 0 11 0;
#X connect 2 0 5 0;
#X connect 5 0 6 0;
#X connect 6 0 7 3;
#X connect 6 0 8 3;
#X connect 6 0 9 3;
#X connect 6 0 10 3;
#X connect 6 0 11 3;
#X connect 7 0 12 0;
#X connect 8 0 12 0;
#X connect 9 0 12 0;
#X connect 10 0 12 0;
#X connect 11 0 12 0;
#X connect 12 0 13 0;
#X connect 14 0 6 0;
#X connect 15 0 16 0;
#X connect 16 0 7 0;
#X connect 16 0 8 0;
#X connect 16 0 9 0;
#X connect 16 0 10 0;
#X connect 16 0 11 0;
#X connect 17 0 15 0;
