#N canvas 443 63 759 489 12;
#X obj 0 -1 cnv 15 2000 2000 empty empty empty 20 12 0 14 -203904 -66577
0;
#X obj 318 194 * 1;
#X obj 318 218 phasor~;
#X obj 300 262 +~;
#X obj 300 286 cos~;
#X obj 408 330 *~;
#X obj 408 384 *~;
#X obj 408 408 outlet~;
#X obj 318 116 unpack f f;
#X obj 318 138 mtof;
#X text 357 95 <- MIDI note/velocity in;
#X obj 19 99 inlet~;
#X text 18 77 Modulating Signal;
#X obj 426 169 / 127;
#X obj 426 260 adsr~, f 13;
#X obj 157 99 inlet;
#X obj 317 94 inlet;
#X text 156 77 Pitch Ratio;
#X obj 519 156 inlet;
#X obj 529 176 inlet;
#X obj 539 196 inlet;
#X obj 549 216 inlet;
#X text 534 135 A \, D \, S \, R;
#X obj 579 296 inlet;
#X text 579 275 Output Gain;
#X text 19 150 Feedback;
#X obj 252 237 +~;
#X obj 475 430 s~ \$0-fdbk;
#X obj 21 171 r~ \$0-fdbk;
#X obj 619 336 inlet;
#X text 619 315 Feedback;
#X obj 474 407 *~;
#X obj 3 3 cnv 15 750 60 empty empty Operator 20 12 0 20 -233017 -66577
0;
#X obj 424 -3 cnv 15 100 60 empty empty empty 20 12 0 14 -233017 -66577
0;
#X connect 1 0 2 0;
#X connect 2 0 3 1;
#X connect 3 0 4 0;
#X connect 4 0 5 0;
#X connect 5 0 6 0;
#X connect 6 0 7 0;
#X connect 6 0 31 0;
#X connect 8 0 9 0;
#X connect 8 1 13 0;
#X connect 9 0 1 0;
#X connect 11 0 26 1;
#X connect 13 0 14 0;
#X connect 14 0 5 1;
#X connect 15 0 1 1;
#X connect 16 0 8 0;
#X connect 18 0 14 1;
#X connect 19 0 14 2;
#X connect 20 0 14 3;
#X connect 21 0 14 4;
#X connect 23 0 6 1;
#X connect 26 0 3 0;
#X connect 28 0 26 0;
#X connect 29 0 31 1;
#X connect 31 0 27 0;
