#N canvas 63 25 1282 645 12;
#X obj 6 6 cnv 15 348 25 empty empty 5.1:\ Simple\ Step\ Sequencer 20 12 0 14 #dcdcdc #404040 0;
#X obj 6 57 tgl 44 0 7.1stepperTog empty empty 17 7 0 10 #fcfcfc #000000 #000000 0 1;
#X obj 328 283 metro 250;
#X obj 328 344 f 0;
#X text 428 343 <- start at 0;
#X obj 384 364 + 1;
#X text 428 386 <- after every addition \, get the whole-number remainder when dividing by 8, f 19;
#X text 428 367 <- add 1 to the count;
#X obj 52 57 bng 44 250 50 0 empty 7.1count1 empty 17 7 0 10 #fcfcfc #000000 #000000;
#X obj 98 57 bng 44 250 50 0 empty 7.1count2 empty 17 7 0 10 #fcfcfc #000000 #000000;
#X obj 144 57 bng 44 250 50 0 empty 7.1count3 empty 17 7 0 10 #fcfcfc #000000 #000000;
#X obj 190 57 bng 44 250 50 0 empty 7.1count4 empty 17 7 0 10 #fcfcfc #000000 #000000;
#X text 64 69 1;
#X text 110 69 2;
#X text 156 69 3;
#X text 202 69 4;
#X text 328 220 CREATE THE COUNT;
#X obj 400 282 sel 0;
#X msg 400 311 0;
#X floatatom 620 274 5 0 0 0 - - - 0;
#X obj 620 336 bng 15 250 50 0 empty empty empty 17 7 0 10 #fcfcfc #000000 #000000;
#X obj 752 336 bng 15 250 50 0 empty empty empty 17 7 0 10 #fcfcfc #000000 #000000;
#X obj 884 336 bng 15 250 50 0 empty empty empty 17 7 0 10 #fcfcfc #000000 #000000;
#X obj 1016 336 bng 15 250 50 0 empty empty empty 17 7 0 10 #fcfcfc #000000 #000000;
#X obj 8 312 /;
#X text 55 359 Then multiply by 1000 to get the pulse in ms, f 33;
#X obj 8 514 s tempoInMs;
#X obj 8 359 * 1000;
#X msg 8 283 60 \$1;
#X text 55 273 divide 60 (seconds) by BPM to get the duration of the beat in seconds.In this case the message is: "divide 60 by the current value in \$1", f 33;
#X text 9 220 SET TEMPO: CONVERT BPM -> MS;
#X text 272 57 BPM:;
#X text 238 81 Division:;
#X floatatom 308 57 10 0 0 0 - - 5.1StepperBPM 0;
#X floatatom 308 81 10 0 0 0 - - 5.1StepperDivision 0;
#X msg 493 36 120;
#X msg 493 60 1;
#X obj 459 6 loadbang;
#X obj 8 467 /;
#X obj 26 427 r 7.1StepperDivision;
#X text 620 202 BREAK OUT THE COUNT;
#X obj 52 103 tgl 44 0 7.1beat1 empty empty 17 7 0 10 #fcfcfc #000000 #000000 0 1;
#X obj 98 103 tgl 44 0 7.1beat2 empty empty 17 7 0 10 #fcfcfc #000000 #000000 0 1;
#X obj 144 103 tgl 44 0 7.1beat3 empty empty 17 7 0 10 #fcfcfc #000000 #000000 0 1;
#X obj 190 103 tgl 44 0 7.1beat4 empty empty 17 7 0 10 #fcfcfc #000000 #000000 0 1;
#X text 551 59 <- The UI objects in the top left here all have 'hidden' sends that transmit data to the rest of the patch, f 35;
#X obj 638 362 r 7.1beat1;
#X obj 620 386 f;
#X obj 620 447 sel 1;
#X obj 620 478 bng 15 250 50 0 empty empty empty 17 7 0 10 #fcfcfc #000000 #000000;
#X text 1128 361 <- get the state of the toggles for each beat \, and send it on from [f] during that part of the count, f 20;
#X text 1124 452 <- sel will bang if the toggle for the current beat is 1 \, and do nothing otherwise, f 21;
#X obj 752 386 f;
#X obj 752 447 sel 1;
#X obj 752 478 bng 15 250 50 0 empty empty empty 17 7 0 10 #fcfcfc #000000 #000000;
#X obj 884 386 f;
#X obj 884 447 sel 1;
#X obj 884 478 bng 15 250 50 0 empty empty empty 17 7 0 10 #fcfcfc #000000 #000000;
#X obj 1016 386 f;
#X obj 1016 447 sel 1;
#X obj 1016 478 bng 15 250 50 0 empty empty empty 17 7 0 10 #fcfcfc #000000 #000000;
#X obj 770 362 r 7.1beat2;
#X obj 902 362 r 7.1beat3;
#X obj 1034 362 r 7.1beat4;
#X obj 638 335 s 7.1count1;
#X obj 770 335 s 7.1count2;
#X obj 902 335 s 7.1count3;
#X obj 1034 335 s 7.1count4;
#X obj 752 534 simpleSnare~;
#X obj 620 302 sel 0 1 2 3, f 76;
#X floatatom 52 152 5 0 0 0 - - - 0;
#X floatatom 648 409 5 0 0 0 - - - 0;
#X obj 384 389 % 4;
#X obj 752 574 stereoOut~;
#X floatatom 456 277 5 0 0 0 - - - 12;
#X obj 8 248 r 5.1StepperBPM;
#X obj 328 246 r 5.1stepperTog;
#X obj 440 246 r 5.1StepperBPM;
#X obj 327 522 s 5.1count;
#X obj 620 245 r 5.1count;
#X connect 2 0 3 0;
#X connect 3 0 5 0;
#X connect 3 0 78 0;
#X connect 5 0 72 0;
#X connect 17 0 18 0;
#X connect 18 0 3 1;
#X connect 19 0 69 0;
#X connect 20 0 47 0;
#X connect 21 0 52 0;
#X connect 22 0 55 0;
#X connect 23 0 58 0;
#X connect 24 0 27 0;
#X connect 27 0 38 0;
#X connect 28 0 24 0;
#X connect 35 0 33 0;
#X connect 36 0 34 0;
#X connect 37 0 35 0;
#X connect 37 0 36 0;
#X connect 38 0 26 0;
#X connect 39 0 38 1;
#X connect 41 0 70 0;
#X connect 46 0 47 1;
#X connect 47 0 48 0;
#X connect 47 0 71 0;
#X connect 48 0 49 0;
#X connect 49 0 68 0;
#X connect 52 0 53 0;
#X connect 53 0 54 0;
#X connect 54 0 68 0;
#X connect 55 0 56 0;
#X connect 56 0 57 0;
#X connect 57 0 68 0;
#X connect 58 0 59 0;
#X connect 59 0 60 0;
#X connect 60 0 68 0;
#X connect 61 0 52 1;
#X connect 62 0 55 1;
#X connect 63 0 58 1;
#X connect 68 0 73 0;
#X connect 69 0 20 0;
#X connect 69 0 64 0;
#X connect 69 1 21 0;
#X connect 69 1 65 0;
#X connect 69 2 22 0;
#X connect 69 2 66 0;
#X connect 69 3 23 0;
#X connect 69 3 67 0;
#X connect 72 0 3 1;
#X connect 75 0 28 0;
#X connect 76 0 2 0;
#X connect 76 0 17 0;
#X connect 77 0 2 1;
#X connect 77 0 74 0;
#X connect 79 0 19 0;
