#N canvas 14 -988 1117 728 12;
#X obj 8 8 stepper;
#X text 121 81 NOTE VALUES;
#X text 483 80 VELOCITIES;
#X obj 267 33 hsl 162 19 50 5000 1 0 \$0-noteLen empty empty -20 10 0 12 #fcfcfc #000000 #000000 0 1;
#X obj 8 80 seqTicker;
#X obj 358 80 seqTicker;
#X obj 361 389 hsl 342 19 0 127 0 0 empty empty empty -2 -10 0 12 #bbbbbb #000000 #000000 0 1;
#X obj 11 389 hsl 342 19 0 127 0 0 empty empty empty -2 -10 0 12 #bbbbbb #000000 #000000 0 1;
#X obj 8 149 seqVal 0;
#X obj 358 149 seqVal 0;
#X obj 8 496 makenote;
#X text 265 10 NOTE LENGTH;
#X obj 61 445 r \$0-noteLen;
#X obj 8 584 unpack 0 0 1;
#X obj 8 520 i;
#X obj 61 520 i;
#X obj 8 560 pack 0 0 1;
#X obj 8 637 noteout, f 12;
#X connect 0 0 4 0;
#X connect 0 0 5 0;
#X connect 0 0 8 0;
#X connect 0 0 9 0;
#X connect 6 0 10 1;
#X connect 7 0 10 0;
#X connect 8 0 7 0;
#X connect 9 0 6 0;
#X connect 10 0 14 0;
#X connect 10 1 15 0;
#X connect 12 0 10 2;
#X connect 13 0 17 0;
#X connect 13 1 17 1;
#X connect 13 2 17 2;
#X connect 14 0 16 0;
#X connect 15 0 16 1;
#X connect 16 0 13 0;
#X coords 0 -1 1 1 705 415 2 5 5;
