#N canvas 32 25 810 558 12;
#X obj 0 1 cnv 15 1000 1000 empty empty empty 20 12 0 14 -203904 -66577
0;
#X obj 15 100 inlet;
#X msg 15 174 \$1 10;
#X obj 15 198 line~;
#X obj 195 170 inlet;
#X msg 195 194 \$1 10;
#X obj 457 219 inlet;
#X msg 457 243 \$1 10;
#X obj 132 341 osc~;
#X text 165 341 <-- Modulator;
#X obj 132 384 *~;
#X text 157 384 <-- Apply Depth Control;
#X obj 15 431 +~;
#X text 45 431 <-- Add Modulator to the Carrier Frequency;
#X obj 15 456 osc~;
#X text 52 456 <-- Carrier Oscilator;
#X obj 15 530 outlet~;
#X obj 3 3 cnv 15 460 40 empty empty FM_VOICE 20 12 0 20 -233017 -66577
0;
#X text 71 527 <-- Signal Outlet: send sound out to the patch 'above'
;
#X obj 63 197 line;
#X obj 195 218 line;
#X text 246 168 We'll use a multiple of the carrier freq for the mod
frequency so that we can maintain a consistent (tracking) timbre,
f 15;
#X obj 132 314 *;
#X obj 195 241 t b f;
#X text 519 199 We'll do the same for depth: and set it as a multiple
of the carrier freq, f 12;
#X obj 15 121 t f b;
#X obj 652 159 t b b;
#X obj 652 209 del 25;
#X obj 652 429 line~;
#X msg 652 241 0 1200;
#X msg 720 209 0 \, 0.1 25;
#X obj 15 500 *~;
#X text 55 500 <-- Apply Envelope;
#X text 6 41 This is a rehashing of simpleFM~ \, with a midi pitch
input \, and a fixed AR envelope.;
#X obj 63 220 s \$0-carFreq;
#X obj 104 241 r \$0-carFreq;
#X obj 367 297 r \$0-carFreq;
#X obj 457 297 t b f;
#X obj 457 267 line;
#X obj 405 348 *;
#X text 456 199 DEPTH;
#X text 196 150 MOD FREQ MULTIPLIER;
#X text 58 97 <-- MIDI NOTE (also triggers envelope);
#X text 49 147 CARRIER FREQUENCY;
#X text 651 139 AR ENVELOPE;
#X obj 15 147 mtof;
#X connect 1 0 25 0;
#X connect 2 0 3 0;
#X connect 2 0 19 0;
#X connect 3 0 12 0;
#X connect 4 0 5 0;
#X connect 5 0 20 0;
#X connect 6 0 7 0;
#X connect 7 0 38 0;
#X connect 8 0 10 0;
#X connect 10 0 12 1;
#X connect 12 0 14 0;
#X connect 14 0 31 0;
#X connect 19 0 34 0;
#X connect 20 0 23 0;
#X connect 22 0 8 0;
#X connect 23 0 22 0;
#X connect 23 1 22 1;
#X connect 25 0 45 0;
#X connect 25 1 26 0;
#X connect 26 0 27 0;
#X connect 26 1 30 0;
#X connect 27 0 29 0;
#X connect 28 0 31 1;
#X connect 29 0 28 0;
#X connect 30 0 28 0;
#X connect 31 0 16 0;
#X connect 35 0 22 0;
#X connect 36 0 39 0;
#X connect 37 0 39 0;
#X connect 37 1 39 1;
#X connect 38 0 37 0;
#X connect 39 0 10 1;
#X connect 45 0 2 0;
