#N canvas 827 239 527 327 12;
#X obj 139 19 notein;
#X floatatom 139 79 5 0 0 0 empty - - 12;
#X floatatom 179 79 5 0 0 0 empty - - 12;
#X obj 139 139 t b;
#X obj 139 219 *~;
#X obj 237 181 / 127;
#X obj 39 259 *~, f 18;
#X obj 39 299 stereoOut~;
#X obj 179 119 sel 0;
#X obj 139 50 stripnote;
#X obj 139 105 bng 25 250 50 0 empty empty empty 17 7 0 10 #e3dfd9 #5a5a5a #5a5a5a;
#X obj 39 219 noise~;
#X obj 139 179 ar~ 0 40;
#X connect 0 0 9 0 empty;
#X connect 0 1 9 1 empty;
#X connect 1 0 10 0 empty;
#X connect 2 0 8 0 empty;
#X connect 3 0 12 0 empty;
#X connect 4 0 6 1 empty;
#X connect 5 0 4 1 empty;
#X connect 6 0 7 0 empty;
#X connect 6 0 7 1 empty;
#X connect 8 1 5 0 empty;
#X connect 9 0 1 0 empty;
#X connect 9 1 2 0 empty;
#X connect 10 0 3 0 empty;
#X connect 11 0 6 0 empty;
#X connect 12 0 4 0 empty;
