#N canvas 827 239 527 327 12;
#X obj 19 19 pink~;
#X obj 79 19 scope~ 321 261 256 3 128 -1 1 0 0 0 0 90 90 90 227 223 217 150 142 130 0 empty;
#X obj 19 499 stereoOut~;
#X connect 0 0 1 0 empty;
#X connect 0 0 2 0 32.................lC........f4.........vb....;
#X connect 0 0 2 1 32.................EG...DD...PwA...AA...vb....;
