#N canvas 827 239 527 327 12;
#X obj 39 299 scope~ 281 241 12 3 128 -1 1 0 0 0 0 90 90 90 227 223 217 150 142 130 0 empty;
#X obj 39 128 *~ 2;
#X obj 39 157 -~ 1;
#X obj 39 99 pulse~ 220 0.9;
#X obj 39 219 stereoOut~;
#X obj 67 64 hsl 128 17 0 1 0 0 empty empty empty -2 -8 0 10 #e3dfd9 #5a5a5a #5a5a5a 0 1;
#X msg 64 39 0.9;
#X obj 64 19 loadbang;
#X obj 512 19 notein;
#X obj 499 171 adsrUI~;
#X obj 419 128 pulse~ 220 0.9;
#X obj 419 95 mtof;
#X obj 403 422 stereoOut~;
#X obj 403 359 bp~ 100 2;
#X obj 403 390 lop~ 2000 6;
#X obj 379 128 * 3;
#X obj 339 128 * 10;
#X obj 602 95 hsl 128 17 0 1 0 0 empty empty empty -2 -8 0 10 #e3dfd9 #5a5a5a #5a5a5a 0 1;
#X msg 599 70 0.9;
#X obj 599 50 loadbang;
#X connect 1 0 2 0 empty;
#X connect 2 0 4 0 empty;
#X connect 2 0 4 1 empty;
#X connect 3 0 1 0 empty;
#X connect 4 0 0 0 empty;
#X connect 5 0 3 1 empty;
#X connect 6 0 5 0 empty;
#X connect 7 0 6 0 empty;
#X connect 8 0 11 0 empty;
#X connect 8 1 9 1 empty;
#X connect 9 0 13 0 empty;
#X connect 10 0 9 0 empty;
#X connect 11 0 10 0 empty;
#X connect 11 0 15 0 empty;
#X connect 11 0 16 0 empty;
#X connect 12 0 0 0 48.................L....n5+++OC....p9+++mz+++ek9+++I8+++Wo++++S++++;
#X connect 13 0 14 0 empty;
#X connect 14 0 12 0 empty;
#X connect 15 0 13 1 32.................IB...7B...Ph....u....7K....;
#X connect 16 0 14 1 32.................cB...rG...Pm....6A...bN....;
#X connect 17 0 10 1 empty;
#X connect 18 0 17 0 empty;
#X connect 19 0 18 0 empty;
