#N canvas 827 239 527 327 12;
#X obj 39 299 scope~ 281 241 12 3 128 -1 1 0 0 0 0 90 90 90 227 223 217 150 142 130 0 empty;
#X obj 559 19 notein;
#X obj 546 171 adsrUI~;
#X obj 466 128 pulse~ 220 0.9;
#X obj 466 95 mtof;
#X obj 450 422 stereoOut~;
#X obj 450 359 bp~ 100 2;
#X obj 426 128 * 3;
#X obj 386 128 * 10;
#X obj 649 95 hsl 128 17 0 1 0 0 empty empty empty -2 -8 0 10 #e3dfd9 #5a5a5a #5a5a5a 0 1;
#X obj 646 50 loadbang;
#X obj 450 390 lop~ 2000 6;
#X floatatom 939 50 5 0 0 0 empty - - 12;
#X obj 939 77 sel 0;
#X msg 646 70 0.9;
#X obj 1039 50 osc~ 3;
#X obj 1169 50 osc~ 3;
#X obj 1039 111 snapper~ 25;
#X obj 1169 111 snapper~ 25;
#X text 314 18 - Add expression from volume \; - Add lfos;
#X connect 1 0 4 0 empty;
#X connect 1 1 2 1 empty;
#X connect 1 1 12 0 empty;
#X connect 2 0 6 0 empty;
#X connect 3 0 2 0 empty;
#X connect 4 0 3 0 empty;
#X connect 4 0 7 0 empty;
#X connect 4 0 8 0 empty;
#X connect 5 0 0 0 empty;
#X connect 6 0 11 0 empty;
#X connect 7 0 6 1 32.................IB...7B...Ph....u....7K....;
#X connect 8 0 11 1 32.................cB...rG...Pm....6A...bN....;
#X connect 9 0 3 1 empty;
#X connect 10 0 14 0 empty;
#X connect 11 0 5 0 empty;
#X connect 12 0 13 0 empty;
#X connect 14 0 9 0 empty;
#X connect 15 0 17 0 empty;
#X connect 16 0 18 0 empty;
