#N canvas 451 222 450 223 12;
#N canvas 254 22 475 319 noise 0;
#X obj 15 51 noise~;
#X obj 15 106 *~ 0.1;
#X obj 15 289 dac~;
#X obj 30 169 tgl 15 0 empty empty empty 17 7 0 10 #fcfcfc #000000 #000000 0 1;
#X obj 15 201 *~;
#X text 95 49 White Noise: random numbers at signal rate in the range -1 to 1;
#X text 95 102 Here we use *~ to multiply the audio signal \, this acts as a volume control;
#X text 95 165 Toggle UI element: a toggle switch that spits out a 1 (on) or a 0 (off);
#X text 95 197 Here the *~ object is again used to control volume \, but with the toggle connected to the right inlet \, it now works as an off/on switch for the audio;
#X obj 14 18 cnv 15 100 25 empty empty Noise 20 12 0 14 #e0e0e0 #404040 0;
#X text 95 289 Audio output (digital to analog converter);
#X obj 15 252 clip~ -1 1;
#X text 95 253 Constrain signals in case of accidents!;
#X connect 0 0 1 0;
#X connect 1 0 4 0;
#X connect 3 0 4 1;
#X connect 4 0 11 0;
#X connect 11 0 2 0;
#X connect 11 0 2 1;
#X restore 11 41 pd noise;
#N canvas 586 25 551 685 filt 0;
#N canvas 0 22 450 300 (subpatch) 0;
#X array lop 1000 float 0;
#X coords 0 1 999 -1 200 100 1;
#X restore 318 439 graph;
#X obj 180 433 tgl 15 1 empty empty empty 0 -6 0 10 #fcfcfc #000000 #000000 1 1;
#X text 296 526 -1;
#X text 302 481 0;
#X text 302 435 1;
#X obj 180 456 metro 100;
#X obj 22 654 dac~;
#X obj 180 479 tabwrite~ lop;
#X obj 22 243 noise~;
#X obj 22 371 lop~;
#X obj 43 321 mtof;
#X obj 46 270 hsl 128 15 0 127 0 1 empty empty empty -2 -6 0 8 #fcfcfc #000000 #000000 5950 1;
#X text 180 270 Slider sends MIDI note values (0-127).;
#X text 180 241 Generate white noise.;
#X text 179 369 [lop~] allows frequencies below the cutoff frequency to pass and reduces or eliminates frequencies above it.;
#X obj 10 42 cnv 15 380 180 empty empty Graphical\ Depiction\ of\ a\ Low\ Pass\ Filter 20 12 0 14 #c8d4bc #404040 0;
#N canvas 0 22 450 300 (subpatch) 0;
#X array lop_display 6 float 5;
#A 0 0.971422 0.971422 0.971422 -0.16 -0.985712 -0.985712;
#X coords 0 1 5 -1 200 100 1;
#X restore 31 94 graph;
#X text 76 197 Frequency in Hz;
#X text 239 136 Volume of sound passed;
#X text 29 198 0;
#X text 239 181 0;
#X text 239 91 1;
#X text 90 98 ^ cutoff frequency;
#X text 206 198 20k;
#X obj 10 7 cnv 15 170 25 empty empty Low\ Pass\ Filter 20 12 0 14 #e0e0e0 #404040 0;
#X text 316 410 Output of Low Pass Filter;
#X text 179 316 [mtof] converts MIDI notes to frequency in Hertz (cycles per second).;
#X text 180 411 Graph output;
#X text 200 432 on/ff;
#X obj 22 616 *~;
#X obj 92 594 tgl 15 0 empty empty empty 17 7 0 10 #fcfcfc #000000 #000000 0 1;
#X text 178 553 Multiply audio signal: multiplying by less than reuces volume \, more than one increases volume;
#X text 178 591 Turn Audio on/off;
#X text 179 654 Output;
#X floatatom 54 288 5 0 0 0 - - - 0;
#X floatatom 54 340 5 0 0 0 - - - 0;
#X obj 22 557 *~ 0.05;
#X connect 1 0 5 0;
#X connect 5 0 7 0;
#X connect 8 0 9 0;
#X connect 9 0 7 0;
#X connect 9 0 36 0;
#X connect 10 0 9 1;
#X connect 10 0 35 0;
#X connect 11 0 34 0;
#X connect 11 0 10 0;
#X connect 29 0 6 0;
#X connect 29 0 6 1;
#X connect 30 0 29 1;
#X connect 36 0 29 0;
#X restore 11 67 pd filt 1;
#X text 82 66 Low Pass;
#N canvas 526 25 572 673 filt 0;
#X obj 8 45 cnv 15 380 180 empty empty Graphical\ Depiction\ of\ a\ High\ Pass\ Filter 20 12 0 14 #c8d4bc #404040 0;
#N canvas 0 22 450 300 (subpatch) 0;
#X array hip 1000 float 0;
#X coords 0 1 999 -1 200 100 1;
#X restore 307 431 graph;
#X obj 187 418 tgl 15 1 empty empty empty 0 -6 0 10 #fcfcfc #000000 #000000 1 1;
#X text 285 518 -1;
#X text 291 473 0;
#X text 291 427 1;
#X text 185 397 Graph output;
#X obj 187 441 metro 100;
#X obj 23 241 noise~;
#X obj 44 304 mtof;
#X obj 47 281 hsl 128 15 0 127 0 1 empty empty empty -2 -6 0 8 #fcfcfc #000000 #000000 0 1;
#X text 184 304 [mtof] converts MIDI notes to frequency in Hertz.;
#X text 185 280 Slider sends MIDI note values (0-127).;
#X text 184 241 Generate white noise.;
#X text 185 353 [hip~] allows frequencies above the cutoff frequency to pass and reduces or eliminates frequencies below it.;
#X obj 187 465 tabwrite~ hip;
#X obj 23 353 hip~;
#X obj 8 9 cnv 15 200 25 empty empty High\ Pass\ Filter 20 12 0 14 #e0e0e0 #404040 0;
#N canvas 0 22 450 300 (subpatch) 0;
#X array hip_display 6 float 5;
#A 0 -0.9857 -0.9857 -0.9857 0.97142 0.97141 0.97141;
#X coords 0 1 5 -1 200 100 1;
#X restore 29 86 graph;
#X text 74 188 Frequency in Hz;
#X text 244 127 Volume of sound passed;
#X text 27 189 0;
#X text 234 173 0;
#X text 237 83 1;
#X text 194 189 20k;
#X obj 23 648 dac~;
#X obj 23 620 *~;
#X obj 93 598 tgl 15 0 empty empty empty 17 7 0 10 #fcfcfc #000000 #000000 0 1;
#X text 210 417 on/ff;
#X text 304 397 Output of High Pass Filter;
#X text 183 597 Turn audio on/off;
#X text 184 569 Reduce volume;
#X text 183 648 Output;
#X text 39 106 cutoff frequency ^;
#X obj 23 569 *~ 0.05;
#X connect 2 0 7 0;
#X connect 7 0 15 0;
#X connect 8 0 16 0;
#X connect 9 0 16 1;
#X connect 10 0 9 0;
#X connect 16 0 15 0;
#X connect 16 0 34 0;
#X connect 26 0 25 0;
#X connect 26 0 25 1;
#X connect 27 0 26 1;
#X connect 34 0 26 0;
#X restore 11 93 pd filt 2;
#X text 83 93 High Pass;
#N canvas 391 124 558 718 filt 0;
#X obj 10 43 cnv 15 380 180 empty empty Graphical\ Depiction\ of\ a\ Band\ Pass\ Filter 20 12 0 14 #c8d4bc #404040 0;
#N canvas 0 22 450 300 (subpatch) 0;
#X array bp 1000 float 0;
#X coords 0 1 999 -1 200 100 1;
#X restore 309 501 graph;
#X obj 189 488 tgl 15 1 empty empty empty 0 -6 0 10 #fcfcfc #000000 #000000 1 1;
#X text 287 588 -1;
#X text 293 543 0;
#X text 293 497 1;
#X text 187 466 Graph output;
#X obj 189 511 metro 100;
#X obj 22 237 noise~;
#X obj 47 285 mtof;
#X obj 50 267 hsl 128 15 0 127 0 1 empty empty empty -2 -6 0 8 #fcfcfc #000000 #000000 9700 1;
#X text 187 285 [mtof] converts MIDI notes to frequency in Hertz.;
#X text 189 237 Generate white noise.;
#X obj 189 534 tabwrite~ bp;
#X obj 22 418 bp~ 220 1;
#X text 188 414 [bp~] passes the center frequency unchanged \, and reduces or eliminates frequencies above and below it.;
#X obj 73 337 nbx 5 14 2 100 0 1 empty empty empty 0 -6 0 10 #fcfcfc #000000 #000000 78 256;
#X obj 10 7 cnv 15 170 25 empty empty Band\ Pass\ Filter 20 12 0 14 #e0e0e0 #404040 0;
#N canvas 0 22 450 300 (subpatch) 0;
#X array bp_display 7 float 5;
#A 0 -0.9857 -0.9857 -0.9857 1.61426 -0.985712 -0.985712 -0.985704;
#X coords 0 2 6 -1 200 100 1;
#X restore 30 86 graph;
#X text 75 188 Frequency in Hz;
#X text 236 127 Volume of sound passed;
#X text 28 189 0;
#X text 195 189 20 \, 0;
#X text 237 173 0;
#X text 238 83 1;
#X text 22 106 cutoff frequency ^;
#X text 189 265 MIDI slider (0-127).;
#X text 189 333 The third inlet of [bp] controls the Resonance \, i.e. how far above or below the center frequency the filter still allows sound to pass. Generally this number is between 0-10.;
#X obj 22 693 dac~;
#X obj 22 665 *~;
#X obj 92 643 tgl 15 0 empty empty empty 17 7 0 10 #fcfcfc #000000 #000000 0 1;
#X text 182 642 Turn audio on/off;
#X text 183 614 Reduce volume;
#X text 182 693 Output;
#X text 211 487 on/ff;
#X text 304 466 Output of Band Pass Filter;
#X obj 22 614 *~ 0.05;
#X connect 2 0 7 0;
#X connect 7 0 13 0;
#X connect 8 0 14 0;
#X connect 9 0 14 1;
#X connect 10 0 9 0;
#X connect 14 0 13 0;
#X connect 14 0 36 0;
#X connect 16 0 14 2;
#X connect 29 0 28 0;
#X connect 29 0 28 1;
#X connect 30 0 29 1;
#X connect 36 0 29 0;
#X restore 11 119 pd filt 3;
#X text 83 118 Band Pass;
#N canvas 140 151 1142 627 filter 0;
#X obj 68 92 bng 15 250 50 0 empty empty empty 0 -6 0 8 #fcfcfc #000000 #000000;
#X text 8 40 Just as an example of how filters might be used \, here is a random distribution of band-pass filters:;
#X obj 9 13 cnv 15 200 25 empty empty Filter\ Example 20 12 0 14 #e0e0e0 #404040 0;
#X obj 10 206 noise~;
#X obj 68 206 bng 15 250 50 0 empty empty empty 0 -6 0 8 #fcfcfc #000000 #000000;
#X obj 10 553 dac~;
#X obj 10 495 *~;
#X obj 25 473 tgl 15 0 empty empty empty 17 7 0 10 #fcfcfc #000000 #000000 0 1;
#X text 57 473 Turn audio on/off;
#X text 58 444 Reduce volume;
#X text 58 554 Output;
#X text 86 91 This bang triggers a change in sonic 'colour' when clicked;
#X obj 68 229 random 9950;
#X obj 68 248 + 50;
#X obj 10 444 *~ 0.05;
#X obj 550 396 cnv 15 580 220 empty empty There\ are\ 8\ identical\ filters\ contributing\ to\ the\ sound 20 12 0 14 #c8d4bc #404040 0;
#X text 728 436 The bang UI object triggers a random frequency value;
#X text 728 481 +50 shifts the range of possible frequencies up to a minimum of 50 hz;
#X text 728 582 Refer to the previous [pd filt 3] examlple if you need help understanding this further;
#X obj 10 331 bp~ 0 50;
#X obj 10 522 clip~ -1 1;
#X text 78 522 Clip signals;
#X obj 68 287 line;
#X floatatom 68 306 5 0 0 0 - - - 0;
#X obj 572 437 noise~;
#X obj 630 437 bng 15 250 50 0 empty empty empty 0 -6 0 8 #fcfcfc #000000 #000000;
#X obj 630 460 random 9950;
#X obj 630 479 + 50;
#X obj 572 584 bp~ 0 50;
#X obj 630 540 line;
#X floatatom 630 559 5 0 0 0 - - - 0;
#X msg 68 267 \$1 1000;
#X msg 630 520 \$1 1000;
#X text 728 514 The [line] object creates a smooth transition to the new frequency;
#X obj 150 206 noise~;
#X obj 208 206 bng 15 250 50 0 empty empty empty 0 -6 0 8 #fcfcfc #000000 #000000;
#X obj 208 229 random 9950;
#X obj 208 248 + 50;
#X obj 150 331 bp~ 0 50;
#X obj 208 287 line;
#X floatatom 208 306 5 0 0 0 - - - 0;
#X msg 208 267 \$1 1000;
#X obj 290 206 noise~;
#X obj 348 206 bng 15 250 50 0 empty empty empty 0 -6 0 8 #fcfcfc #000000 #000000;
#X obj 348 229 random 9950;
#X obj 348 248 + 50;
#X obj 290 331 bp~ 0 50;
#X obj 348 287 line;
#X floatatom 348 306 5 0 0 0 - - - 0;
#X msg 348 267 \$1 1000;
#X obj 430 206 noise~;
#X obj 488 206 bng 15 250 50 0 empty empty empty 0 -6 0 8 #fcfcfc #000000 #000000;
#X obj 488 229 random 9950;
#X obj 488 248 + 50;
#X obj 430 331 bp~ 0 50;
#X obj 488 287 line;
#X floatatom 488 306 5 0 0 0 - - - 0;
#X msg 488 267 \$1 1000;
#X obj 570 206 noise~;
#X obj 628 206 bng 15 250 50 0 empty empty empty 0 -6 0 8 #fcfcfc #000000 #000000;
#X obj 628 229 random 9950;
#X obj 628 248 + 50;
#X obj 570 331 bp~ 0 50;
#X obj 628 287 line;
#X floatatom 628 306 5 0 0 0 - - - 0;
#X msg 628 267 \$1 1000;
#X obj 710 206 noise~;
#X obj 768 206 bng 15 250 50 0 empty empty empty 0 -6 0 8 #fcfcfc #000000 #000000;
#X obj 768 229 random 9950;
#X obj 768 248 + 50;
#X obj 710 331 bp~ 0 50;
#X obj 768 287 line;
#X floatatom 768 306 5 0 0 0 - - - 0;
#X msg 768 267 \$1 1000;
#X obj 850 206 noise~;
#X obj 908 206 bng 15 250 50 0 empty empty empty 0 -6 0 8 #fcfcfc #000000 #000000;
#X obj 908 229 random 9950;
#X obj 908 248 + 50;
#X obj 850 331 bp~ 0 50;
#X obj 908 287 line;
#X floatatom 908 306 5 0 0 0 - - - 0;
#X msg 908 267 \$1 1000;
#X obj 990 206 noise~;
#X obj 1048 206 bng 15 250 50 0 empty empty empty 0 -6 0 8 #fcfcfc #000000 #000000;
#X obj 1048 229 random 9950;
#X obj 1048 248 + 50;
#X obj 990 331 bp~ 0 50;
#X obj 1048 287 line;
#X floatatom 1048 306 5 0 0 0 - - - 0;
#X msg 1048 267 \$1 1000;
#X connect 0 0 4 0;
#X connect 0 0 35 0;
#X connect 0 0 43 0;
#X connect 0 0 51 0;
#X connect 0 0 59 0;
#X connect 0 0 67 0;
#X connect 0 0 75 0;
#X connect 0 0 83 0;
#X connect 3 0 19 0;
#X connect 4 0 12 0;
#X connect 6 0 20 0;
#X connect 7 0 6 1;
#X connect 12 0 13 0;
#X connect 13 0 31 0;
#X connect 14 0 6 0;
#X connect 19 0 14 0;
#X connect 20 0 5 1;
#X connect 20 0 5 0;
#X connect 22 0 23 0;
#X connect 23 0 19 1;
#X connect 24 0 28 0;
#X connect 25 0 26 0;
#X connect 26 0 27 0;
#X connect 27 0 32 0;
#X connect 29 0 30 0;
#X connect 30 0 28 1;
#X connect 31 0 22 0;
#X connect 32 0 29 0;
#X connect 34 0 38 0;
#X connect 35 0 36 0;
#X connect 36 0 37 0;
#X connect 37 0 41 0;
#X connect 38 0 14 0;
#X connect 39 0 40 0;
#X connect 40 0 38 1;
#X connect 41 0 39 0;
#X connect 42 0 46 0;
#X connect 43 0 44 0;
#X connect 44 0 45 0;
#X connect 45 0 49 0;
#X connect 46 0 14 0;
#X connect 47 0 48 0;
#X connect 48 0 46 1;
#X connect 49 0 47 0;
#X connect 50 0 54 0;
#X connect 51 0 52 0;
#X connect 52 0 53 0;
#X connect 53 0 57 0;
#X connect 54 0 14 0;
#X connect 55 0 56 0;
#X connect 56 0 54 1;
#X connect 57 0 55 0;
#X connect 58 0 62 0;
#X connect 59 0 60 0;
#X connect 60 0 61 0;
#X connect 61 0 65 0;
#X connect 62 0 14 0;
#X connect 63 0 64 0;
#X connect 64 0 62 1;
#X connect 65 0 63 0;
#X connect 66 0 70 0;
#X connect 67 0 68 0;
#X connect 68 0 69 0;
#X connect 69 0 73 0;
#X connect 70 0 14 0;
#X connect 71 0 72 0;
#X connect 72 0 70 1;
#X connect 73 0 71 0;
#X connect 74 0 78 0;
#X connect 75 0 76 0;
#X connect 76 0 77 0;
#X connect 77 0 81 0;
#X connect 78 0 14 0;
#X connect 79 0 80 0;
#X connect 80 0 78 1;
#X connect 81 0 79 0;
#X connect 82 0 86 0;
#X connect 83 0 84 0;
#X connect 84 0 85 0;
#X connect 85 0 89 0;
#X connect 86 0 14 0;
#X connect 87 0 88 0;
#X connect 88 0 86 1;
#X connect 89 0 87 0;
#X restore 11 145 pd filter colours;
#X text 141 143 An example of how filters might be used \, here is a random distribution of band-pass filters:, f 31;
#X obj 9 6 cnv 15 200 25 empty empty 2.4:\ Filter\ Examples 20 12 0 14 #dcdcdc #404040 0;
