#N canvas 162 126 919 535 12;
#X obj 428 159 cnv 15 210 200 empty empty Attack-Release_Envelope 20 12 0 14 #dcecc8 #404040 0;
#X obj 208 179 cnv 15 210 80 empty empty Sound_Source 20 12 0 14 #c8cce0 #404040 0;
#X obj 208 269 cnv 15 210 90 empty empty _Low_pass_filter 20 12 0 14 #e4c0d8 #404040 0;
#X obj 428 91 cnv 15 100 60 empty empty Trigger 20 12 0 14 #e8b0ac #404040 0;
#X obj 208 367 cnv 15 300 140 empty empty _Apply_envelope_&_output 20 12 0 14 #dcdc90 #404040 0;
#X text 10 51 We can put the elements from this lab together to make percussive sounds using subtractive synthesis.;
#X obj 447 224 t b b;
#X obj 496 201 nbx 5 14 10 1000 0 0 empty empty Attack 0 -8 0 10 #fcfcfc #000000 #000000 0 256;
#X obj 566 201 nbx 5 14 10 1000 0 0 empty empty release 0 -8 0 10 #fcfcfc #000000 #000000 0 256;
#X obj 518 252 del;
#X msg 481 316 1 \$1;
#X msg 551 316 0 \$1;
#X obj 481 285 f;
#X obj 551 284 f;
#X text 640 200 <--- set A-R durations;
#X text 640 220 <--- order two bangs;
#X text 640 250 <--- delay until attack;
#X text 670 263 ramp is done;
#X text 640 283 <--- A-R durations are stored;
#X text 670 293 here;
#X text 640 313 <--- When triggered \, send;
#X text 670 325 target-duration pairs;
#X text 670 338 to [line~];
#X obj 531 339 line~;
#X obj 226 211 noise~;
#X obj 226 231 *~ 0.1;
#X obj 227 337 lop~;
#X obj 248 315 nbx 5 14 20 15000 0 0 empty empty LoP_Cutoff_Freq 0 -8 0 10 #fcfcfc #000000 #000000 0 256;
#X obj 434 115 bng 30 250 50 0 empty empty empty 17 7 0 40 #fcfcfc #000000 #000000;
#X text 529 121 <--- bang;
#X obj 227 451 clip~ -1 1;
#X obj 227 481 dac~;
#X obj 227 429 *~;
#X text 9 313 set filter cutoff frequency --->;
#X text 15 428 multiply noise by envelope --->;
#X text 44 450 clip and output audio --->;
#X text 93 230 reduce volume --->;
#X text 91 210 white noise--->;
#X obj 6 6 cnv 15 899 40 empty empty 2.5\ -\ Putting\ things\ together:\ Making\ a\ percussive\ sound 20 12 0 20 #e0e0e0 #404040 0;
#X connect 6 0 12 0;
#X connect 6 1 9 0;
#X connect 7 0 9 1;
#X connect 7 0 12 1;
#X connect 8 0 13 1;
#X connect 9 0 13 0;
#X connect 10 0 23 0;
#X connect 11 0 23 0;
#X connect 12 0 10 0;
#X connect 13 0 11 0;
#X connect 23 0 32 1;
#X connect 24 0 25 0;
#X connect 25 0 26 0;
#X connect 26 0 32 0;
#X connect 27 0 26 1;
#X connect 28 0 6 0;
#X connect 30 0 31 0;
#X connect 30 0 31 1;
#X connect 32 0 30 0;
