#N canvas 103 138 926 694 12;
#X obj 5 5 cnv 15 899 40 empty empty Lab\ 2.7\ -\ Make\ a\ Subtractive\ Synth 20 12 0 20 #e0e0e0 #404040 0;
#X obj 6 98 cnv 15 133 71 empty empty Sound_Source 20 12 0 14 #c8cce0 #404040 0;
#X text 26 129 [noise~];
#X obj 145 98 cnv 15 105 110 empty empty Filters 20 12 0 14 #e4c0d8 #404040 0;
#X text 165 133 [hip~];
#X text 165 158 [lop~];
#X text 165 183 [bp~];
#X obj 256 98 cnv 15 359 138 empty empty Envelope\ /\ output 20 12 0 14 #dcdc90 #404040 0;
#X text 277 135 [nameOfYourARAbstraction~];
#X text 5 51 Have a play around with what we've covered in this Lab \, and see what percussive sounds you can create from white noise ([noise~]). Use the 2.4 subpatch example to help you if you need a template for putting things together., f 116;
#X text 277 160 [ar~] <- this is in the abstraction library, f 26;
#X text 277 198 [arUI~] <- visual version of ar~ from the library, f 26;
#X text 460 135 [output~];
