#N canvas 661 -984 860 911 12;
#X obj 85 719 vline~;
#X obj 85 802 tabread4~;
#X obj 215 768 vline~;
#X obj 177 832 *~;
#X text 291 4 Speed;
#X text 183 4 Dur (ms);
#X text 93 4 Start (0-1);
#X obj 574 29 inlet;
#X text 573 4 Buffer Name;
#X obj 490 151 array size;
#X obj 177 856 outlet~;
#X obj 490 128 t b s;
#X obj 490 175 s \$0-bufSize;
#X obj 639 855 outlet;
#X obj 93 28 inlet;
#X obj 184 28 inlet;
#X obj 21 30 inlet;
#X text 15 3 Trigger;
#X obj 53 145 s \$0-trig;
#X obj 639 766 r \$0-trig;
#X obj 199 54 s \$0-dur;
#X obj 709 766 r \$0-dur;
#X obj 639 790 del;
#X text 690 855 bang when done;
#X text 96 855 Grain out;
#X obj 291 28 inlet;
#X obj 13 359 f;
#X obj 73 359 f;
#X obj 233 359 f;
#X obj 233 383 > 0;
#X obj 13 389 pack, f 9;
#X msg 273 407 1 \$1;
#X obj 273 432 -;
#X obj 13 456 spigot;
#X obj 131 456 spigot;
#X obj 91 509 +;
#X obj 208 509 -;
#X obj 13 509 unpack f f;
#X obj 131 509 unpack f f;
#X obj 86 628 pack f f f;
#N canvas 515 252 251 206 ms2samps 0;
#X obj 94 19 r pd-dsp-started;
#X obj 94 43 samplerate~;
#X obj 94 107 t b f;
#X obj 95 143 *;
#X obj 30 17 inlet;
#X obj 94 176 outlet;
#X obj 94 70 / 1000;
#X connect 0 0 1 0;
#X connect 1 0 6 0;
#X connect 2 0 3 0;
#X connect 2 1 3 1;
#X connect 3 0 5 0;
#X connect 4 0 3 0;
#X connect 6 0 2 0;
#X restore 183 264 pd ms2samps;
#X f 8;
#N canvas 515 252 216 211 bufRange 0;
#X obj 95 143 *;
#X obj 30 17 inlet;
#X obj 94 176 outlet;
#X obj 95 42 t b f;
#X obj 95 18 r \$0-bufSize;
#X connect 0 0 2 0;
#X connect 1 0 0 0;
#X connect 3 0 0 0;
#X connect 3 1 0 1;
#X connect 4 0 3 0;
#X restore 93 306 pd bufRange;
#X obj 184 236 *;
#X obj 219 178 t b f;
#X msg 85 672 \$1 \, \$2 \$3;
#X obj 215 711 - 20;
#X msg 215 735 1 20 \, 0 20 \$1;
#X obj 295 589 f;
#X obj 216 212 abs;
#X obj 363 360 f;
#X obj 13 306 t b b b b;
#X obj 13 280 r \$0-trig;
#X obj 295 567 r \$0-trig;
#X obj 365 567 r \$0-dur;
#X obj 381 336 r \$0-dur;
#X obj 610 175 s \$0-setBuf;
#X obj 1 719 r \$0-setBuf;
#X obj 21 83 sel 0;
#X obj 21 168 s \$0-stop;
#X obj 53 115 t b;
#X obj 321 710 r \$0-stop;
#X msg 321 735 0 20;
#X obj 11 632 r \$0-stop;
#X obj 11 653 del 20;
#X msg 11 677 stop;
#X msg 490 105 symbol \$1-array;
#X msg 610 105 set \$1-array;
#X obj 1 743 print;
#X obj 714 29 inlet;
#X obj 734 251 loadbang;
#X obj 714 275 f 0;
#X text 713 4 Window-Mode 0/1;
#X text 501 256 Default window mode is 0: 20ms fade. Otherwise \, 1
gives a sine envelope, f 23;
#X obj 215 688 spigot;
#X obj 254 667 == 0;
#X obj 399 690 spigot;
#X obj 399 735 vline~;
#X obj 399 766 cos~;
#X msg 399 713 0.75 \, 1.25 \$1;
#X obj 438 667 == 1;
#X obj 714 300 s \$0-windowSel;
#X obj 313 800 +~;
#X obj 427 567 r \$0-windowSel;
#X connect 0 0 1 0;
#X connect 1 0 3 0;
#X connect 2 0 81 0;
#X connect 3 0 10 0;
#X connect 7 0 65 0;
#X connect 7 0 66 0;
#X connect 9 0 12 0;
#X connect 11 0 9 0;
#X connect 11 1 9 1;
#X connect 14 0 41 0;
#X connect 15 0 20 0;
#X connect 15 0 42 0;
#X connect 16 0 57 0;
#X connect 19 0 22 0;
#X connect 21 0 22 1;
#X connect 22 0 13 0;
#X connect 25 0 43 0;
#X connect 26 0 30 0;
#X connect 27 0 30 1;
#X connect 28 0 29 0;
#X connect 29 0 31 0;
#X connect 29 0 33 1;
#X connect 30 0 33 0;
#X connect 30 0 34 0;
#X connect 31 0 32 0;
#X connect 32 0 34 1;
#X connect 33 0 35 0;
#X connect 33 0 37 0;
#X connect 34 0 36 0;
#X connect 34 0 38 0;
#X connect 35 0 39 1;
#X connect 36 0 39 1;
#X connect 37 0 39 0;
#X connect 38 0 39 0;
#X connect 39 0 44 0;
#X connect 40 0 27 1;
#X connect 41 0 26 1;
#X connect 42 0 40 0;
#X connect 43 0 42 0;
#X connect 43 1 28 1;
#X connect 43 1 48 0;
#X connect 44 0 0 0;
#X connect 45 0 46 0;
#X connect 46 0 2 0;
#X connect 47 0 73 0;
#X connect 47 0 75 0;
#X connect 48 0 42 1;
#X connect 49 0 39 2;
#X connect 50 0 26 0;
#X connect 50 1 27 0;
#X connect 50 2 28 0;
#X connect 50 3 49 0;
#X connect 51 0 50 0;
#X connect 52 0 47 0;
#X connect 53 0 47 1;
#X connect 54 0 49 1;
#X connect 56 0 1 0;
#X connect 56 0 67 0;
#X connect 57 0 58 0;
#X connect 57 1 59 0;
#X connect 59 0 18 0;
#X connect 60 0 61 0;
#X connect 61 0 2 0;
#X connect 62 0 63 0;
#X connect 63 0 64 0;
#X connect 64 0 0 0;
#X connect 65 0 11 0;
#X connect 66 0 55 0;
#X connect 68 0 70 0;
#X connect 69 0 70 0;
#X connect 70 0 80 0;
#X connect 73 0 45 0;
#X connect 74 0 73 1;
#X connect 75 0 78 0;
#X connect 76 0 77 0;
#X connect 77 0 81 1;
#X connect 78 0 76 0;
#X connect 79 0 75 1;
#X connect 81 0 3 1;
#X connect 82 0 79 0;
#X connect 82 0 74 0;
