#N canvas 275 156 980 601 12;
#X obj 0 -3 cnv 15 2000 2000 empty empty empty 20 12 0 14 -203904 -66577
0;
#X obj 2 46 cnv 15 120 60 empty empty 1/... 10 10 0 12 -233017 -99865
0;
#X obj 718 22 inlet;
#X text 763 21 <- set bpm;
#X obj 519 22 inlet;
#X text 559 21 <- on/off;
#X obj 643 22 loadbang;
#X obj 643 44 f \$1;
#X obj 563 198 expr 60000/($f1*8);
#X obj 344 299 f;
#X obj 385 299 + 1;
#X obj 531 222 metro;
#X obj 162 359 % 32;
#X obj 162 382 sel 0;
#X obj 172 406 outlet;
#X obj 239 382 sel 0;
#X obj 249 406 outlet;
#X obj 309 382 sel 0;
#X obj 319 406 outlet;
#X obj 399 382 sel 0;
#X obj 409 406 outlet;
#X obj 461 382 sel 0;
#X obj 471 406 outlet;
#X obj 239 359 % 16;
#X obj 309 359 % 8;
#X obj 399 359 % 4;
#X obj 461 359 % 2;
#X obj 541 406 outlet;
#X floatatom 10 25 5 0 0 1 BPM #0-setBPMdisplay #0-bpm;
#X obj 718 105 s \$0-setBPMdisplay;
#X obj 519 104 s \$0-setOnOffDisplay;
#X obj 9 4 tgl 15 0 \$0-onOff \$0-setOnOffDisplay empty 17 7 0 10 -262144
-1 -1 0 1;
#X obj 563 170 r \$0-bpm;
#X obj 484 170 r \$0-onOff;
#X obj 162 451 s \$0-whole;
#X obj 239 451 s \$0-half;
#X obj 309 451 s \$0-quarter;
#X obj 399 451 s \$0-8th;
#X obj 461 451 s \$0-16th;
#X obj 531 451 s \$0-32nd;
#X obj 10 80 bng 15 250 50 0 empty \$0-whole empty 17 7 0 10 -262144
-1 -1;
#X obj 28 80 bng 15 250 50 0 empty \$0-half empty 17 7 0 10 -262144
-1 -1;
#X obj 46 80 bng 15 250 50 0 empty \$0-quarter empty 17 7 0 10 -262144
-1 -1;
#X obj 64 80 bng 15 250 50 0 empty \$0-8th empty 17 7 0 10 -262144
-1 -1;
#X obj 82 80 bng 15 250 50 0 empty \$0-16th empty 17 7 0 10 -262144
-1 -1;
#X obj 100 80 bng 15 250 50 0 empty \$0-32nd empty 17 7 0 10 -262144
-1 -1;
#X text 12 62 1;
#X text 30 62 2;
#X text 48 62 4;
#X text 66 62 8;
#X text 80 62 16;
#X text 99 62 32;
#X text 28 2 Start/Stop;
#X obj 362 223 sel 0;
#X msg 362 246 0;
#X text 701 198 <- BPM -> ms \, but also adjusted to tick at 32nd note
intervals, f 23;
#X text 524 358 <- % gives the whole number remainder from a division
;
#X text 611 379 <- sel 0 detects when we hit a devision with no remainder
\, this allows us to thin out our 32nd note pulse into longer beats
in multiples of 2, f 34;
#X text 19 237 Always restart from the beginning of a cycle ->;
#X connect 2 0 29 0;
#X connect 4 0 30 0;
#X connect 6 0 7 0;
#X connect 7 0 29 0;
#X connect 8 0 11 1;
#X connect 9 0 10 0;
#X connect 9 0 12 0;
#X connect 9 0 23 0;
#X connect 9 0 24 0;
#X connect 9 0 25 0;
#X connect 9 0 26 0;
#X connect 10 0 9 1;
#X connect 11 0 9 0;
#X connect 11 0 27 0;
#X connect 11 0 39 0;
#X connect 12 0 13 0;
#X connect 13 0 14 0;
#X connect 13 0 34 0;
#X connect 15 0 16 0;
#X connect 15 0 35 0;
#X connect 17 0 18 0;
#X connect 17 0 36 0;
#X connect 19 0 20 0;
#X connect 19 0 37 0;
#X connect 21 0 22 0;
#X connect 21 0 38 0;
#X connect 23 0 15 0;
#X connect 24 0 17 0;
#X connect 25 0 19 0;
#X connect 26 0 21 0;
#X connect 32 0 8 0;
#X connect 33 0 11 0;
#X connect 33 0 53 0;
#X connect 53 0 54 0;
#X connect 54 0 9 1;
#X coords 0 -1 1 1 125 110 2 0 0;
