#N canvas 490 84 568 570 12;
#X obj 3 3 cnv 15 555 60 empty empty waveSelect~ 20 12 0 20 -233017
-66577 0;
#X text 21 34 oscilator with a selection of waveforms;
#X obj 198 308 square~;
#X obj 278 308 triangle~;
#X obj 357 308 saw~;
#X obj 126 308 osc~;
#X obj 2 82 cnv 15 110 105 empty empty empty 20 12 0 14 -233017 -66577
0;
#X obj 5 85 vradio 25 1 0 4 \$0-waveSel \$0-setWave empty 0 -8 0 10
-191407 -1 -1 0;
#X text 45 87 SINE;
#X text 45 139 TRIANGLE;
#X text 45 113 SQUARE;
#X text 45 165 SAW;
#X obj 26 332 r \$0-waveSel;
#X text 125 84 FREQUENCY (Hz);
#X obj 237 106 inlet;
#X text 235 83 WAVE SEL (0-3);
#X obj 377 106 inlet;
#X text 375 83 RESET PHASE (bang);
#X obj 146 376 == 0;
#X obj 216 376 == 1;
#X obj 296 376 == 2;
#X obj 376 376 == 3;
#X obj 128 440 *~;
#X obj 198 440 *~;
#X obj 278 440 *~;
#X obj 358 440 *~;
#X obj 237 169 s \$0-setWave;
#X obj 129 521 outlet~;
#X obj 286 106 loadbang;
#X msg 286 130 0;
#X obj 127 107 inlet~;
#X connect 2 0 23 0;
#X connect 3 0 24 0;
#X connect 4 0 25 0;
#X connect 5 0 22 0;
#X connect 12 0 18 0;
#X connect 12 0 19 0;
#X connect 12 0 20 0;
#X connect 12 0 21 0;
#X connect 14 0 26 0;
#X connect 16 0 3 1;
#X connect 16 0 2 1;
#X connect 18 0 22 1;
#X connect 19 0 23 1;
#X connect 20 0 24 1;
#X connect 21 0 25 1;
#X connect 22 0 27 0;
#X connect 23 0 27 0;
#X connect 24 0 27 0;
#X connect 25 0 27 0;
#X connect 28 0 29 0;
#X connect 29 0 26 0;
#X connect 30 0 5 0;
#X connect 30 0 2 0;
#X connect 30 0 3 0;
#X connect 30 0 4 0;
#X coords 0 -1 1 1 115 110 2 0 80;
