#N canvas 621 110 519 334 12;
#X obj -8 -9 cnv 15 1000 1000 empty empty empty 20 12 0 14 -203904
-66577 0;
#X obj 7 41 inlet;
#X obj 7 10 cnv 15 320 25 empty empty 5_Partial_Triangle_Wave 20 12
0 14 -228856 -66577 0;
#X obj 7 165 osc~;
#X text 47 41 freq;
#X obj 337 76 inlet;
#X text 377 76 reset phase;
#X obj 24 70 loadbang;
#X obj 7 97 f \$1;
#X obj 67 165 osc~;
#X obj 137 165 osc~;
#X obj 207 165 osc~;
#X obj 277 165 osc~;
#X obj 67 136 *~ 3;
#X obj 137 136 *~ 5;
#X obj 207 136 *~ 7;
#X obj 277 136 *~ 9;
#X obj 367 112 loadbang;
#X text 41 96 <---creation argument;
#X obj 67 198 *~ 0.111;
#X obj 137 198 *~ 0.04;
#X msg 337 140 0;
#X obj 207 198 *~ 0.02;
#X obj 277 198 *~ 0.012;
#X obj 7 275 outlet~;
#X obj 7 251 *~ 0.84;
#X connect 1 0 8 0;
#X connect 3 0 25 0;
#X connect 5 0 21 0;
#X connect 7 0 8 0;
#X connect 8 0 3 0;
#X connect 8 0 13 0;
#X connect 8 0 14 0;
#X connect 8 0 15 0;
#X connect 8 0 16 0;
#X connect 9 0 19 0;
#X connect 10 0 20 0;
#X connect 11 0 22 0;
#X connect 12 0 23 0;
#X connect 13 0 9 0;
#X connect 14 0 10 0;
#X connect 15 0 11 0;
#X connect 16 0 12 0;
#X connect 17 0 21 0;
#X connect 19 0 25 0;
#X connect 20 0 25 0;
#X connect 21 0 12 1;
#X connect 21 0 11 1;
#X connect 21 0 10 1;
#X connect 21 0 9 1;
#X connect 21 0 3 1;
#X connect 22 0 25 0;
#X connect 23 0 25 0;
#X connect 25 0 24 0;
