#N canvas 250 30 567 818 12;
#X obj 4 5 cnv 15 400 25 empty empty 8.1:\ User\ Interfaces\ &\ Hidden\ send/receives 20 12 0 14 #dcdcdc #404040 0;
#X obj 24 126 bng 19 250 50 0 empty empty empty 0 -10 0 12 #fcfcfc #000000 #000000;
#X obj 60 126 tgl 19 0 empty empty empty 0 -10 0 12 #fcfcfc #000000 #000000 0 1;
#X text 21 44 Now that we're thinking about making our own synths \, we'll also need to go deeper into setting up controls. Pd has several GUI (Graphical User Interface) objects you can use. Spend a moment exploring any that you've not used yet.;
#X obj 99 128 vsl 19 162 0 127 0 0 empty empty empty 0 -9 0 12 #fcfcfc #000000 #000000 0 1;
#X obj 181 126 hsl 162 19 0 127 0 0 empty empty empty -2 -10 0 12 #fcfcfc #000000 #000000 0 1;
#X obj 138 126 vradio 19 1 0 8 empty empty empty 0 -10 0 12 #fcfcfc #000000 #000000 0;
#X obj 178 163 hradio 19 1 0 8 empty empty empty 0 -10 0 12 #fcfcfc #000000 #000000 0;
#X obj 377 126 vu 19 200 empty empty -1 -10 0 12 #404040 #000000 1 0;
#X obj 179 205 cnv 19 126 76 empty empty empty 20 12 0 12 #e0e0e0 #404040 0;
#X text 19 337 All of these are accessible through the put menu \, and have their own shortcuts too.;
#X floatatom 24 161 5 0 0 0 - - - 0;
#X obj 25 191 nbx 5 17 -1e+37 1e+37 0 0 empty empty empty 0 -10 0 12 #fcfcfc #000000 #000000 0 256;
#N canvas 990 387 450 300 I'm-pretending-to-be-a-complicated-patch 1;
#X obj 20 21 inlet;
#X obj 79 21 inlet;
#X obj 139 21 inlet;
#X obj 13 182 outlet~;
#X obj 71 160 outlet;
#X obj 121 160 outlet;
#X obj 171 160 outlet;
#X connect 0 0 4 0 empty;
#X connect 1 0 5 0 empty;
#X connect 2 0 6 0 empty;
#X restore 25 675 pd I'm-pretending-to-be-a-complicated-patch;
#X obj 26 652 r \$0-numberBox;
#X obj 174 652 r \$0-bang;
#X obj 323 652 r \$0-slider;
#X obj 16 502 cnv 19 300 76 empty empty My\ Shiny\ Patch 65 20 1 24 #ffe3c6 #404040 0;
#X obj 113 543 hsl 162 19 0 127 0 0 \$0-slider empty empty -2 -10 0 12 #fcfcfc #000000 #000000 0 1;
#X obj 87 543 bng 19 250 50 0 \$0-bang empty empty 0 -10 0 12 #fcfcfc #000000 #000000;
#X floatatom 45 543 5 0 0 0 - \$0-setNumberBox \$0-numberBox 0;
#X text 20 405 GUI objects have implicit sends and receives hidden away in their preferences menu. This can be a handy way to separate out the controls from the 'guts' of a patch \, and keep things tidy.;
#X floatatom 124 701 5 0 0 0 - - - 0;
#X floatatom 323 701 5 0 0 0 - - - 0;
#X obj 223 698 bng 19 250 50 0 empty empty empty 0 -10 0 12 #fcfcfc #000000 #000000;
#X obj 323 724 s \$0-setNumberBox;
#X text 23 591 If you open the preferences for any of the GUI objects above \, you'll see how they link in with the receives below without us having to explicitly make those objects.;
#X obj 25 759 stereoOut~;
#X connect 13 0 27 0 empty;
#X connect 13 0 27 1 empty;
#X connect 13 1 22 0 empty;
#X connect 13 2 24 0 empty;
#X connect 13 3 23 0 empty;
#X connect 14 0 13 0 empty;
#X connect 15 0 13 1 empty;
#X connect 16 0 13 2 empty;
#X connect 23 0 25 0 empty;
