#N canvas 273 -950 1526 902 12;
#X obj 2 7 cnv 15 1113 25 empty empty 8.2:\ Better\ Polyphonic\ FM\ Synth 20 12 0 14 #dcdcdc #404040 0;
#X obj 632 89 hsl 107 37 0.01 20 1 1 empty empty Modulator\ Ratio -2 -8 0 10 #fcfcfc #000000 #000000 5300 1;
#X obj 748 89 hsl 107 37 0.1 10000 1 1 empty empty Modulator\ Depth -2 -8 0 10 #fcfcfc #000000 #000000 5720 1;
#X obj 899 89 hsl 107 37 10 1000 1 1 empty empty Attack -2 -8 0 10 #fcfcfc #000000 #000000 2300 1;
#X obj 1248 89 hsl 103 37 0.001 10000 1 1 empty empty Release -2 -8 0 10 #fcfcfc #000000 #000000 8200 1;
#X obj 457 77 notein;
#X obj 457 107 poly2clone 16 1;
#X obj 1016 89 hsl 107 37 10 1000 1 1 empty empty Decay -2 -8 0 10 #fcfcfc #000000 #000000 1200 1;
#X obj 1132 89 hsl 107 37 0.01 1 1 1 empty empty Sustain -2 -8 0 10 #fcfcfc #000000 #000000 9500 1;
#X obj 629 131 s \$0-modR;
#X obj 745 131 s \$0-modD;
#X obj 896 131 s \$0-a;
#X obj 1013 131 s \$0-d;
#X obj 1129 131 s \$0-s;
#X obj 1245 131 s \$0-r;
#X obj 482 200 cloneReceive \$0-modR;
#X obj 499 221 cloneReceive \$0-modD;
#X obj 521 242 cloneReceive \$0-a;
#X obj 545 263 cloneReceive \$0-d;
#X obj 566 284 cloneReceive \$0-s;
#X obj 587 305 cloneReceive \$0-r;
#X obj 457 332 clone voice-FMADSR~ 16;
#X text 21 36 We should have finished the previous lab with something that looks like this:, f 112;
#X text 20 76 At the moment \, the GUI Elements are spread around the patch and not that neat. Lets consolidate them all in one place \, and 'hide' the sends into the preference settings of the sliders.;
#X obj 457 380 stereoOut~;
#X connect 1 0 9 0;
#X connect 2 0 10 0;
#X connect 3 0 11 0;
#X connect 4 0 14 0;
#X connect 5 0 6 0;
#X connect 5 1 6 1;
#X connect 6 0 21 0;
#X connect 7 0 12 0;
#X connect 8 0 13 0;
#X connect 15 0 21 1;
#X connect 16 0 21 2;
#X connect 17 0 21 3;
#X connect 18 0 21 4;
#X connect 19 0 21 5;
#X connect 20 0 21 6;
#X connect 21 0 24 0;
#X connect 21 0 24 1;
