#N canvas 827 239 527 327 12;
#X obj 30 29 cnv 15 944 316 empty empty DRUM\ SEQ 331 38 0 50 #968e82 #ffffff 0;
#X obj 36 43 stepper;
#X obj 36 119 seq8;
#X obj 392 119 seq8 8;
#X obj 1049 153 simpleHat~;
#X obj 745 131 stereoOut~;
#X obj 745 202 stereoOut~;
#X obj 1049 254 simpleSnare~;
#X obj 745 274 stereoOut~;
#X obj 1049 332 FMKick~;
#X obj 36 190 seq8;
#X obj 392 190 seq8 8;
#X obj 39 262 seq8;
#X obj 392 262 seq8 8;
#X connect 1 0 2 0 empty;
#X connect 2 0 4 0 empty;
#X connect 2 1 3 0 empty;
#X connect 2 1 10 0 empty;
#X connect 3 0 4 0 empty;
#X connect 4 0 5 0 empty;
#X connect 4 0 5 1 empty;
#X connect 7 0 6 0 empty;
#X connect 7 0 6 1 empty;
#X connect 9 0 8 0 empty;
#X connect 9 0 8 1 empty;
#X connect 10 0 7 0 empty;
#X connect 10 1 11 0 empty;
#X connect 10 1 12 0 empty;
#X connect 11 0 7 0 empty;
#X connect 12 0 9 0 empty;
#X connect 12 1 13 0 empty;
#X connect 13 0 9 0 empty;
#X coords 0 0 1 1 949 322 2 29 27;
