#N canvas 827 239 527 327 12;
#X obj 19 19 notein;
#X obj 19 48 stripnote;
#X obj 19 99 mtof;
#X obj 19 139 s freq;
#X obj 79 139 s note;
#X obj 179 39 s vel;
#X obj 147 139 s trig;
#X obj 19 199 r freq;
#X obj 19 219 sig~;
#X obj 19 279 +~;
#X obj 127 199 osc~ 3;
#X obj 127 239 *~;
#X obj 219 199 r freq;
#X obj 219 228 * 0.01;
#X obj 127 279 *~;
#X obj 219 279 r exprEnv;
#X obj 19 359 waveSelUI~;
#X obj 19 539 bp~ 800 1;
#X obj 139 362 r freq;
#X obj 139 439 * 2;
#X obj 201 319 r vel;
#X obj 201 399 map 20 127 0.25 4;
#X obj 355 365 r exprEnv;
#X obj 355 439 t b f;
#X obj 355 399 map 0 1 0.5 1;
#X obj 139 479 * 1, f 36;
#X obj 19 759 adsrUI~;
#X obj 131 579 r vel;
#X obj 131 679 map 0 127 0 1 2;
#X obj 19 719 *~, f 19;
#X obj 19 632 *~;
#X obj 409 519 osc~ 3;
#X obj 409 544 *~ 0.15;
#X obj 409 569 *~;
#X obj 469 544 r exprEnv;
#X obj 616 332 adsrUI~;
#X obj 643 279 r vel;
#X obj 752 548 line;
#X obj 752 599 s exprEnv;
#X obj 17 919 stereoOut~;
#X obj -101 319 loadbang 1;
#X obj 147 79 t b;
#X obj 409 599 expr~ (1-$v1);
#X obj 139 639 sel 0;
#X obj 201 359 sel 0;
#X obj 919 228 ctlin;
#X obj 919 279 pack;
#X obj 919 332 route 60 61;
#X floatatom 923 379 5 0 0 0 empty - - 12;
#X floatatom 979 379 5 0 0 0 empty - - 12;
#X msg 752 523 \$1 100;
#X obj 752 499 snapper~ 5;
#X connect 0 0 1 0 empty;
#X connect 0 1 1 1 empty;
#X connect 0 1 5 0 empty;
#X connect 1 0 2 0 empty;
#X connect 1 0 4 0 empty;
#X connect 1 1 41 0 empty;
#X connect 2 0 3 0 empty;
#X connect 7 0 8 0 empty;
#X connect 8 0 9 0 empty;
#X connect 9 0 16 0 empty;
#X connect 10 0 11 0 empty;
#X connect 11 0 14 0 empty;
#X connect 12 0 13 0 empty;
#X connect 13 0 11 1 empty;
#X connect 14 0 9 1 empty;
#X connect 15 0 14 1 empty;
#X connect 16 0 17 0 empty;
#X connect 17 0 30 0 empty;
#X connect 18 0 19 0 empty;
#X connect 19 0 25 0 empty;
#X connect 20 0 44 0 empty;
#X connect 21 0 19 1 empty;
#X connect 22 0 24 0 empty;
#X connect 23 0 25 0 empty;
#X connect 23 1 25 1 empty;
#X connect 24 0 23 0 empty;
#X connect 25 0 17 1 empty;
#X connect 26 0 39 0 empty;
#X connect 26 0 39 1 empty;
#X connect 27 0 26 1 empty;
#X connect 27 0 43 0 empty;
#X connect 28 0 29 1 empty;
#X connect 29 0 26 0 empty;
#X connect 30 0 29 0 empty;
#X connect 31 0 32 0 empty;
#X connect 32 0 33 0 empty;
#X connect 33 0 42 0 empty;
#X connect 34 0 33 1 empty;
#X connect 35 1 51 0 empty;
#X connect 36 0 35 1 empty;
#X connect 37 0 38 0 empty;
#X connect 40 0 16 1 empty;
#X connect 41 0 6 0 empty;
#X connect 42 0 30 1 empty;
#X connect 43 1 28 0 empty;
#X connect 44 1 21 0 empty;
#X connect 45 0 46 1 empty;
#X connect 45 1 46 0 empty;
#X connect 46 0 47 0 empty;
#X connect 47 0 48 0 empty;
#X connect 47 1 49 0 empty;
#X connect 50 0 37 0 empty;
#X connect 51 0 50 0 empty;
