#N canvas 827 239 527 327 12;
#X obj 450 256 cnv 15 486 164 empty empty FM\ SYNTH 175 14 0 30 #968e82 #f9ffdd 0;
#X obj 466 365 hsl 107 37 0.1 1000 1 1 \$0-modR empty Modulator\ Ratio -2 -8 0 10 #fcfcfc #000000 #000000 4800 1;
#X obj 582 365 hsl 107 37 0.1 10000 1 1 \$0-modD empty Modulator\ Depth -2 -8 0 10 #fcfcfc #000000 #000000 7500 1;
#X obj 466 296 hsl 107 37 10 1000 1 1 \$0-a empty Attack -2 -8 0 10 #fcfcfc #000000 #000000 500 1;
#X obj 815 296 hsl 103 37 0.001 10000 1 1 \$0-r empty Release -2 -8 0 10 #fcfcfc #000000 #000000 10000 1;
#X obj 30 15 notein;
#X obj 30 45 poly2clone 16 1;
#X obj 583 296 hsl 107 37 10 1000 1 1 \$0-d empty Decay -2 -8 0 10 #fcfcfc #000000 #000000 1100 1;
#X obj 699 296 hsl 107 37 0.01 1 1 1 \$0-s empty Sustain -2 -8 0 10 #fcfcfc #000000 #000000 5300 1;
#X obj 55 138 cloneReceive \$0-modR;
#X obj 72 159 cloneReceive \$0-modD;
#X obj 94 180 cloneReceive \$0-a;
#X obj 118 201 cloneReceive \$0-d;
#X obj 139 222 cloneReceive \$0-s;
#X obj 160 243 cloneReceive \$0-r;
#X obj 30 270 clone voice-FMADSR~ 16;
#X obj 698 347 stereoOut~;
#X connect 5 0 6 0;
#X connect 5 1 6 1;
#X connect 6 0 15 0;
#X connect 9 0 15 1;
#X connect 10 0 15 2;
#X connect 11 0 15 3;
#X connect 12 0 15 4;
#X connect 13 0 15 5;
#X connect 14 0 15 6;
#X connect 15 0 16 0;
#X connect 15 0 16 1;
#X coords 0 0 1 1 495 172 2 446 254;
