#N canvas 32 25 695 847 12;
#X obj 2 0 cnv 15 1000 1000 empty empty empty 20 12 0 14 -203904 -66577
0;
#X obj 3 3 cnv 15 460 40 empty empty Lab5a_-_FM_Synthesis 20 12 0 20
-233017 -66577 0;
#X text 6 41 With FM synthesis \, we can add signals together which
create the frequency argument for a carrier oscilator.;
#X floatatom 8 224 5 0 0 0 - - -;
#X obj 8 243 mtof;
#X obj 11 188 hsl 128 30 1 127 0 1 empty empty CARRIER_FREQ 5 15 0
15 -262130 -1 -1 5947 1;
#X obj 8 141 loadbang;
#X msg 8 163 60;
#X text 146 193 <-- First \, we can set our carrier frequency. In this
patch \, it serves as a base value which we then modulate., f 36;
#X msg 8 285 \$1 10;
#X obj 8 307 line~;
#X floatatom 8 265 5 0 0 0 - - -;
#X text 55 265 <--- Carrier Frequency;
#X text 56 309 <--- using line~ to smooth out changes in frequency
helps to avoid clicks (also called "zipper noise") when changing the
frequency control., f 50;
#X obj 9 110 cnv 15 400 25 empty empty Set_Carrier_Frequency 20 12
0 14 -228856 -66577 0;
#X obj 8 380 s~ carrierFreq;
#X text 115 380 <-- here we send out our carrier frequency to use elsewhere.
Remember \, we can grab this signal by using [r~ carrierFreq] \, where
"carrierFreq" is the argument that connects the sends and receives
together., f 42;
#X obj 431 110 cnv 15 225 25 empty empty Set_Modulator_Frequency 20
12 0 14 -228856 -66577 0;
#X msg 431 245 \$1 10;
#X obj 431 268 line~;
#X floatatom 431 223 5 0 0 0 - - -;
#X obj 431 141 loadbang;
#X msg 431 163 1;
#X obj 434 188 hsl 128 30 0.5 10000 1 1 empty empty MODULATOR_FREQ
2 15 0 15 -262130 -1 -1 889 1;
#X text 471 222 <--- modulator frequency;
#X obj 431 296 s~ modulatorFreq;
#X obj 9 481 cnv 15 400 25 empty empty Frequency_Modulation 20 12 0
14 -228856 -66577 0;
#X obj 399 512 loadbang;
#X obj 402 559 hsl 128 30 0.001 10000 1 1 empty empty FM_DEPTH 2 15
0 15 -232576 -1 -1 10886 1;
#X msg 399 594 \$1 10;
#X obj 399 618 line;
#X floatatom 399 642 5 0 0 0 - - -;
#X obj 9 522 r~ carrierFreq;
#X obj 119 522 r~ modulatorFreq;
#X obj 119 559 osc~;
#X text 153 559 <-- Generate modulating signal;
#X obj 119 667 *~;
#X text 155 667 <-- Scale modulating signal (depth);
#X obj 9 704 +~;
#X text 37 704 <-- Add the modulator signal to the carrier Frequency
;
#X obj 9 728 osc~;
#X text 45 728 <-- Generate the frequency-modulated carrier Signal
;
#X text 567 186 <-- Set modulator frequency, f 17;
#X obj 9 751 *~ 0.1;
#X obj 9 775 *~;
#X obj 81 758 tgl 15 0 empty empty empty 17 7 0 10 -262144 -1 -1 0
1;
#X text 97 755 <-- Audio on/off;
#X obj 9 797 clip~ -1 1;
#X obj 9 821 dac~;
#X msg 399 534 1000;
#X connect 3 0 4 0;
#X connect 4 0 11 0;
#X connect 5 0 3 0;
#X connect 6 0 7 0;
#X connect 7 0 5 0;
#X connect 9 0 10 0;
#X connect 10 0 15 0;
#X connect 11 0 9 0;
#X connect 18 0 19 0;
#X connect 19 0 25 0;
#X connect 20 0 18 0;
#X connect 21 0 22 0;
#X connect 22 0 23 0;
#X connect 23 0 20 0;
#X connect 27 0 49 0;
#X connect 28 0 29 0;
#X connect 29 0 30 0;
#X connect 30 0 31 0;
#X connect 31 0 36 1;
#X connect 32 0 38 0;
#X connect 33 0 34 0;
#X connect 34 0 36 0;
#X connect 36 0 38 1;
#X connect 38 0 40 0;
#X connect 40 0 43 0;
#X connect 43 0 44 0;
#X connect 44 0 47 0;
#X connect 45 0 44 1;
#X connect 47 0 48 0;
#X connect 47 0 48 1;
#X connect 49 0 28 0;
