#N canvas 208 25 766 847 10;
#X obj 168 95 bng 15 250 50 0 empty empty empty 17 7 0 10 #fcfcfc #000000 #000000;
#X text 268 94 GUI Object (Graphical User Interface) BANG = Message that tells another object to do something else;
#X text 268 221 Maths Object: In this case \, any number it adds 60;
#X floatatom 168 270 5 0 0 0 - - - 0;
#X obj 168 315 mtof;
#X floatatom 168 375 5 0 0 0 - - - 0;
#X obj 168 421 osc~;
#X obj 168 578 dac~;
#X obj 168 461 *~ 0.1;
#X text 267 144 Generate random intergers between 0 11 (counting 12 steps from 0);
#X text 268 269 Number box: GUI object that allows us to see the result;
#X text 268 314 Midi to Frequency Object: Allows us to treat the incoming numbers as MIDI note numbers and then convert them to the relative frequency in cycles per second (Hz);
#X text 268 374 Number Box: Displays the output of the mtof object.;
#X obj 18 166, f 5;
#X text 268 420 Sine tone Oscillator: generate a sine tone at a frequency of the incoming message. Note that the tilde (~) character tells us this object runs at audio rate;
#X text 269 461 Audio Rate Maths Object: multiplies incoming signals by 0.1;
#X text 271 577 Digital Analog Converter: This allows us to send what ever we have made to our loud speakers.;
#X obj 11 62 cnv 15 100 25 empty empty Shortcuts 20 12 0 14 #dcdcdc #404040 0;
#X obj 264 62 cnv 15 140 25 empty empty Descriptions 20 12 0 14 #dcdcdc #404040 0;
#X obj 10 10 cnv 15 550 40 empty empty LAB\ 1.4\ -\ a\ more\ interesting\ beep\ example 20 12 0 20 #e0e0e0 #404040 0;
#X text 15 144 create a 'blank' object:;
#X obj 168 530 clip~ -1 1;
#X text 268 527 Signal Clipper: hard-limits signals beyond -1/1 amplitude. ***See below;
#X text 19 619 *** NB: It's easy to lose control of volume when working in a program like Pd. As a precaution \, we're adding in a [clip~] object to mitigate some of the mistakes that could happen along the way. You may want to do this while you develop your own patches too \, it may save your ears/speakers some pain!;
#X obj 168 222 + 60;
#X obj 168 145 random 12;
#X text 54 94 cmd/ctl-shift-B >;
#X text 16 185 cmd/ctl-1;
#X text 90 269 cmd/ctl-3 >;
#X obj 168 502 *~;
#X obj 221 484 tgl 16 0 empty empty empty 0 -8 0 10 #fcfcfc #000000 #000000 0 1;
#X text 269 482 Audio on/off;
#X connect 0 0 25 0;
#X connect 3 0 4 0;
#X connect 4 0 5 0;
#X connect 5 0 6 0;
#X connect 6 0 8 0;
#X connect 8 0 29 0;
#X connect 21 0 7 0;
#X connect 21 0 7 1;
#X connect 24 0 3 0;
#X connect 25 0 24 0;
#X connect 29 0 21 0;
#X connect 30 0 29 1;
