#N canvas 129 128 1064 373 12;
#X obj 12 110 cnv 15 130 25 empty empty Examples... 20 12 0 14 #e0e0e0 #404040 0;
#X obj 13 204 bng 15 250 50 0 empty empty empty 17 7 0 10 #fcfcfc #000000 #000000;
#X obj 13 305 print;
#X text 36 205 Bang: sends 'bang' message when clicked;
#X obj 13 173 cnv 15 40 25 empty empty 1 20 12 0 10 #e0e0e0 #404040 0;
#X text 12 138 PD will send out bangs in the order that you connect objects to a bang. Lets start with this example;
#X obj 323 204 bng 15 250 50 0 empty empty empty 17 7 0 10 #fcfcfc #000000 #000000;
#X obj 323 303 print;
#X obj 323 173 cnv 15 40 25 empty empty 2 20 12 0 10 #e0e0e0 #404040 0;
#X msg 323 226 1;
#X msg 341 252 2;
#X text 57 172 Print a bang;
#X text 367 170 Now we add some messages for;
#X text 367 185 the bang object to trigger:;
#X text 363 303 The messages are printed in the;
#X obj 623 173 cnv 15 40 25 empty empty 3 20 12 0 10 #e0e0e0 #404040 0;
#X msg 378 278 third;
#X text 420 278 connected third;
#X text 372 251 connected second;
#X text 354 226 connected first;
#X obj 623 204 bng 15 250 50 0 empty empty empty 17 7 0 10 #fcfcfc #000000 #000000;
#X obj 623 303 print;
#X text 685 228 connected third;
#X text 717 251 connected second;
#X text 749 276 connected first;
#X text 667 170 These objects are conncted in the;
#X text 667 184 same order \, but arranged differently;
#X text 663 303 This shows that the messages above do indeed;
#X text 663 316 arrive in the order that the objects are connected \,;
#X text 663 329 and not according to their position on-screen.;
#X text 53 299 [print]: prints incoming messages;
#X text 56 314 to PD window;
#X text 364 315 order they were conncected;
#X text 663 343 The results are sometimes unintuitive.;
#X text 11 56 The technicalities outlined in this patch aren't immediately obvious \, but understanding them can make the difference between a working patch and a broken one (more next week)!;
#X text 17 337 (Press cmd/ctl-R to see the PD window);
#X obj 7 6 cnv 25 596 35 empty empty LAB\ 1.5\ -\ Timing\ and\ Message\ Order 20 12 0 25 #e0e0e0 #404040 0;
#X msg 623 228 first?;
#X msg 668 276 third???;
#X msg 646 252 second??;
#X connect 1 0 2 0;
#X connect 6 0 9 0;
#X connect 6 0 10 0;
#X connect 6 0 16 0;
#X connect 9 0 7 0;
#X connect 10 0 7 0;
#X connect 16 0 7 0;
#X connect 20 0 38 0;
#X connect 20 0 39 0;
#X connect 20 0 37 0;
#X connect 37 0 21 0;
#X connect 38 0 21 0;
#X connect 39 0 21 0;
