#N canvas 109 63 1117 728 12;
#X obj 8 8 stepper;
#X text 121 81 NOTE VALUES;
#X text 483 80 VELOCITIES;
#X obj 541 33 hsl 162 19 0.1 20 1 0 \$0-modRat empty mod\ ratio -75 10 0 12 #fcfcfc #000000 #000000 0 1;
#X obj 541 54 hsl 162 19 0.1 10000 1 0 \$0-modDep empty mod\ depth -75 10 0 12 #fcfcfc #000000 #000000 0 1;
#X obj 268 33 hsl 162 19 5 5000 1 0 \$0-a empty A -20 10 0 12 #fcfcfc #000000 #000000 0 1;
#X obj 268 54 hsl 162 19 5 5000 1 0 \$0-r empty R -20 10 0 12 #fcfcfc #000000 #000000 0 1;
#X obj 38 450 cloneReceive \$0-modRat;
#X obj 72 472 cloneReceive \$0-modDep;
#X obj 106 494 cloneReceive \$0-a;
#X obj 141 516 cloneReceive \$0-r;
#X obj 4 542 clone voice-FMAR~ 16;
#X text 537 11 FM SETTINGS;
#X text 265 10 ENVELOPE;
#X obj 4 427 formatPoly 16 1, f 51;
#X obj 4 566 outlet~;
#X obj 8 80 seqTicker;
#X obj 358 80 seqTicker;
#X obj 361 389 hsl 342 19 0 127 0 0 empty empty empty -2 -10 0 12 #bbbbbb #000000 #000000 0 1;
#X obj 11 389 hsl 342 19 0 127 0 0 empty empty empty -2 -10 0 12 #bbbbbb #000000 #000000 0 1;
#X obj 8 149 seqVal 0;
#X obj 358 149 seqVal 0;
#X connect 0 0 16 0;
#X connect 0 0 17 0;
#X connect 0 0 20 0;
#X connect 0 0 21 0;
#X connect 7 0 11 1;
#X connect 8 0 11 2;
#X connect 9 0 11 3;
#X connect 10 0 11 4;
#X connect 11 0 15 0;
#X connect 14 0 11 0;
#X connect 18 0 14 1;
#X connect 19 0 14 0;
#X connect 20 0 19 0;
#X connect 21 0 18 0;
#X coords 0 -1 1 1 705 415 2 5 5;
