#N canvas 109 63 1117 728 12;
#X obj 8 8 stepper;
#X obj 214 467 hsl 118 19 0.1 20 1 0 \$0-modRat empty mod\ ratio -55 10 0 12 #fcfcfc #000000 #000000 0 1;
#X obj 214 488 hsl 118 19 0.1 10000 1 0 \$0-modDep empty mod\ depth -55 10 0 12 #fcfcfc #000000 #000000 0 1;
#X obj 38 467 hsl 118 19 5 5000 1 0 \$0-a empty A -20 10 0 12 #fcfcfc #000000 #000000 0 1;
#X obj 38 488 hsl 118 19 5 5000 1 0 \$0-r empty R -20 10 0 12 #fcfcfc #000000 #000000 0 1;
#X obj 38 570 cloneReceive \$0-modRat;
#X obj 72 592 cloneReceive \$0-modDep;
#X obj 106 614 cloneReceive \$0-a;
#X obj 141 636 cloneReceive \$0-r;
#X obj 4 662 clone voice-FMAR~ 16;
#X text 210 445 FM SETTINGS;
#X text 35 444 ENVELOPE;
#X obj 4 686 outlet~;
#X obj 8 79 seqTicker;
#X obj 4 547 poly2clone 16 1, f 51;
#X obj 4 148 seqVal2;
#X connect 0 0 13 0;
#X connect 0 0 15 0;
#X connect 5 0 9 1;
#X connect 6 0 9 2;
#X connect 7 0 9 3;
#X connect 8 0 9 4;
#X connect 9 0 12 0;
#X connect 14 0 9 0;
#X connect 15 0 14 0;
#X connect 15 1 14 1;
#X coords 0 -1 1 1 357 508 2 5 5;
