#N canvas 385 276 782 585 12;
#X obj 217 387 operator~, f 25;
#X obj 213 79 inlet~;
#X obj 21 141 vsl 15 128 2 2000 1 0 \$0-a empty empty 0 -9 0 10 -261234
-1 -1 0 1;
#X obj 41 141 vsl 15 128 2 2000 1 0 \$0-d empty empty 0 -9 0 10 -261234
-1 -1 0 1;
#X obj 61 141 vsl 15 128 0 1 0 0 \$0-s empty empty 0 -9 0 10 -261234
-1 -1 0 1;
#X obj 81 141 vsl 15 128 2 2000 0 0 \$0-r empty empty 0 -9 0 10 -261234
-1 -1 0 1;
#X obj 24 298 hsl 71 15 0 1 0 0 \$0-g empty Out_Gain 10 8 0 10 -204786
-1 -1 0 1;
#X text 23 121 A;
#X text 42 121 D;
#X text 62 121 S;
#X text 82 121 R;
#X obj 260 132 r MIDInotes;
#X obj 238 110 r \$0-p;
#X obj 281 154 r \$0-a;
#X obj 303 174 r \$0-d;
#X obj 324 194 r \$0-s;
#X obj 346 214 r \$0-r;
#X obj 366 234 r \$0-g;
#X obj 217 411 outlet~;
#X text 269 80 incoming modulator signal;
#X text 349 131 MIDI note/velocity pairs;
#X obj 388 351 r \$0-f;
#X obj 24 278 hsl 71 15 0.01 1 1 0 \$0-f empty Feedback 10 8 0 10 -204786
-1 -1 0 1;
#X text 420 234 output gain;
#X text 584 196 Mode sets the amount that gain can amplify the signal.
For modulators \, gain can amplify much more to give a more drastic
effect., f 28;
#X obj 3 3 cnv 15 750 60 empty empty Operator-FrontEnd 20 12 0 20 -233017
-66577 0;
#X text 287 108 pitch ratio (0.1 - 10);
#X text 20 84 Pitch ratio;
#X obj 22 103 nbx 5 14 0.001 100 0 1 \$0-p empty empty 0 -8 0 10 -262130
-1 -1 1.001 256;
#X connect 0 0 18 0;
#X connect 1 0 0 0;
#X connect 11 0 0 2;
#X connect 12 0 0 1;
#X connect 13 0 0 3;
#X connect 14 0 0 4;
#X connect 15 0 0 5;
#X connect 16 0 0 6;
#X connect 17 0 0 7;
#X connect 21 0 0 8;
#X coords 0 -1 1 1 100 240 2 10 80;
