#N canvas 294 29 495 763 12;
#X obj 4 4 cnv 15 472 25 empty empty 4.2:\ Ring\ Mod\ Abstraction 20 12 0 14 #dcdcdc #404040 0;
#X obj 39 311 hsl 128 15 0 127 0 0 empty empty car -2 -8 0 10 #fcfcfc #000000 #000000 0 1;
#X obj 39 335 mtof;
#X msg 39 364 \$1 10;
#X obj 39 393 line~;
#X obj 176 311 hsl 128 15 0 127 0 0 empty empty mod -2 -8 0 10 #fcfcfc #000000 #000000 0 1;
#X obj 176 335 mtof;
#X msg 176 364 \$1 10;
#X obj 176 393 line~;
#X obj 158 602 *~;
#X obj 39 636 xFade~, f 42;
#X obj 328 311 hsl 128 15 0 1 0 0 empty empty dry/wet\ mix -2 -8 0 10 #fcfcfc #000000 #000000 0 1;
#X obj 39 685 output~;
#X text 7 38 1 - Can we figure out what's going on here? It's very simiar to what we've seen already., f 43;
#X obj 39 423 waveSelUI~;
#X obj 176 424 waveSelUI~;
#X text 7 100 2 - Copy the part of the patch that's doing the AM and paste it to a new file.;
#X text 7 156 3 - Add inlets \, outlets and helpful comments to your abstraction.;
#X text 7 201 4 - Replace the AM part of this patch with your new abstraction.;
#X connect 1 0 2 0;
#X connect 2 0 3 0;
#X connect 3 0 4 0;
#X connect 4 0 14 0;
#X connect 5 0 6 0;
#X connect 6 0 7 0;
#X connect 7 0 8 0;
#X connect 8 0 15 0;
#X connect 9 0 10 1;
#X connect 10 0 12 0;
#X connect 11 0 10 2;
#X connect 14 0 9 0;
#X connect 14 0 10 0;
#X connect 15 0 9 1;
