#N canvas 237 25 807 569 12;
#X obj 2 3 cnv 15 800 560 empty empty empty 20 12 0 14 -203904 -66577
0;
#X obj 3 5 cnv 15 800 60 empty empty TRIANGLE 20 12 0 30 -233017 -66577
0;
#X obj 29 174 inlet~;
#X text 26 149 freq;
#X obj 79 124 loadbang;
#X obj 79 148 f \$1;
#X obj 79 172 sig~;
#X obj 472 186 inlet;
#X obj 472 210 t b;
#X obj 517 186 loadbang;
#X msg 472 246 0;
#X obj 43 327 par~ 1 1 0;
#X obj 133 327 par~ 3 0.1111 0;
#X obj 253 327 par~ 5 0.04 0;
#X obj 363 327 par~ 7 0.0204 0;
#X obj 483 327 par~ 9 0.0123 0;
#X obj 43 389 *~ 0.2;
#X obj 43 413 outlet~;
#X text 27 93 a = 1 / (n^2);
#X text 27 73 odd harmonics;
#X connect 2 0 11 0;
#X connect 2 0 12 0;
#X connect 2 0 13 0;
#X connect 2 0 14 0;
#X connect 2 0 15 0;
#X connect 4 0 5 0;
#X connect 5 0 6 0;
#X connect 6 0 11 0;
#X connect 6 0 12 0;
#X connect 6 0 13 0;
#X connect 6 0 14 0;
#X connect 6 0 15 0;
#X connect 7 0 8 0;
#X connect 8 0 10 0;
#X connect 9 0 10 0;
#X connect 10 0 15 3;
#X connect 10 0 14 3;
#X connect 10 0 13 3;
#X connect 10 0 12 3;
#X connect 10 0 11 3;
#X connect 11 0 16 0;
#X connect 12 0 16 0;
#X connect 13 0 16 0;
#X connect 14 0 16 0;
#X connect 15 0 16 0;
#X connect 16 0 17 0;
