#N canvas 498 121 486 381 12;
#X obj -7 -8 cnv 15 1000 1000 empty empty empty 20 12 0 14 -203904
-66577 0;
#X obj 7 38 inlet;
#X obj 7 10 cnv 15 320 25 empty empty 5_Partial_Square_Wave 20 12 0
14 -228856 -66577 0;
#X obj 7 162 osc~;
#X text 47 38 freq;
#X obj 337 73 inlet;
#X text 377 73 reset phase;
#X obj 24 67 loadbang;
#X obj 7 94 f \$1;
#X obj 67 162 osc~;
#X obj 137 162 osc~;
#X obj 207 162 osc~;
#X obj 277 162 osc~;
#X obj 67 133 *~ 3;
#X obj 137 133 *~ 5;
#X obj 207 133 *~ 7;
#X obj 277 133 *~ 9;
#X obj 67 195 *~ 0.333;
#X obj 137 195 *~ 0.2;
#X obj 207 195 *~ 0.143;
#X obj 277 195 *~ 0.111;
#X msg 337 137 0.75;
#X obj 367 109 loadbang;
#X obj 7 248 outlet~;
#X text 41 93 <---creation argument;
#X text 7 268 The creation argument in this patch (the \$1 as the argument
of [f ]) lets us type a creation argument when adding the abstraction
to a patch. So for instance \, this abstraction could be typed [sqwave
200] and the \$1 would be replaced with 200 \, setting the frequency
of this generator to 200Hz;
#X connect 1 0 8 0;
#X connect 3 0 23 0;
#X connect 5 0 21 0;
#X connect 7 0 8 0;
#X connect 8 0 3 0;
#X connect 8 0 13 0;
#X connect 8 0 14 0;
#X connect 8 0 15 0;
#X connect 8 0 16 0;
#X connect 9 0 17 0;
#X connect 10 0 18 0;
#X connect 11 0 19 0;
#X connect 12 0 20 0;
#X connect 13 0 9 0;
#X connect 14 0 10 0;
#X connect 15 0 11 0;
#X connect 16 0 12 0;
#X connect 17 0 23 0;
#X connect 18 0 23 0;
#X connect 19 0 23 0;
#X connect 20 0 23 0;
#X connect 21 0 12 1;
#X connect 21 0 11 1;
#X connect 21 0 10 1;
#X connect 21 0 9 1;
#X connect 21 0 3 1;
#X connect 22 0 21 0;
