#N canvas 900 174 356 255 12;
#X obj 2 2 cnv 15 350 250 empty empty empty 20 12 0 14 -203904 -66577
0;
#X obj 20 23 inlet~;
#X text 20 3 freq;
#X text 80 3 freqMul;
#X obj 80 23 inlet;
#X obj 200 123 inlet;
#X text 200 103 amp;
#X obj 280 23 inlet;
#X text 280 3 phase;
#X obj 20 80 *~;
#X obj 20 194 *~;
#X obj 20 138 osc~;
#X obj 20 226 outlet~;
#X obj 80 50 f \$1;
#X obj 280 48 f \$3;
#X obj 200 148 f \$2;
#X obj 156 21 loadbang;
#X connect 1 0 9 0;
#X connect 4 0 13 0;
#X connect 5 0 15 0;
#X connect 7 0 14 0;
#X connect 9 0 11 0;
#X connect 10 0 12 0;
#X connect 11 0 10 0;
#X connect 13 0 9 1;
#X connect 15 0 10 1;
#X connect 16 0 13 0;
#X connect 16 0 15 0;
#X connect 16 0 14 0;
