#N canvas 292 87 833 528 12;
#X obj 20 94 mtof;
#X obj 158 102 / 127;
#X obj 91 266 *, f 5;
#X obj 101 228 t b f;
#X obj 20 459 *~;
#X obj 173 30 inlet;
#X obj 270 30 inlet;
#X obj 20 30 inlet;
#X obj 20 491 outlet~;
#X obj 101 201 r \$0-ratio;
#X obj 173 60 s \$0-ratio;
#X obj 270 59 s \$0-depth;
#X obj 162 266 r \$0-depth;
#X text 6 7 midi note;
#X text 78 7 velocity;
#X text 164 7 mod ratio;
#X text 261 7 mod depth;
#X obj 20 60 unpack 0 0;
#X obj 140 410 adsr~;
#X obj 358 28 inlet;
#X text 357 8 A;
#X obj 443 28 inlet;
#X obj 533 28 inlet;
#X obj 623 28 inlet;
#X text 442 8 D;
#X text 532 8 S;
#X text 622 8 R;
#X obj 358 57 s \$0-a;
#X obj 443 57 s \$0-d;
#X obj 533 57 s \$0-s;
#X obj 623 57 s \$0-r;
#X obj 156 377 r \$0-a;
#X obj 206 377 r \$0-d;
#X obj 256 377 r \$0-s;
#X obj 306 377 r \$0-r;
#X obj 39 368 r \$0-vol;
#X obj 87 131 s \$0-trig;
#X obj 158 131 sel 0;
#X obj 190 157 s \$0-vol;
#X obj 140 353 r \$0-trig;
#X obj 20 403 *~;
#X obj 699 28 inlet;
#X obj 759 28 inlet;
#X obj 20 302 FMwaveSel~, f 41;
#X obj 699 57 s \$0-wC;
#X obj 759 57 s \$0-wM;
#X text 698 8 Wave C;
#X text 758 8 Wave M;
#X obj 240 266 r \$0-wC;
#X obj 297 266 r \$0-wM;
#X text 77 492 FM Signal Out~;
#X floatatom 72 406 5 0 0 0 - - -, f 5;
#X connect 0 0 2 0;
#X connect 0 0 43 0;
#X connect 1 0 37 0;
#X connect 2 0 43 1;
#X connect 3 0 2 0;
#X connect 3 1 2 1;
#X connect 4 0 8 0;
#X connect 5 0 10 0;
#X connect 6 0 11 0;
#X connect 7 0 17 0;
#X connect 9 0 3 0;
#X connect 12 0 43 2;
#X connect 17 0 0 0;
#X connect 17 1 1 0;
#X connect 17 1 36 0;
#X connect 18 0 4 1;
#X connect 19 0 27 0;
#X connect 21 0 28 0;
#X connect 22 0 29 0;
#X connect 23 0 30 0;
#X connect 31 0 18 1;
#X connect 32 0 18 2;
#X connect 33 0 18 3;
#X connect 34 0 18 4;
#X connect 35 0 40 1;
#X connect 35 0 51 0;
#X connect 37 1 38 0;
#X connect 39 0 18 0;
#X connect 40 0 4 0;
#X connect 41 0 44 0;
#X connect 42 0 45 0;
#X connect 43 0 40 0;
#X connect 48 0 43 3;
#X connect 49 0 43 4;
