#N canvas 224 150 505 300 12;
#X text 17 14 freq;
#X text 138 14 freq mul;
#X text 243 14 phase;
#X obj 138 39 inlet;
#X obj 243 39 inlet;
#X obj 70 126 *~;
#X obj 138 78 f \$1;
#X obj 243 78 f \$2;
#X text 342 15 amp;
#X obj 342 39 inlet;
#X obj 342 78 f \$3;
#X obj 426 39 loadbang;
#X obj 70 170 osc~;
#X obj 70 211 *~;
#X obj 70 240 outlet~;
#X obj 17 39 inlet~;
#X connect 3 0 6 0;
#X connect 4 0 7 0;
#X connect 5 0 12 0;
#X connect 6 0 5 1;
#X connect 7 0 12 1;
#X connect 9 0 10 0;
#X connect 10 0 13 1;
#X connect 11 0 10 0;
#X connect 11 0 7 0;
#X connect 11 0 6 0;
#X connect 12 0 13 0;
#X connect 13 0 14 0;
#X connect 15 0 5 0;
