#N canvas 277 118 779 457 12;
#X obj 112 77 *~;
#X obj 6 118 xFade~, f 42;
#X obj 6 30 inlet~;
#X obj 168 30 inlet~;
#X obj 297 31 inlet;
#X obj 6 191 outlet~;
#X text 6 5 Carrier~;
#X text 168 5 Modulator~;
#X text 297 5 Dry/Wet mix;
#X obj 297 69 f \$1;
#X obj 338 31 loadbang;
#X text 62 191 Ringmod Output~;
#X connect 0 0 1 1;
#X connect 1 0 5 0;
#X connect 2 0 1 0;
#X connect 2 0 0 0;
#X connect 3 0 0 1;
#X connect 4 0 9 0;
#X connect 9 0 1 2;
#X connect 10 0 9 0;
