#N canvas 335 43 624 421 12;
#X obj 3 3 cnv 15 460 40 empty empty Simple_FM 20 12 0 20 #e0e0e0 #404040
0;
#X obj 188 201 osc~;
#X text 222 201 <-- Generate modulating signal;
#X obj 118 309 *~;
#X text 154 309 <-- Scale modulating signal (depth);
#X obj 8 346 +~;
#X text 36 346 <-- Add the modulator signal to the carrier Frequency
;
#X obj 8 370 osc~;
#X text 44 370 <-- Generate the frequency-modulated carrier Signal
;
#X obj 8 394 outlet~;
#X text 64 393 <-- Send sound out;
#X msg 8 144 \$1 10;
#X obj 8 166 line~;
#X obj 8 81 inlet;
#X msg 188 144 \$1 10;
#X obj 188 166 line~;
#X obj 188 81 inlet;
#X msg 468 204 \$1 10;
#X obj 468 226 line~;
#X obj 468 81 inlet;
#X text 6 57 Carrier frequency (hz);
#X text 186 57 Modulator frequency (hz);
#X text 466 57 Depth;
#X obj 8 110 f \$1;
#X obj 188 110 f \$2;
#X obj 468 110 f \$3;
#X obj 382 80 loadbang;
#X connect 1 0 3 0;
#X connect 3 0 5 1;
#X connect 5 0 7 0;
#X connect 7 0 9 0;
#X connect 11 0 12 0;
#X connect 12 0 5 0;
#X connect 13 0 23 0;
#X connect 14 0 15 0;
#X connect 15 0 1 0;
#X connect 16 0 24 0;
#X connect 17 0 18 0;
#X connect 18 0 3 1;
#X connect 19 0 25 0;
#X connect 23 0 11 0;
#X connect 24 0 14 0;
#X connect 25 0 17 0;
#X connect 26 0 23 0;
#X connect 26 0 24 0;
#X connect 26 0 25 0;
