#N canvas 46 -651 571 570 12;
#X obj 11 3 cnv 15 555 60 empty empty waveSelect~ 20 12 0 20 #e0e0e0 #404040 0;
#X text 29 34 oscilator with a selection of waveforms;
#X obj 166 308 osc~;
#X obj 45 118 vradio 25 0 0 4 \$0-waveSel \$0-setWave empty 0 -8 0 10 #ffffff #000000 #000000 0;
#X text 85 120 SINE;
#X text 85 198 SAW;
#X obj 66 332 r \$0-waveSel;
#X text 165 84 FREQUENCY (Hz);
#X obj 277 106 inlet;
#X text 275 83 WAVE SEL (0-3);
#X obj 417 106 inlet;
#X text 415 83 RESET PHASE (bang);
#X obj 186 376 == 0;
#X obj 256 376 == 1;
#X obj 336 376 == 2;
#X obj 416 376 == 3;
#X obj 168 440 *~;
#X obj 238 440 *~;
#X obj 318 440 *~;
#X obj 398 440 *~;
#X obj 277 169 s \$0-setWave;
#X obj 169 521 outlet~;
#X obj 326 106 loadbang;
#X msg 326 130 0;
#X obj 45 85 cnv 15 101 30 empty empty Wave\ Select 14 13 0 12 #e0e0e0 #404040 0;
#X obj 399 308 sawOsc~;
#X obj 167 107 inlet~;
#X text 226 519 waveform out~;
#X text 85 146 TRIANGLE;
#X text 85 172 SQUARE;
#X obj 238 308 triOsc~;
#X obj 318 308 sqOsc~;
#X connect 2 0 16 0;
#X connect 6 0 12 0;
#X connect 6 0 13 0;
#X connect 6 0 14 0;
#X connect 6 0 15 0;
#X connect 8 0 20 0;
#X connect 10 0 30 1;
#X connect 10 0 31 1;
#X connect 12 0 16 1;
#X connect 13 0 17 1;
#X connect 14 0 18 1;
#X connect 15 0 19 1;
#X connect 16 0 21 0;
#X connect 17 0 21 0;
#X connect 18 0 21 0;
#X connect 19 0 21 0;
#X connect 22 0 23 0;
#X connect 23 0 20 0;
#X connect 25 0 19 0;
#X connect 26 0 2 0;
#X connect 26 0 25 0;
#X connect 26 0 30 0;
#X connect 26 0 31 0;
#X connect 30 0 17 0;
#X connect 31 0 18 0;
#X coords 0 -1 1 1 110 143 2 40 80;
