#N canvas 70 112 476 132 12;
#N canvas 33 32 1361 622 simple_sqaure 0;
#X obj 10 11 cnv 15 200 25 empty empty Simple_Square_Wave 20 12 0 14 #e0e0e0 #404040 0;
#X obj 469 95 mtof;
#X obj 469 117 s sqFreq;
#X obj 543 118 s reset;
#X obj 469 73 t f b;
#X obj 469 14 loadbang;
#X text 525 14 <--- loadbang sends out a bang as soon as the patch opens.;
#X text 555 26 This is useful for setting initial values for objects;
#X text 601 117 <--- the [s ] objects send data 'wirelessly';
#X text 631 132 to [r ] objects with the same name;
#X obj 11 238 cnv 15 250 220 empty empty Fundamental_(1st_Partial) 20 12 0 12 #dcdcdc #404040 0;
#X obj 27 279 r sqFreq;
#X obj 93 279 r reset;
#X obj 27 400 osc~;
#X msg 48 343 0.75;
#X obj 271 238 cnv 15 250 220 empty empty 2nd_Partial 20 12 0 12 #dcdcdc #404040 0;
#X obj 287 279 r sqFreq;
#X obj 353 279 r reset;
#X obj 287 400 osc~;
#X obj 363 379 /;
#X obj 348 432 *~;
#X obj 287 379 *;
#X msg 363 343 1;
#X msg 308 343 0.75;
#X obj 344 301 t b b b;
#X obj 27 432 *~ 1;
#X text 111 303 The right outlet of;
#X text 110 317 [osc~] sets the phase.;
#X text 112 331 All oscilators have;
#X text 111 343 this argument reset to;
#X text 112 370 are in-sync \, and that;
#X text 110 383 the phases line up to;
#X text 112 395 make a square wave \, and;
#X text 81 401 <---;
#X text 81 342 <---;
#X text 111 433 to see more about this;
#X obj 531 238 cnv 15 250 220 empty empty 3rd_Partial 20 12 0 12 #dcdcdc #404040 0;
#X obj 791 238 cnv 15 250 220 empty empty 4th_Partial 20 12 0 12 #dcdcdc #404040 0;
#X obj 1051 238 cnv 15 250 220 empty empty 5th_Partial 20 12 0 12 #dcdcdc #404040 0;
#X text 289 186 From here \, each partial has a successive odd-numbered multiple of the fundamental frequency \, and an amplitude of 1/"odd number" ---------->>;
#X obj 27 497 clip~ -1 1;
#X text 634 144 If you prefer a formula \, each partial has frequency: f=fundamental*n \, and amplitude: a=1/n;
#N canvas 0 22 450 300 (subpatch) 0;
#X array sqWave 512 float 4;
#X coords 0 1 511 -1 200 100 1;
#X restore 440 513 graph;
#X obj 292 507 tgl 15 1 empty empty SEE_WAVEFORM 0 -6 0 10 #fcfcfc #000000 #000000 1 1;
#X text 422 603 -1;
#X text 428 557 0;
#X text 428 507 1;
#X obj 292 553 tabwrite~ sqWave;
#X obj 469 33 bng 15 250 50 0 empty empty empty 17 7 0 10 #fcfcfc #000000 #000000;
#X msg 469 51 60;
#X obj 27 379 * 1;
#X obj 27 478 *~ 0.5;
#X obj 408 343 nbx 5 14 -1e+37 1e+37 0 1 empty empty harmonic_number 0 -8 0 10 #fcfcfc #000000 #000000 3 256;
#X obj 547 279 r sqFreq;
#X obj 613 279 r reset;
#X obj 547 400 osc~;
#X obj 623 379 /;
#X obj 608 432 *~;
#X obj 547 379 *;
#X msg 623 343 1;
#X msg 568 343 0.75;
#X obj 604 301 t b b b;
#X obj 668 343 nbx 5 14 -1e+37 1e+37 0 1 empty empty harmonic_number 0 -8 0 10 #fcfcfc #000000 #000000 5 256;
#X obj 807 279 r sqFreq;
#X obj 873 279 r reset;
#X obj 807 400 osc~;
#X obj 883 379 /;
#X obj 868 432 *~;
#X obj 807 379 *;
#X msg 883 343 1;
#X msg 828 343 0.75;
#X obj 864 301 t b b b;
#X obj 938 343 nbx 5 14 -1e+37 1e+37 0 1 empty empty harmonic_number 0 -8 0 10 #fcfcfc #000000 #000000 7 256;
#X obj 1067 279 r sqFreq;
#X obj 1133 279 r reset;
#X obj 1067 400 osc~;
#X obj 1143 379 /;
#X obj 1128 432 *~;
#X obj 1067 379 *;
#X msg 1143 343 1;
#X msg 1088 343 0.75;
#X obj 1124 301 t b b b;
#X obj 1188 343 nbx 5 14 -1e+37 1e+37 0 1 empty empty harmonic_number 0 -8 0 10 #fcfcfc #000000 #000000 9 256;
#X text 12 43 By adding pure sine tones together \, we can make other \, more complex waveforms. In this example we use seven sinewave oscilators to synthesise a square wave. Each sinewave component \, or partial is also scaled according to its partial number \, the multiple of the original frequency. In this case \, we add odd numbered harmonics together to get an approximate square wave.;
#X obj 292 530 metro 250;
#X text 112 357 to ensure they;
#X text 111 408 not something else.;
#X text 111 420 Open [pd moreOnPhase];
#X text 652 550 <--- you can see this isn't a perfect square wave \, but its close. Adding in more odd-numbered harmonics would improve this further.;
#X obj 27 526 stereoOut~;
#X connect 1 0 2 0;
#X connect 4 0 1 0;
#X connect 4 1 3 0;
#X connect 5 0 48 0;
#X connect 11 0 50 0;
#X connect 12 0 14 0;
#X connect 13 0 25 0;
#X connect 14 0 13 1;
#X connect 16 0 21 0;
#X connect 17 0 24 0;
#X connect 18 0 20 0;
#X connect 19 0 20 1;
#X connect 20 0 51 0;
#X connect 21 0 18 0;
#X connect 22 0 19 0;
#X connect 23 0 18 1;
#X connect 24 0 23 0;
#X connect 24 1 22 0;
#X connect 24 2 52 0;
#X connect 25 0 51 0;
#X connect 40 0 47 0;
#X connect 40 0 89 0;
#X connect 43 0 84 0;
#X connect 48 0 49 0;
#X connect 49 0 4 0;
#X connect 50 0 13 0;
#X connect 51 0 40 0;
#X connect 52 0 21 1;
#X connect 52 0 19 1;
#X connect 53 0 58 0;
#X connect 54 0 61 0;
#X connect 55 0 57 0;
#X connect 56 0 57 1;
#X connect 57 0 51 0;
#X connect 58 0 55 0;
#X connect 59 0 56 0;
#X connect 60 0 55 1;
#X connect 61 0 60 0;
#X connect 61 1 59 0;
#X connect 61 2 62 0;
#X connect 62 0 58 1;
#X connect 62 0 56 1;
#X connect 63 0 68 0;
#X connect 64 0 71 0;
#X connect 65 0 67 0;
#X connect 66 0 67 1;
#X connect 67 0 51 0;
#X connect 68 0 65 0;
#X connect 69 0 66 0;
#X connect 70 0 65 1;
#X connect 71 0 70 0;
#X connect 71 1 69 0;
#X connect 71 2 72 0;
#X connect 72 0 66 1;
#X connect 72 0 68 1;
#X connect 73 0 78 0;
#X connect 74 0 81 0;
#X connect 75 0 77 0;
#X connect 76 0 77 1;
#X connect 77 0 51 0;
#X connect 78 0 75 0;
#X connect 79 0 76 0;
#X connect 80 0 75 1;
#X connect 81 0 80 0;
#X connect 81 1 79 0;
#X connect 81 2 82 0;
#X connect 82 0 76 1;
#X connect 82 0 78 1;
#X connect 84 0 47 0;
#X restore 8 39 pd simple_sqaure;
#N canvas 54 25 1145 690 simple-triangle 0;
#X obj 10 11 cnv 15 200 25 empty empty Simple_Triangle_Wave 20 12 0 14 #e0e0e0 #404040 0;
#X obj 409 86 mtof;
#X obj 483 89 s reset;
#X obj 409 64 t f b;
#X obj 409 5 loadbang;
#X obj 409 24 bng 15 250 50 0 empty empty empty 17 7 0 10 #fcfcfc #000000 #000000;
#X msg 409 42 60;
#X obj 11 227 cnv 15 200 220 empty empty Fundamental_(1st_Partial) 20 12 0 12 #dcdcdc #404040 0;
#X obj 83 268 r reset;
#X obj 27 389 osc~;
#X obj 221 227 cnv 15 220 220 empty empty 2nd_Partial 20 12 0 12 #dcdcdc #404040 0;
#X obj 293 258 r reset;
#X obj 237 389 osc~;
#X obj 293 398 /;
#X obj 278 421 *~;
#X obj 237 368 *;
#X msg 293 332 1;
#X obj 293 280 t b b b;
#X obj 27 421 *~ 1;
#X obj 27 506 clip~ -1 1;
#N canvas 0 22 450 300 (subpatch) 0;
#X array triWave 512 float 4;
#X coords 0 1 511 -1 200 100 1;
#X restore 440 502 graph;
#X obj 292 516 tgl 15 1 empty empty SEE_WAVEFORM 0 -6 0 10 #fcfcfc #000000 #000000 1 1;
#X text 422 592 -1;
#X text 428 546 0;
#X text 428 496 1;
#X obj 27 368 * 1;
#X obj 27 487 *~ 0.5;
#X obj 348 332 nbx 5 14 -1e+37 1e+37 0 1 empty empty harmonic_number 0 -8 0 10 #fcfcfc #000000 #000000 3 256;
#X obj 292 539 metro 250;
#X obj 409 108 s triFreq;
#X obj 27 268 r triFreq;
#X obj 237 258 r triFreq;
#X obj 292 562 tabwrite~ triWave;
#X obj 328 351 t f f;
#X obj 328 370 *;
#X obj 451 227 cnv 15 220 220 empty empty 3rd_Partial 20 12 0 12 #dcdcdc #404040 0;
#X obj 523 258 r reset;
#X obj 467 389 osc~;
#X obj 523 398 /;
#X obj 508 421 *~;
#X obj 467 368 *;
#X msg 523 332 1;
#X obj 523 280 t b b b;
#X obj 578 332 nbx 5 14 -1e+37 1e+37 0 1 empty empty harmonic_number 0 -8 0 10 #fcfcfc #000000 #000000 5 256;
#X obj 467 258 r triFreq;
#X obj 558 351 t f f;
#X obj 558 370 *;
#X obj 681 227 cnv 15 220 220 empty empty 4th_Partial 20 12 0 12 #dcdcdc #404040 0;
#X obj 753 258 r reset;
#X obj 697 389 osc~;
#X obj 753 398 /;
#X obj 738 421 *~;
#X obj 697 368 *;
#X msg 753 332 1;
#X obj 753 280 t b b b;
#X obj 808 332 nbx 5 14 -1e+37 1e+37 0 1 empty empty harmonic_number 0 -8 0 10 #fcfcfc #000000 #000000 7 256;
#X obj 697 258 r triFreq;
#X obj 788 351 t f f;
#X obj 788 370 *;
#X obj 911 227 cnv 15 220 220 empty empty 5th_Partial 20 12 0 12 #dcdcdc #404040 0;
#X obj 983 258 r reset;
#X obj 927 389 osc~;
#X obj 983 398 /;
#X obj 968 421 *~;
#X obj 927 368 *;
#X msg 983 332 1;
#X obj 983 280 t b b b;
#X obj 1038 332 nbx 5 14 -1e+37 1e+37 0 1 empty empty harmonic_number 0 -8 0 10 #fcfcfc #000000 #000000 9 256;
#X obj 927 258 r triFreq;
#X obj 1018 351 t f f;
#X obj 1018 370 *;
#X msg 48 332 0;
#X msg 258 332 0;
#X text 12 43 This example works in a very similar way to the previous square wave example. The formula for each partial's amplitude is slightly different \, and the phase of each oscilator is set to 0 \, resulting in a triangular \, rather than square waveform.;
#X msg 488 332 0;
#X msg 718 332 0;
#X msg 948 332 0;
#X text 671 27 N.B.;
#X text 229 176 From here \, each partial has a successive odd-numbered multiple of the fundamental frequency \, and an amplitude of 1/"odd number squared" ---------->>;
#X text 674 171 If you prefer a formula \, each partial has frequency: f=fundamental*n \, and amplitude: a=1/(n^2);
#X text 706 26 if you checked out the [moreOnPhase] subpatch in the next example \, you may have noticed this example uses the [osc~] objects with phase 0 \, meaning we are summing cosine waves and not sine waves.;
#X obj 27 573 stereoOut~;
#X connect 1 0 29 0;
#X connect 3 0 1 0;
#X connect 3 1 2 0;
#X connect 4 0 5 0;
#X connect 5 0 6 0;
#X connect 6 0 3 0;
#X connect 8 0 71 0;
#X connect 9 0 18 0;
#X connect 11 0 17 0;
#X connect 12 0 14 0;
#X connect 13 0 14 1;
#X connect 14 0 26 0;
#X connect 15 0 12 0;
#X connect 16 0 13 0;
#X connect 17 0 72 0;
#X connect 17 1 16 0;
#X connect 17 2 27 0;
#X connect 18 0 26 0;
#X connect 19 0 32 0;
#X connect 19 0 81 0;
#X connect 21 0 28 0;
#X connect 25 0 9 0;
#X connect 26 0 19 0;
#X connect 27 0 15 1;
#X connect 27 0 33 0;
#X connect 28 0 32 0;
#X connect 30 0 25 0;
#X connect 31 0 15 0;
#X connect 33 0 34 0;
#X connect 33 1 34 1;
#X connect 34 0 13 1;
#X connect 36 0 42 0;
#X connect 37 0 39 0;
#X connect 38 0 39 1;
#X connect 39 0 26 0;
#X connect 40 0 37 0;
#X connect 41 0 38 0;
#X connect 42 0 74 0;
#X connect 42 1 41 0;
#X connect 42 2 43 0;
#X connect 43 0 40 1;
#X connect 43 0 45 0;
#X connect 44 0 40 0;
#X connect 45 0 46 0;
#X connect 45 1 46 1;
#X connect 46 0 38 1;
#X connect 48 0 54 0;
#X connect 49 0 51 0;
#X connect 50 0 51 1;
#X connect 51 0 26 0;
#X connect 52 0 49 0;
#X connect 53 0 50 0;
#X connect 54 0 75 0;
#X connect 54 1 53 0;
#X connect 54 2 55 0;
#X connect 55 0 52 1;
#X connect 55 0 57 0;
#X connect 56 0 52 0;
#X connect 57 0 58 0;
#X connect 57 1 58 1;
#X connect 58 0 50 1;
#X connect 60 0 66 0;
#X connect 61 0 63 0;
#X connect 62 0 63 1;
#X connect 63 0 26 0;
#X connect 64 0 61 0;
#X connect 65 0 62 0;
#X connect 66 0 76 0;
#X connect 66 1 65 0;
#X connect 66 2 67 0;
#X connect 67 0 64 1;
#X connect 67 0 69 0;
#X connect 68 0 64 0;
#X connect 69 0 70 0;
#X connect 69 1 70 1;
#X connect 70 0 62 1;
#X connect 71 0 9 1;
#X connect 72 0 12 1;
#X connect 74 0 37 1;
#X connect 75 0 49 1;
#X connect 76 0 61 1;
#X restore 8 65 pd simple-triangle;
#N canvas 109 -950 991 841 moreOnPhase 1;
#X obj 10 11 cnv 15 200 25 empty empty More_on_phase 20 12 0 14 #e0e0e0 #404040 0;
#N canvas 32 25 352 90 init 0;
#X obj 10 11 loadbang;
#X msg 200 34 \; sineWave sinesum 128 1;
#X msg 10 34 \; cosineWave cosinesum 128 0 1;
#X connect 0 0 2 0;
#X connect 0 0 1 0;
#X restore 913 25 pd init;
#N canvas 0 22 450 278 (subpatch) 0;
#X array cosineWave 131 float 1;
#A 0 0.998795 1 0.998795 0.995185 0.989177 0.980785 0.970031 0.95694 0.941544 0.92388 0.903989 0.881921 0.857729 0.83147 0.803208 0.773011 0.740952 0.707107 0.671559 0.634394 0.5957 0.555571 0.514103 0.471398 0.427556 0.382684 0.336891 0.290286 0.242981 0.195091 0.146732 0.0980184 0.049069 1.32679e-06 -0.0490663 -0.0980157 -0.146729 -0.195089 -0.242979 -0.290283 -0.336888 -0.382682 -0.427554 -0.471395 -0.514101 -0.555569 -0.595698 -0.634392 -0.671557 -0.707105 -0.74095 -0.773009 -0.803206 -0.831468 -0.857727 -0.88192 -0.903988 -0.923879 -0.941543 -0.95694 -0.970031 -0.980785 -0.989176 -0.995184 -0.998795 -1 -0.998796 -0.995185 -0.989177 -0.980786 -0.970032 -0.956941 -0.941545 -0.923881 -0.903991 -0.881923 -0.85773 -0.831471 -0.803209 -0.773013 -0.740953 -0.707109 -0.671561 -0.634396 -0.595702 -0.555573 -0.514106 -0.4714 -0.427558 -0.382687 -0.336893 -0.290288 -0.242984 -0.195094 -0.146734 -0.098021 -0.0490716 -3.98038e-06 0.0490637 0.0980131 0.146726 0.195086 0.242976 0.290281 0.336886 0.382679 0.427551 0.471393 0.514099 0.555566 0.595696 0.63439 0.671556 0.707103 0.740948 0.773007 0.803205 0.831467 0.857726 0.881919 0.903987 0.923878 0.941542 0.956939 0.97003 0.980784 0.989176 0.995184 0.998795 1 0.998796;
#X coords 0 1 130 -1 200 140 1;
#X restore 457 39 graph;
#N canvas 0 22 450 278 (subpatch) 0;
#X array sineWave 131 float 1;
#A 0 -0.0490676 0 0.0490676 0.0980171 0.14673 0.19509 0.24298 0.290284 0.33689 0.382683 0.427555 0.471396 0.514102 0.55557 0.595699 0.634393 0.671558 0.707106 0.740951 0.77301 0.803207 0.831469 0.857728 0.881921 0.903989 0.923879 0.941544 0.95694 0.970031 0.980785 0.989176 0.995185 0.998795 1 0.998796 0.995185 0.989177 0.980786 0.970032 0.956941 0.941545 0.92388 0.90399 0.881922 0.85773 0.831471 0.803209 0.773012 0.740952 0.707108 0.67156 0.634395 0.595701 0.555572 0.514105 0.471399 0.427557 0.382686 0.336892 0.290287 0.242983 0.195093 0.146733 0.0980197 0.0490703 2.65359e-06 -0.049065 -0.0980144 -0.146728 -0.195088 -0.242977 -0.290282 -0.336887 -0.382681 -0.427552 -0.471394 -0.5141 -0.555568 -0.595697 -0.634391 -0.671557 -0.707104 -0.740949 -0.773008 -0.803205 -0.831468 -0.857727 -0.88192 -0.903988 -0.923878 -0.941543 -0.956939 -0.97003 -0.980785 -0.989176 -0.995184 -0.998795 -1 -0.998796 -0.995185 -0.989177 -0.980786 -0.970032 -0.956942 -0.941545 -0.923881 -0.903991 -0.881923 -0.857731 -0.831472 -0.80321 -0.773013 -0.740954 -0.70711 -0.671562 -0.634397 -0.595703 -0.555574 -0.514107 -0.471401 -0.42756 -0.382688 -0.336895 -0.29029 -0.242985 -0.195095 -0.146736 -0.0980223 -0.0490729 -5.30718e-06 0.0490623;
#X coords 0 1 130 -1 200 140 1;
#X restore 686 39 graph;
#X text 9 87 In this square wave example \, we set the phase of all [osc~] objects to 0.75 \, that's three quarters of the way through one cycle (3/4 = 0.75).;
#X text 9 39 By default \, the [osc~] object loops round a cosine wave: a wave that starts at 1 \, and oscilates back and forth between 1/-1.;
#X text 446 39 1;
#X text 446 105 0;
#X text 439 165 -1;
#X text 675 39 1;
#X text 675 105 0;
#X text 668 165 -1;
#X text 9 135 So when we set the phase of [osc~] to 0.75 \, the waveform starts from 0 \, then ramps up to 1 \, continuing in the same way as the cosine waveform. This is a sinewave.;
#X text 569 24 [osc~] phase=0;
#X text 780 24 [osc~] phase=0.75;
#X text 9 186 We took the trouble to sum sinewaves (not cosines) in the previous example so that the resulting waveform looks sqare. in practice \, summing cosines in the same way sounds pretty much the same \, but isn't as clear visually when graphed. In practice \, it's not essential to be specific with sines/cosines \, just make sure you sync the [osc~] objects are reset so that they start together.;
#X obj 704 472 s phExAudio;
#X obj 704 454 tgl 15 0 empty empty empty 17 7 0 10 #fcfcfc #000000 #000000 0 1;
#X text 722 453 <--- HEAR AUDIO;
#X obj 450 350 bng 30 250 50 0 empty empty empty 17 7 0 10 #fcfcfc #000000 #000000;
#X msg 450 390 0;
#X obj 570 350 bng 30 250 50 0 empty empty empty 17 7 0 10 #fcfcfc #000000 #000000;
#X obj 450 418 s oscPhase;
#X obj 9 505 cnv 15 969 362 empty empty empty 20 12 0 14 #e0e0e0 #404040 0;
#X obj 11 579 bng 15 250 50 0 empty empty empty 17 7 0 10 #fcfcfc #000000 #000000;
#X msg 11 598 60;
#X obj 11 618 t f b;
#X obj 141 626 osc~;
#X obj 11 637 mtof;
#X msg 348 578 3;
#X obj 367 637 /;
#X msg 367 619 1;
#X obj 251 687 *~;
#X obj 11 656 s phExFreq;
#X obj 46 637 s phExReset;
#X obj 141 599 r phExFreq;
#X obj 163 580 r oscPhase;
#X obj 251 666 osc~;
#X obj 251 559 r phExFreq;
#X obj 272 647 r oscPhase;
#X obj 348 596 t f b f;
#X obj 251 620 *;
#X obj 348 559 r phExReset;
#X obj 547 637 /;
#X msg 547 619 1;
#X obj 431 687 *~;
#X obj 431 666 osc~;
#X obj 431 559 r phExFreq;
#X obj 452 647 r oscPhase;
#X obj 528 596 t f b f;
#X obj 431 620 *;
#X obj 528 559 r phExReset;
#X obj 727 637 /;
#X msg 727 619 1;
#X obj 611 687 *~;
#X obj 611 666 osc~;
#X obj 611 559 r phExFreq;
#X obj 632 647 r oscPhase;
#X obj 708 596 t f b f;
#X obj 611 620 *;
#X obj 708 559 r phExReset;
#X obj 907 637 /;
#X msg 907 619 1;
#X obj 791 687 *~;
#X obj 791 666 osc~;
#X obj 791 559 r phExFreq;
#X obj 812 647 r oscPhase;
#X obj 888 596 t f b f;
#X obj 791 620 *;
#X obj 888 559 r phExReset;
#X obj 141 726 *~ 0.5;
#X msg 38 681 0.75;
#X obj 38 699 s oscPhase;
#X obj 11 559 loadbang;
#X obj 141 745 clip~ -1 1;
#X obj 213 745 r phExAudio;
#X obj 141 774 *~;
#X msg 528 578 5;
#X msg 708 578 7;
#X msg 888 578 9;
#X text 10 540 Initialise;
#X text 137 540 Generate Square Wave;
#X obj 376 749 tgl 15 1 empty empty SEE_WAVEFORM 0 -6 0 10 #fcfcfc #000000 #000000 1 1;
#X obj 376 772 metro 250;
#X text 10 509 This looks a bit different \, but is functionally the same as the previous squarewave example;
#X obj 705 293 cnv 15 80 25 empty empty RESULT 20 12 0 12 #e0e0e0 #404040 0;
#X text 568 329 PHASE 0.75 SINE;
#X text 448 329 PHASE 0: COSINE;
#X obj 449 293 cnv 15 160 25 empty empty SWITCH_SINE/COSINE 20 12 0 12 #e0e0e0 #404040 0;
#X msg 570 390 0.75;
#X obj 9 293 cnv 15 160 25 empty empty SHOULD_I_CARE? 20 12 0 12 #e0e0e0 #404040 0;
#X text 9 363 Click on the two bang objects to switch the phases between 0 and 0.75. The sound shouldn't be significantly different \, but the plotted waveform will be.;
#X text 9 329 It depends \, let's see this at work using the same squarewave example:;
#X text 9 410 One difference that may affect a mix is that the cosine version of this patch has higher peaks \, and may give you less headroom to work with for the same overall volume.;
#N canvas 0 22 450 300 (subpatch) 0;
#X array phExSqWave 512 float 4;
#X coords 0 1 511 -1 200 100 1;
#X restore 705 338 graph;
#X text 687 428 -1;
#X text 693 382 0;
#X text 693 332 1;
#X obj 376 795 tabwrite~ phExSqWave;
#X obj 141 803 stereoOut~;
#X connect 17 0 16 0;
#X connect 19 0 20 0;
#X connect 20 0 22 0;
#X connect 21 0 89 0;
#X connect 24 0 25 0;
#X connect 25 0 26 0;
#X connect 26 0 28 0;
#X connect 26 1 34 0;
#X connect 26 1 71 0;
#X connect 27 0 70 0;
#X connect 28 0 33 0;
#X connect 29 0 40 0;
#X connect 30 0 32 1;
#X connect 31 0 30 0;
#X connect 32 0 70 0;
#X connect 35 0 27 0;
#X connect 36 0 27 1;
#X connect 37 0 32 0;
#X connect 38 0 41 0;
#X connect 39 0 37 1;
#X connect 40 0 41 1;
#X connect 40 1 31 0;
#X connect 40 2 30 1;
#X connect 41 0 37 0;
#X connect 42 0 29 0;
#X connect 43 0 45 1;
#X connect 44 0 43 0;
#X connect 45 0 70 0;
#X connect 46 0 45 0;
#X connect 47 0 50 0;
#X connect 48 0 46 1;
#X connect 49 0 50 1;
#X connect 49 1 44 0;
#X connect 49 2 43 1;
#X connect 50 0 46 0;
#X connect 51 0 77 0;
#X connect 52 0 54 1;
#X connect 53 0 52 0;
#X connect 54 0 70 0;
#X connect 55 0 54 0;
#X connect 56 0 59 0;
#X connect 57 0 55 1;
#X connect 58 0 59 1;
#X connect 58 1 53 0;
#X connect 58 2 52 1;
#X connect 59 0 55 0;
#X connect 60 0 78 0;
#X connect 61 0 63 1;
#X connect 62 0 61 0;
#X connect 63 0 70 0;
#X connect 64 0 63 0;
#X connect 65 0 68 0;
#X connect 66 0 64 1;
#X connect 67 0 68 1;
#X connect 67 1 62 0;
#X connect 67 2 61 1;
#X connect 68 0 64 0;
#X connect 69 0 79 0;
#X connect 70 0 74 0;
#X connect 71 0 72 0;
#X connect 73 0 24 0;
#X connect 74 0 76 0;
#X connect 74 0 98 0;
#X connect 75 0 76 1;
#X connect 76 0 99 0;
#X connect 77 0 49 0;
#X connect 78 0 58 0;
#X connect 79 0 67 0;
#X connect 82 0 83 0;
#X connect 83 0 98 0;
#X connect 89 0 22 0;
#X restore 8 91 pd moreOnPhase;
#X text 148 65 Make a triangle wave using additive synthesis;
#X text 148 39 Make a square wave using additive synthesis;
#X text 148 91 Some extra detail on phase and [osc~];
#X obj 7 6 cnv 15 270 25 empty empty 3.4:\ Waveform\ Recipies 20 12 0 14 #dcdcdc #404040 0;
