#N canvas 177 33 1214 804 12;
#X obj 1 2 cnv 15 1210 800 empty empty empty 20 12 0 14 -203904 -66577
0;
#X obj 15 101 inlet;
#X msg 15 215 \$1 10;
#X obj 15 239 line~;
#X obj 195 211 inlet;
#X msg 195 235 \$1 10;
#X obj 457 260 inlet;
#X msg 457 284 \$1 10;
#X text 261 436 <-- Modulator;
#X obj 132 525 *~;
#X text 157 525 <-- Apply Depth Control;
#X obj 15 572 +~;
#X text 45 572 <-- Add Modulator to the Carrier Frequency;
#X obj 15 781 outlet~;
#X obj 3 4 cnv 15 900 40 empty empty FM_ADSR 20 12 0 20 -233017 -66577
0;
#X text 71 778 <-- Signal Outlet: send sound out to the patch 'above'
;
#X obj 63 238 line;
#X obj 195 259 line;
#X text 246 209 We'll use a multiple of the carrier freq for the mod
frequency so that we can maintain a consistent (tracking) timbre,
f 15;
#X obj 132 355 *;
#X obj 195 282 t b f;
#X text 519 240 We'll do the same for depth: and set it as a multiple
of the carrier freq, f 12;
#X obj 15 751 *~;
#X text 55 751 <-- Apply Envelope;
#X text 6 42 This is a rehashing of simpleFM~ \, with a midi pitch
input \, and a fixed AR envelope.;
#X obj 63 261 s \$0-carFreq;
#X obj 104 282 r \$0-carFreq;
#X obj 367 338 r \$0-carFreq;
#X obj 457 338 t b f;
#X obj 457 308 line;
#X obj 405 389 *;
#X text 456 240 DEPTH;
#X text 196 191 MOD FREQ MULTIPLIER;
#X text 681 180 AR ENVELOPE;
#X obj 15 188 mtof;
#X text 58 98 <-- MIDI NOTE-VELOCITY PAIRS;
#X obj 15 128 unpack f f;
#X obj 682 200 / 127;
#X obj 682 702 adsr~, f 19;
#X obj 714 678 inlet;
#X obj 754 678 inlet;
#X obj 794 678 inlet;
#X obj 834 678 inlet;
#X text 712 660 A;
#X text 752 660 D;
#X text 792 660 S;
#X text 832 660 R;
#X text 51 163 Convert MIDI to carrier frequency, f 13;
#X text 723 200 Convert MIDI velocity to amplitude in range 0-1, f
15;
#X obj 132 408 waveSelect~;
#X obj 177 382 r \$0-setModWave;
#X obj 15 633 waveSelect~;
#X obj 70 610 r \$0-setCarWave;
#X obj 195 353 s \$0-resetPhase;
#X obj 289 382 r \$0-resetPhase;
#X obj 183 610 r \$0-resetPhase;
#X obj 932 213 inlet;
#X text 931 169 Wave Select;
#X obj 1012 213 inlet;
#X text 934 195 mod;
#X text 1014 195 car;
#X obj 932 282 s \$0-setModWave;
#X obj 970 251 s \$0-setCarWave;
#X connect 1 0 36 0;
#X connect 2 0 3 0;
#X connect 2 0 16 0;
#X connect 3 0 11 0;
#X connect 4 0 5 0;
#X connect 5 0 17 0;
#X connect 6 0 7 0;
#X connect 7 0 29 0;
#X connect 9 0 11 1;
#X connect 11 0 51 0;
#X connect 16 0 25 0;
#X connect 17 0 20 0;
#X connect 19 0 49 0;
#X connect 20 0 19 0;
#X connect 20 0 53 0;
#X connect 20 1 19 1;
#X connect 22 0 13 0;
#X connect 26 0 19 0;
#X connect 27 0 30 0;
#X connect 28 0 30 0;
#X connect 28 1 30 1;
#X connect 29 0 28 0;
#X connect 30 0 9 1;
#X connect 34 0 2 0;
#X connect 36 0 34 0;
#X connect 36 1 37 0;
#X connect 37 0 38 0;
#X connect 38 0 22 1;
#X connect 39 0 38 1;
#X connect 40 0 38 2;
#X connect 41 0 38 3;
#X connect 42 0 38 4;
#X connect 49 0 9 0;
#X connect 50 0 49 1;
#X connect 51 0 22 0;
#X connect 52 0 51 1;
#X connect 54 0 49 2;
#X connect 55 0 51 2;
#X connect 56 0 61 0;
#X connect 58 0 62 0;
