#N canvas 217 69 452 212 12;
#X obj 11 6 cnv 15 430 40 empty empty 7.4_UpdateFM-Voice 20 12 0 20 #e0e0e0 #404040 0;
#X text 20 54 Here's an encapsulated version of FMvoiceAR~. Lets convert it to take [adsr~] as its envelope instead;
#N canvas 636 -761 731 590 voice-FMAR~ 0;
#X obj 23 150 mtof;
#X obj 90 139 / 127;
#X obj 23 338 simpleFM~;
#X obj 53 302 *, f 5;
#X obj 63 264 t b f;
#X obj 87 456 ar~, f 21;
#X obj 23 402 *~;
#X obj 23 495 *~;
#X obj 90 181 t b f;
#X obj 216 86 inlet;
#X obj 313 86 inlet;
#X obj 23 86 inlet;
#X obj 399 86 inlet;
#X obj 479 86 inlet;
#X obj 23 527 outlet~;
#X obj 90 203 s \$0-bang;
#X obj 87 413 r \$0-bang;
#X obj 159 203 s \$0-amp;
#X obj 63 237 r \$0-ratio;
#X obj 216 116 s \$0-ratio;
#X obj 313 115 s \$0-depth;
#X obj 101 302 r \$0-depth;
#X obj 41 373 r \$0-amp;
#X obj 399 115 s \$0-att;
#X obj 479 115 s \$0-rel;
#X obj 159 413 r \$0-att;
#X obj 231 413 r \$0-rel;
#X obj 23 116 unpack 0 0;
#X text 22 63 LIST: MIDI NOTE \, VELOCITY;
#X text 207 63 MOD RATIO;
#X text 304 63 MOD DEPTH;
#X text 395 63 ATTACK;
#X text 474 63 RELEASE;
#X text 14 3 INLETS: 1 - Note-velocity pair \, 2 - Ratio \, 3 - Depth;
#X text 70 21 4 - Attack \, 5 - Release;
#X text 22 559 OUTLET: FM Signal OUt;
#X obj 90 159 pow 2;
#X connect 0 0 2 0;
#X connect 0 0 3 0;
#X connect 1 0 36 0;
#X connect 2 0 6 0;
#X connect 3 0 2 1;
#X connect 4 0 3 0;
#X connect 4 1 3 1;
#X connect 5 0 7 1;
#X connect 6 0 7 0;
#X connect 7 0 14 0;
#X connect 8 0 15 0;
#X connect 8 1 17 0;
#X connect 9 0 19 0;
#X connect 10 0 20 0;
#X connect 11 0 27 0;
#X connect 12 0 23 0;
#X connect 13 0 24 0;
#X connect 16 0 5 0;
#X connect 18 0 4 0;
#X connect 21 0 2 2;
#X connect 22 0 6 1;
#X connect 25 0 5 1;
#X connect 26 0 5 2;
#X connect 27 0 0 0;
#X connect 27 1 1 0;
#X connect 36 0 8 0;
#X restore 20 99 pd voice-FMAR~;
#X text 20 131 We'll need to add inlets for the decay and sustain values needed by ADSR \, and then change the [ar~] object in the patch.;
