#N canvas 273 -950 1526 902 12;
#X obj 2 7 cnv 15 1113 25 empty empty 7.5:\ Better\ Polyphonic\ FM\ Synth 20 12 0 14 #dcdcdc #404040 0;
#X obj 622 127 hsl 107 37 0.1 1000 1 1 empty empty Modulator\ Ratio -2 -8 0 10 #fcfcfc #000000 #000000 950 1;
#X obj 738 127 hsl 107 37 0.1 10000 1 1 empty empty Modulator\ Depth -2 -8 0 10 #fcfcfc #000000 #000000 2620 1;
#X obj 465 635 output~;
#X obj 889 127 hsl 107 37 10 1000 1 1 empty empty Attack -2 -8 0 10 #fcfcfc #000000 #000000 4200 1;
#X obj 1238 127 hsl 103 37 0.001 10000 1 1 empty empty Release -2 -8 0 10 #fcfcfc #000000 #000000 9800 1;
#X obj 447 115 notein;
#X obj 447 145 poly2clone 16 1;
#X obj 1006 127 hsl 107 37 10 1000 1 1 empty empty Decay -2 -8 0 10 #fcfcfc #000000 #000000 4200 1;
#X obj 1122 127 hsl 107 37 0.01 1 1 1 empty empty Sustain -2 -8 0 10 #fcfcfc #000000 #000000 10600 1;
#X obj 619 169 s \$0-modR;
#X obj 735 169 s \$0-modD;
#X obj 886 169 s \$0-a;
#X obj 1003 169 s \$0-d;
#X obj 1119 169 s \$0-s;
#X obj 1235 169 s \$0-r;
#X obj 566 298 cloneReceive \$0-modR;
#X obj 583 319 cloneReceive \$0-modD;
#X obj 605 340 cloneReceive \$0-a;
#X obj 629 361 cloneReceive \$0-d;
#X obj 650 382 cloneReceive \$0-s;
#X obj 671 403 cloneReceive \$0-r;
#X text 21 36 Let's update our polyphonic synth with the new version of our FM voice abstraction. If needed you can use the pre-made [voice-FMADSR~] abstraction from the abstraction library., f 112;
#X text 21 76 For convinience \, the [poly2clone] and [cloneReceive] abstracions are included to make patching a little easier. Open them up to get an idea of what they're doing., f 50;
#X connect 1 0 10 0;
#X connect 2 0 11 0;
#X connect 4 0 12 0;
#X connect 5 0 15 0;
#X connect 6 0 7 0;
#X connect 6 1 7 1;
#X connect 8 0 13 0;
#X connect 9 0 14 0;
