#N canvas 32 25 1408 847 12;
#X obj 3 3 cnv 15 1400 60 empty empty 9c_OperatorPlayground 20 12 0
20 -233017 -66577 0;
#X text 6 68 Copy and paste these operators to create interesting PM
algorithms!;
#X obj 1245 111 notein, f 16;
#X obj 1245 134 pack 0 0;
#X obj 1245 182 s MIDInotes;
#X obj 1009 81 randMIDI12-tone;
#X obj 554 707 vol-ctl~;
#X obj 554 747 dac~;
#X text 759 716 Then send the audio out here!;
#X obj 13 114 opGUI~;
#X obj 553 457 opGUI~;
#X connect 2 0 3 0;
#X connect 2 1 3 1;
#X connect 3 0 4 0;
#X connect 5 0 4 0;
#X connect 6 0 7 0;
#X connect 6 0 7 1;
#X connect 10 0 6 0;
