#N canvas 796 133 536 601 12;
#X obj 19 400 line~;
#X obj 144 241 r \$0-att;
#X obj 81 241 r \$0-rel;
#X msg 62 360 1 \$1;
#X msg 19 360 0 \$1;
#X obj 19 241 t b b;
#X obj 19 280 del;
#X obj 19 333 i;
#X obj 62 333 i;
#X obj 19 217 r \$0-trig;
#X obj 2 3 cnv 15 100 60 empty empty AR 5 16 0 20 -233017 -66577 0
;
#X obj 36 4 hsl 150 30 2 5000 1 0 \$0-att \$0-setAtt ATTACK 7 16 0
15 -261682 -1 -1 7600 1;
#X obj 36 35 hsl 150 30 2 5000 1 0 \$0-rel \$0-setRel RELEASE 7 16
0 15 -261682 -1 -1 12900 1;
#X obj 2 35 bng 30 250 50 0 \$0-trig \$0-trigIn empty 17 7 0 10 -191407
-258113 -1;
#X obj 18 108 inlet;
#X obj 19 424 outlet~;
#X obj 101 108 inlet;
#X obj 201 108 inlet;
#X text 11 85 Bang in;
#X text 99 85 attack;
#X text 195 85 release;
#X obj 101 138 s \$0-setAtt;
#X obj 201 138 s \$0-setRel;
#X obj 18 138 s \$0-trigIn;
#X connect 0 0 15 0;
#X connect 1 0 6 1;
#X connect 1 0 8 1;
#X connect 2 0 7 1;
#X connect 3 0 0 0;
#X connect 4 0 0 0;
#X connect 5 0 6 0;
#X connect 5 1 8 0;
#X connect 6 0 7 0;
#X connect 7 0 4 0;
#X connect 8 0 3 0;
#X connect 9 0 5 0;
#X connect 14 0 23 0;
#X connect 16 0 21 0;
#X connect 17 0 22 0;
#X coords 0 -1 1 1 190 68 2 0 0;
