#N canvas -72 -1055 1135 777 12;
#X obj 59 76 noise~;
#X obj 59 100 hip~ 1200;
#X obj 59 210 *~;
#X obj 59 234 clip~ -1 1;
#X obj 59 258 outlet~;
#X obj 230 28 inlet;
#X obj 230 51 t b b;
#X msg 282 85 1 1;
#X obj 230 85 del 2;
#X msg 230 108 0 30;
#X obj 257 182 line~;
#X connect 0 0 1 0;
#X connect 1 0 2 0;
#X connect 2 0 3 0;
#X connect 3 0 4 0;
#X connect 5 0 6 0;
#X connect 6 0 8 0;
#X connect 6 1 7 0;
#X connect 7 0 10 0;
#X connect 8 0 9 0;
#X connect 9 0 10 0;
#X connect 10 0 2 1;
