#N canvas 123 -1055 702 822 12;
#X obj 4 4 cnv 15 308 25 empty empty 4.1:\ Basic\ Amplitude\ Modulation 20 12 0 14 #dcdcdc #404040 0;
#X obj 4 34 cnv 15 308 25 empty empty Carrier\ Wave 20 12 0 14 #dcdcdc #404040 0;
#X obj 362 34 cnv 15 308 25 empty empty Modulator\ Wave 20 12 0 14 #dcdcdc #404040 0;
#X obj 26 75 hsl 177 37 0 127 0 1 empty empty Carrier\ Freq -2 -8 0 10 #fcfcfc #000000 #000000 10897 1;
#X floatatom 26 135 5 0 0 0 - - - 0;
#X text 77 121 by default \, the slider outputs numbers that can be used for MIDI: 0-127, f 30;
#X obj 26 183 mtof;
#X text 77 183 MIDI to Frequency;
#X msg 26 212 \$1 10;
#X text 77 212 add freq to a list with number 10;
#X obj 26 241 line~;
#X text 77 241 We can use out line~ to smooth out sudden value changes. Such changes can cause clicks in the audio., f 33;
#X obj 26 308 osc~;
#X text 77 308 generate the carrier wave;
#X obj 26 337 s~ bAM-carWave;
#X obj 363 75 hsl 177 37 10 1000 1 1 empty empty Modulator\ Freq -2 -8 0 10 #fcfcfc #000000 #000000 9065 1;
#X floatatom 363 135 5 0 0 0 - - - 0;
#X msg 363 172 \$1 10;
#X obj 363 201 line~;
#X obj 363 238 osc~;
#X text 414 238 generate the modulator wave;
#X text 558 76 In properties \, the output of the slider has been changed so we get a different range of values here, f 16;
#X obj 21 394 r~ bAM-carWave;
#X obj 229 394 r~ bAM-modWave;
#X obj 363 267 s~ bAM-modWave;
#X obj 5 365 cnv 15 308 25 empty empty The\ AM\ bit... 20 12 0 14 #dcdcdc #404040 0;
#X text 438 416 Now we can catch our carrier and multiplier signals and muliply them, f 33;
#X obj 21 561 *~;
#X text 233 571 By multiplying these together \, the modulator wave acts as an ever-changing volume control for the carrier wave. This style of AM is called Ring Modulation., f 33;
#X obj 21 417 scope~ 130 130 16 3 128 -1 1 0 0 0 0 205 229 232 74 79 77 96 98 102 0 empty;
#X obj 229 415 scope~ 130 130 16 3 128 -1 1 0 0 0 0 205 229 232 74 79 77 96 98 102 0 empty;
#X obj 21 593 scope~ 130 130 16 3 128 -1 1 0 0 0 0 205 229 232 74 79 77 96 98 102 0 empty;
#X obj 21 761 stereoOut~;
#X connect 3 0 4 0;
#X connect 4 0 6 0;
#X connect 6 0 8 0;
#X connect 8 0 10 0;
#X connect 10 0 12 0;
#X connect 12 0 14 0;
#X connect 15 0 16 0;
#X connect 16 0 17 0;
#X connect 17 0 18 0;
#X connect 18 0 19 0;
#X connect 19 0 24 0;
#X connect 22 0 29 0;
#X connect 22 0 27 0;
#X connect 23 0 30 0;
#X connect 23 0 27 1;
#X connect 27 0 31 0;
#X connect 27 0 32 0;
#X connect 27 0 32 1;
