#N canvas 13 38 1177 834 12;
#X obj 3 5 cnv 15 1096 24 empty empty Fancy\ Amplitude\ Modulation 20 12 0 14 #dcdcdc #404040 0;
#X obj 3 97 cnv 15 308 25 empty empty Carrier\ Wave 20 12 0 14 #dcdcdc #404040 0;
#X obj 361 97 cnv 15 308 25 empty empty Modulator\ Wave 20 12 0 14 #dcdcdc #404040 0;
#X obj 25 138 hsl 177 37 0 127 0 1 empty empty Carrier\ Freq -2 -8 0 10 #fcfcfc #000000 #000000 1973 1;
#X floatatom 25 181 5 0 0 0 - - - 0;
#X obj 25 208 mtof;
#X msg 25 237 \$1 10;
#X obj 25 266 line~;
#X obj 25 294 osc~;
#X text 76 294 generate the carrier wave;
#X obj 362 138 hsl 177 37 1 1000 1 1 empty empty Modulator\ Freq -2 -8 0 10 #fcfcfc #000000 #000000 8807 1;
#X floatatom 362 182 5 0 0 0 - - - 0;
#X msg 362 209 \$1 10;
#X obj 362 238 line~;
#X obj 362 265 osc~;
#X text 413 265 generate the modulator wave;
#X obj 692 97 cnv 15 308 25 empty empty Setting\ Modulation\ Depth 20 12 0 14 #dcdcdc #404040 0;
#X text 3 35 This time \, we modify our modulator to be in the range of 0-1 \, then scale it by the ammount of modulation we want to apply \, and then take this away from 1 to get our final modulating signal. Why? Because if we simply scale the modulator wave by depth \, we would also reduce the volume of the sound as depth is reduced (depth=0 means no sound)., f 142;
#X obj 362 294 s~ fAM-modWave;
#X obj 25 323 s~ fAM-carWave;
#X obj 4 354 cnv 15 308 25 empty empty The\ AM\ bit... 20 12 0 14 #dcdcdc #404040 0;
#X obj 20 583 *~;
#X obj 20 384 r~ fAM-carWave;
#X obj 228 384 r~ fAM-modWithDepth;
#X text 437 406 The carrier signal can have varying degrees of influence on the sound thanks to the depth control., f 20;
#X obj 20 607 scope~ 130 130 16 3 128 -1 1 0 0 0 0 205 229 232 74 79 77 96 98 102 0 empty;
#X obj 20 405 scope~ 130 130 16 3 128 -1 1 0 0 0 0 205 229 232 74 79 77 96 98 102 0 empty;
#X obj 228 405 scope~ 130 130 16 3 128 -1 1 0 0 0 0 205 229 232 74 79 77 96 98 102 0 empty;
#X obj 688 268 cnv 19 450 200 empty empty empty 20 12 0 12 #dfdfdf #404040 0;
#X obj 912 138 hsl 177 37 0 1 0 1 empty empty Modulator\ Depth -2 -8 0 10 #fcfcfc #000000 #000000 0 1;
#X floatatom 909 178 5 0 0 0 - - - 0;
#X msg 909 199 \$1 10;
#X obj 772 277 *~ 0.5;
#X obj 772 300 +~ 0.5;
#X text 824 281 scale to 0-1 range, f 9;
#X obj 772 330 *~, f 20;
#X obj 909 222 line~;
#X obj 696 277 sig~ 1;
#X obj 696 371 -~;
#X text 918 329 scale by chosen depth value;
#X text 724 371 take our modulator away from 1 \, this way if depth == 0 \, we still get a full-volume carrier wave when we multiply the carrier and modifier together.;
#X obj 696 432 s~ fAM-modWithDepth;
#X obj 772 138 r~ fAM-modWave;
#X text 697 480 NOTE: the mod depth section highlighted in the box above can be abbreviated using an expr~ object \, like so:;
#X obj 688 536 cnv 19 450 100 empty empty empty 20 12 0 12 #dfdfdf #404040 0;
#X obj 700 574 expr~ 1 - ( (($v1*0.5)+0.5) * $v2 );
#X text 697 549 FM modwave;
#X text 937 549 Mod depth;
#X text 698 602 AM modulator with depth;
#X text 701 646 The same thing is happening here \, we scale our mod wave ($v1) to range 0-1 \, and we multiply the modulator by depth ($v2) \, and then we take this product away from 1;
#X obj 20 767 stereoOut~;
#X connect 3 0 4 0;
#X connect 4 0 5 0;
#X connect 5 0 6 0;
#X connect 6 0 7 0;
#X connect 7 0 8 0;
#X connect 8 0 19 0;
#X connect 10 0 11 0;
#X connect 11 0 12 0;
#X connect 12 0 13 0;
#X connect 13 0 14 0;
#X connect 14 0 18 0;
#X connect 21 0 25 0;
#X connect 21 0 50 0;
#X connect 21 0 50 1;
#X connect 22 0 26 0;
#X connect 22 0 21 0;
#X connect 23 0 27 0;
#X connect 23 0 21 1;
#X connect 29 0 30 0;
#X connect 30 0 31 0;
#X connect 31 0 36 0;
#X connect 32 0 33 0;
#X connect 33 0 35 0;
#X connect 35 0 38 1;
#X connect 36 0 35 1;
#X connect 37 0 38 0;
#X connect 38 0 41 0;
#X connect 42 0 32 0;
