#N canvas 101 82 1091 680 12;
#X obj 4 4 cnv 15 472 25 empty empty Ring\ Mod\ Abstraction 20 12 0 14 #dcdcdc #404040 0;
#X obj 367 51 hsl 128 15 0 127 0 0 empty empty car -2 -8 0 10 #fcfcfc #000000 #000000 0 1;
#X obj 367 75 mtof;
#X msg 367 104 \$1 10;
#X obj 367 133 line~;
#X obj 504 51 hsl 128 15 0 127 0 0 empty empty mod -2 -8 0 10 #fcfcfc #000000 #000000 0 1;
#X obj 504 75 mtof;
#X msg 504 104 \$1 10;
#X obj 504 133 line~;
#X obj 656 51 hsl 128 15 0 1 0 0 empty empty mod\ depth -2 -8 0 10 #fcfcfc #000000 #000000 0 1;
#X text 7 38 1 - Copy over the modulation depth section from the previous example, f 43;
#X obj 367 163 waveSelUI~;
#X obj 504 163 waveSelUI~;
#X text 7 100 2 - Copy the part of the patch that's doing the AM and paste it to a new file. It should take in the two signals \, and a depth value., f 43;
#X text 7 180 3 - Add the needed inlets/outlets and comments to the patch, f 43;
#X text 7 231 4 - Replace the AM part of this patch with your new abstraction., f 43;
#X obj 364 525 stereoOut~;
#X connect 1 0 2 0;
#X connect 2 0 3 0;
#X connect 3 0 4 0;
#X connect 4 0 11 0;
#X connect 5 0 6 0;
#X connect 6 0 7 0;
#X connect 7 0 8 0;
#X connect 8 0 12 0;
