#N canvas 827 239 527 327 12;
#X obj 219 259 adsrUI~;
#X obj 219 19 notein;
#X obj 219 48 stripnote;
#X obj 219 129 waveSelUI~;
#X obj 219 79 spigot;
#X obj 79 299 scope~ 130 130 16 3 128 -1 1 0 0 0 0 90 90 90 227 223 217 150 142 130 0 empty;
#X obj 419 139 delay 500;
#X obj 239 439 stereoOut~;
#X obj 219 103 mtof;
#X obj 351 139 t b;
#X obj 419 161 t b;
#X msg 351 161 127;
#X msg 419 183 0;
#X obj 79 139 scope~ 130 130 16 3 128 -1 1 0 0 0 0 90 90 90 227 223 217 150 142 130 0 empty;
#X connect 0 0 5 0 empty;
#X connect 0 0 7 0 empty;
#X connect 0 0 7 1 empty;
#X connect 1 0 2 0 empty;
#X connect 1 1 2 1 empty;
#X connect 2 0 4 0 empty;
#X connect 2 0 9 0 empty;
#X connect 2 0 6 0 empty;
#X connect 3 0 0 0 empty;
#X connect 3 0 13 0 empty;
#X connect 4 0 8 0 empty;
#X connect 6 0 10 0 empty;
#X connect 8 0 3 0 empty;
#X connect 9 0 11 0 empty;
#X connect 10 0 12 0 empty;
#X connect 11 0 0 1 empty;
#X connect 12 0 0 1 empty;
