#N canvas 827 239 527 327 12;
#X obj 242 79 hsl 128 17 20 4000 1 0 empty empty empty -2 -8 0 10 #e3dfd9 #5a5a5a #5a5a5a 0 1;
#X text 239 58 Frequency;
#X floatatom 239 99 14 0 0 0 empty - - 24;
#X obj 239 239 +~;
#X obj 288 159 * 0.5;
#X obj 288 199 *~, f 6;
#X obj 439 159 osc~;
#X obj 442 58 hsl 128 17 1 100 1 0 empty empty empty -2 -8 0 10 #e3dfd9 #5a5a5a #5a5a5a 0 1;
#X text 439 38 LFO freq;
#X obj 239 268 osc~;
#X obj 239 379 *~;
#X obj 439 340 osc~;
#X obj 442 239 hsl 128 17 1 100 1 0 empty empty empty -2 -8 0 10 #e3dfd9 #5a5a5a #5a5a5a 0 1;
#X text 439 219 LFO freq;
#X obj 439 379 *~ 0.5;
#X obj 439 408 +~ 0.5;
#X obj 599 59 scope~ 130 130 16 3 128 -1 1 0 0 0 0 90 90 90 227 223 217 150 142 130 0 empty;
#X obj 599 239 scope~ 130 130 16 3 128 -1 1 0 0 0 0 90 90 90 227 223 217 150 142 130 0 empty;
#X obj 69 479 scope~ 130 130 16 3 128 -1 1 0 0 0 0 90 90 90 227 223 217 150 142 130 0 empty;
#X obj 69 309 scope~ 130 130 16 3 128 -1 1 0 0 0 0 90 90 90 227 223 217 150 142 130 0 empty;
#X obj 269 495 stereoOut~;
#X floatatom 439 99 14 0 0 0 empty - - 24;
#X connect 0 0 2 0 empty;
#X connect 2 0 3 0 empty;
#X connect 2 0 4 0 empty;
#X connect 3 0 9 0 empty;
#X connect 4 0 5 0 empty;
#X connect 5 0 3 1 empty;
#X connect 6 0 5 1 empty;
#X connect 6 0 16 0 64......................vC.........7..........i.........vH...Ph++++fB...j3+++On....I9+++C;
#X connect 7 0 21 0 empty;
#X connect 9 0 10 0 empty;
#X connect 9 0 19 0 32.................G....b0++++A....W8+++WA....;
#X connect 10 0 18 0 32.................7....b0+++OO....W8+++CE....;
#X connect 10 0 20 0 empty;
#X connect 10 0 20 1 empty;
#X connect 11 0 14 0 empty;
#X connect 12 0 11 0 empty;
#X connect 14 0 15 0 empty;
#X connect 15 0 10 1 empty;
#X connect 15 0 17 0 48......................LH.........CB...Lz+++uk....C8+++aI...PQ++++;
#X connect 21 0 6 0 empty;
