#N canvas 827 239 527 327 12;
#X text 1003 79 SEL M WAVE;
#X obj 142 19 hsl 128 17 0.01 1000 1 0 empty empty empty -2 -8 0 10 #e3dfd9 #5a5a5a #5a5a5a 0 0;
#X msg 139 132 1000 \$1;
#X obj 139 161 /;
#X msg 139 190 \$1 10;
#X obj 139 219 line;
#X obj 139 259 bl.square~;
#X obj 246 132 loadbang;
#X obj 246 190 metro 250;
#X msg 246 161 1;
#X msg 246 219 0.5;
#X obj 379 179 scope~ 361 351 32 3 128 -1 1 0 0 0 0 10 90 0 0 0 0 60 57 52 0 empty;
#X obj 139 291 *~ 0.9;
#X obj 139 479 stereoOut~;
#X text 19 57 CYCLE TIME IN MS, f 11;
#X obj 173 58 * 0.5;
#X floatatom 479 121 28 0 0 0 empty - - 36;
#X obj 459 80 cnv 15 172 37 empty empty CLICK\ INTERVAL 20 12 0 30 #e3dfd9 #5a5a5a 0;
#X connect 1 0 2 0 empty;
#X connect 1 0 15 0 empty;
#X connect 2 0 3 0 empty;
#X connect 3 0 4 0 empty;
#X connect 4 0 5 0 empty;
#X connect 5 0 6 0 empty;
#X connect 6 0 12 0 empty;
#X connect 7 0 9 0 empty;
#X connect 8 0 10 0 empty;
#X connect 9 0 8 0 empty;
#X connect 10 0 6 1 empty;
#X connect 12 0 13 0 empty;
#X connect 12 0 13 1 empty;
#X connect 12 0 11 0 64......................fK.........3B...31+++Ot....t8+++iK...Pa++++vC...z1+++O7....88+++C;
#X connect 15 0 16 0 empty;
