#N canvas 55 37 681 673 12;
#X obj 3 3 cnv 15 672 40 empty empty FMwaveSel~ 20 12 0 20 #e0e0e0
#404040 0;
#X obj 188 421 *~;
#X obj 8 466 +~;
#X obj 8 643 outlet~;
#X msg 8 144 \$1 10;
#X obj 8 166 line~;
#X obj 8 81 inlet;
#X msg 188 144 \$1 10;
#X obj 188 166 line~;
#X obj 188 81 inlet;
#X msg 468 354 \$1 10;
#X obj 468 376 line~;
#X obj 468 81 inlet;
#X obj 8 110 f \$1;
#X obj 188 110 f \$2;
#X obj 468 110 f \$3;
#X obj 382 80 loadbang;
#X obj 188 230 waveSelect~;
#X obj 8 491 waveSelect~;
#X obj 547 82 inlet;
#X obj 592 82 inlet;
#X obj 537 111 s \$0-c;
#X obj 593 111 s \$0-m;
#X obj 75 146 t b;
#X obj 75 175 s \$0-rstPh;
#X obj 291 200 r \$0-rstPh;
#X obj 125 465 r \$0-rstPh;
#X obj 59 465 r \$0-c;
#X obj 239 200 r \$0-m;
#X text 6 57 CARRIER FREQ (Hz);
#X text 186 57 MODULATOR FREQ (Hz);
#X text 466 57 DEPTH;
#X text 545 58 CAR;
#X text 590 58 MOD;
#X text 67 643 FM SIGNAL OUT;
#X connect 1 0 2 1;
#X connect 2 0 18 0;
#X connect 4 0 5 0;
#X connect 5 0 2 0;
#X connect 6 0 13 0;
#X connect 7 0 8 0;
#X connect 8 0 17 0;
#X connect 9 0 14 0;
#X connect 10 0 11 0;
#X connect 11 0 1 1;
#X connect 12 0 15 0;
#X connect 13 0 4 0;
#X connect 13 0 23 0;
#X connect 14 0 7 0;
#X connect 15 0 10 0;
#X connect 16 0 13 0;
#X connect 16 0 14 0;
#X connect 16 0 15 0;
#X connect 17 0 1 0;
#X connect 18 0 3 0;
#X connect 19 0 21 0;
#X connect 20 0 22 0;
#X connect 23 0 24 0;
#X connect 25 0 17 2;
#X connect 26 0 18 2;
#X connect 27 0 18 1;
#X connect 28 0 17 1;
