#N canvas 624 260 463 450 12;
#X obj 19 330 *~;
#X obj 36 85 t b b;
#X obj 37 153 line~;
#X msg 92 130 1 1;
#X msg 37 130 0 30;
#X obj 36 107 del 3;
#X obj 19 234 noise~;
#X obj 19 287 hip~ 5600;
#X obj 19 359 clip~ -1 1;
#X obj 3 3 cnv 15 350 40 empty empty Simple_Hat 20 12 0 20 #e0e0e0
#404040 0;
#X obj 36 52 inlet;
#X obj 19 397 outlet~;
#X text 78 52 TRIGGER HAT;
#X text 75 396 AUDIO OUT~;
#X obj 178 51 inlet;
#X text 220 51 HI PASS FREQ;
#X connect 0 0 8 0;
#X connect 1 0 5 0;
#X connect 1 1 3 0;
#X connect 2 0 0 1;
#X connect 3 0 2 0;
#X connect 4 0 2 0;
#X connect 5 0 4 0;
#X connect 6 0 7 0;
#X connect 7 0 0 0;
#X connect 8 0 11 0;
#X connect 10 0 1 0;
#X connect 14 0 7 1;
