#N canvas 495 25 854 496 12;
#X obj 23 90 mtof;
#X obj 83 89 / 127;
#X obj 23 278 simpleFM~;
#X obj 53 242 *, f 5;
#X obj 63 204 t b f;
#X obj 143 386 ar~;
#X obj 23 342 *~;
#X obj 23 435 *~;
#X obj 83 113 t b f;
#X obj 216 26 inlet;
#X obj 313 26 inlet;
#X obj 23 26 inlet;
#X obj 399 26 inlet;
#X obj 479 26 inlet;
#X obj 23 467 outlet~;
#X obj 83 145 s \$0-bang;
#X obj 87 353 r \$0-bang;
#X obj 152 145 s \$0-amp;
#X obj 63 177 r \$0-ratio;
#X obj 216 56 s \$0-ratio;
#X obj 313 55 s \$0-depth;
#X obj 101 242 r \$0-depth;
#X obj 41 313 r \$0-amp;
#X obj 399 55 s \$0-att;
#X obj 479 55 s \$0-rel;
#X obj 157 353 r \$0-att;
#X obj 220 353 r \$0-rel;
#X obj 23 56 unpack 0 0;
#X text 22 3 LIST: MIDI NOTE \, VELOCITY;
#X text 207 3 MOD RATIO;
#X text 304 3 MOD DEPTH;
#X text 395 3 ATTACK;
#X text 474 3 RELEASE;
#X text 79 467 FM SIGNAL OUT~;
#X connect 0 0 2 0;
#X connect 0 0 3 0;
#X connect 1 0 8 0;
#X connect 2 0 6 0;
#X connect 3 0 2 1;
#X connect 4 0 3 0;
#X connect 4 1 3 1;
#X connect 5 0 7 1;
#X connect 6 0 7 0;
#X connect 7 0 14 0;
#X connect 8 0 15 0;
#X connect 8 1 17 0;
#X connect 9 0 19 0;
#X connect 10 0 20 0;
#X connect 11 0 27 0;
#X connect 12 0 23 0;
#X connect 13 0 24 0;
#X connect 16 0 5 0;
#X connect 18 0 4 0;
#X connect 21 0 2 2;
#X connect 22 0 6 1;
#X connect 25 0 5 1;
#X connect 26 0 5 2;
#X connect 27 0 0 0;
#X connect 27 1 1 0;
