#N canvas 78 25 1290 847 12;
#X obj 2 7 cnv 15 886 25 empty empty 6.2_FM\ Synthesis 20 12 0 14 #dcdcdc #404040 0;
#X obj 3 77 cnv 15 206 25 empty empty Carrier\ Wave 20 12 0 14 #dcdcdc #404040 0;
#X obj 221 77 cnv 15 184 25 empty empty Modulator\ Wave 20 12 0 14 #dcdcdc #404040 0;
#X obj 25 118 hsl 177 37 0 127 0 1 empty empty Carrier\ Freq -2 -8 0 10 #fcfcfc #000000 #000000 4048 1;
#X obj 25 159 mtof;
#X msg 25 183 \$1 10;
#X obj 25 208 line~;
#X obj 222 118 hsl 177 37 10 1000 1 1 empty empty Modulator\ Freq -2 -8 0 10 #fcfcfc #000000 #000000 8937 1;
#X msg 222 160 \$1 10;
#X obj 222 184 line~;
#X obj 222 209 osc~;
#X text 21 36 In the previous lab \, we used one wave to control the amplitude of the other. This time \, we'll drive the frequency of one wave with another, f 112;
#X obj 417 77 cnv 15 184 25 empty empty Modulation\ Depth 20 12 0 14 #dcdcdc #404040 0;
#X obj 417 118 hsl 177 37 0.001 10000 1 1 empty empty Modulator\ Depth -2 -8 0 10 #fcfcfc #000000 #000000 15024 1;
#X msg 417 160 \$1 10;
#X obj 417 184 line~;
#X obj 399 259 s~ bFM-modSignal;
#X obj 222 259 s~ bFM-modWave;
#X obj 399 237 *~;
#X text 429 236 scale modulating signal to be +/- frequency depth;
#X obj 3 291 cnv 15 262 26 empty empty Frequency\ Modulation 20 12 0 14 #dcdcdc #404040 0;
#X obj 132 324 r~ bFM-modSignal;
#X obj 25 363 +~;
#X text 65 363 Adding signals gives +/- depth in Hz around the carrier frequency \, like a vibrato, f 28;
#X obj 25 412 osc~;
#X obj 551 324 r~ bFM-modWave;
#X obj 63 447 s~ bFM-FMsignal;
#X obj 334 525 r~ bFM-FMsignal;
#X obj 25 257 s~ bFM-carFreq;
#X obj 334 328 osc~;
#X obj 25 324 r~ bFM-carFreq;
#X obj 334 304 r~ bFM-carFreq;
#X obj 334 554 scope~ 130 130 16 3 128 -1 1 0 0 0 0 205 229 232 74 79 77 96 98 102 0 empty;
#X obj 334 351 scope~ 130 130 16 3 128 -1 1 0 0 0 0 205 229 232 74 79 77 96 98 102 0 empty;
#X obj 551 350 scope~ 130 130 16 3 128 -1 1 0 0 0 0 205 229 232 74 79 77 96 98 102 0 empty;
#X obj 25 490 stereoOut~;
#X floatatom 127 177 5 0 0 0 empty - - 12;
#X connect 3 0 4 0 empty;
#X connect 4 0 5 0 empty;
#X connect 4 0 36 0 empty;
#X connect 5 0 6 0 empty;
#X connect 6 0 28 0 empty;
#X connect 7 0 8 0 empty;
#X connect 8 0 9 0 empty;
#X connect 9 0 10 0 empty;
#X connect 10 0 17 0 empty;
#X connect 10 0 18 0 empty;
#X connect 13 0 14 0 empty;
#X connect 14 0 15 0 empty;
#X connect 15 0 18 1 empty;
#X connect 18 0 16 0 empty;
#X connect 21 0 22 1 empty;
#X connect 22 0 24 0 empty;
#X connect 24 0 26 0 empty;
#X connect 24 0 35 0 empty;
#X connect 24 0 35 1 32.................t....DD...fK....AA...nC....;
#X connect 25 0 34 0 empty;
#X connect 27 0 32 0 empty;
#X connect 29 0 33 0 empty;
#X connect 30 0 22 0 empty;
#X connect 31 0 29 0 empty;
