#N canvas 21 25 1385 786 12;
#X obj 2 7 cnv 15 886 25 empty empty 6.3:\ Make\ a\ basic\ FM\ synth\ Abstraction 20 12 0 14 #dcdcdc #404040 0;
#X obj 25 98 hsl 177 37 0 127 0 1 empty empty Carrier\ Freq -2 -8 0 10 #fcfcfc #000000 #000000 8609 1;
#X obj 25 159 mtof;
#X msg 25 183 \$1 10;
#X obj 25 208 line~;
#X obj 222 98 hsl 177 37 10 1000 1 1 empty empty Modulator\ Freq -2 -8 0 10 #fcfcfc #000000 #000000 10719 1;
#X msg 222 160 \$1 10;
#X obj 222 184 line~;
#X obj 222 209 osc~;
#X obj 417 98 hsl 177 37 0.001 10000 1 1 empty empty Modulator\ Depth -2 -8 0 10 #fcfcfc #000000 #000000 15116 1;
#X msg 417 160 \$1 10;
#X obj 417 184 line~;
#X obj 222 271 *~;
#X text 252 270 scale modulating signal to be +/- frequency depth;
#X obj 25 343 +~;
#X text 65 343 Adding signals gives +/- depth in Hz around the carrier frequency \, like a vibrato, f 28;
#X obj 25 442 osc~;
#X text 21 36 Make a simple FM abstraction from the code in the previous example, f 112;
#X obj 25 471 stereoOut~;
#X connect 1 0 2 0 empty;
#X connect 2 0 3 0 empty;
#X connect 3 0 4 0 empty;
#X connect 4 0 14 0 empty;
#X connect 5 0 6 0 empty;
#X connect 6 0 7 0 empty;
#X connect 7 0 8 0 empty;
#X connect 8 0 12 0 empty;
#X connect 9 0 10 0 empty;
#X connect 10 0 11 0 empty;
#X connect 11 0 12 1 empty;
#X connect 12 0 14 1 empty;
#X connect 14 0 16 0 empty;
#X connect 16 0 18 0 empty;
#X connect 16 0 18 1 empty;
