#N canvas 516 224 450 300 12;
#X obj 56 1 inlet;
#X obj 56 121 osc~;
#X obj 56 226 *~;
#X obj 56 28 unpack;
#X obj 56 94 mtof;
#X obj 56 250 outlet~;
#X obj 183 61 inlet;
#X obj 253 61 inlet;
#X obj 115 123 ar~, f 42;
#X obj 115 94 t b f;
#X obj 96 50 / 127;
#X obj 115 194 *~;
#X connect 0 0 3 0;
#X connect 1 0 2 0;
#X connect 2 0 5 0;
#X connect 3 0 4 0;
#X connect 3 1 10 0;
#X connect 4 0 1 0;
#X connect 6 0 8 1;
#X connect 7 0 8 2;
#X connect 8 0 11 0;
#X connect 9 0 8 0;
#X connect 9 1 11 1;
#X connect 10 0 9 0;
#X connect 11 0 2 1;
