#N canvas 401 72 627 480 12;
#X obj 3 3 cnv 15 555 60 empty empty 8b_-_Performance_Patch 20 12 0
20 -233017 -66577 0;
#X obj 24 129 notein, f 18;
#X obj 410 446 dac~;
#X obj 24 157 FM-Synth~;
#X text 21 27 Another update to the previous lab patches \, this time
an example of a more complete performance patch., f 74;
#X obj 410 157 simpleFX~;
#X obj 24 443 s~ synthOut;
#X obj 410 137 r~ synthOut;
#X text 21 67 This patch adds a wave select option for the FM synth
\, and some basic FX to the patch from the previous lab., f 74;
#X connect 1 0 3 0;
#X connect 1 1 3 1;
#X connect 3 0 6 0;
#X connect 5 0 2 0;
#X connect 5 0 2 1;
#X connect 7 0 5 0;
