#N canvas 401 86 1039 385 12;
#X obj 2 39 beatclock;
#X obj 131 123 euclid32;
#N canvas 570 292 552 387 beatSel 0;
#X obj 14 222 inlet;
#X obj 52 267 == 0;
#X obj 333 46 inlet;
#X obj 14 290 spigot;
#X obj 378 117 hradio 15 1 1 3 \$0-sel empty empty 0 -8 0 10 #b8b8b8
#000000 #000000 0;
#X text 351 100 1/: 4;
#X text 395 100 8;
#X text 407 100 16;
#X obj 161 329 outlet;
#X obj 52 246 r \$0-sel;
#X obj 114 222 inlet;
#X obj 114 290 spigot;
#X obj 152 246 r \$0-sel;
#X obj 214 222 inlet;
#X obj 214 290 spigot;
#X obj 252 246 r \$0-sel;
#X text 17 196 quarter;
#X text 119 196 8th;
#X text 220 196 16th;
#X text 15 173 Pulse In:;
#X text 331 22 sel pulse;
#X obj 152 267 == 1;
#X obj 252 267 == 2;
#X text 303 102 SEL PULSE:, f 6;
#X connect 0 0 3 0;
#X connect 1 0 3 1;
#X connect 2 0 4 0;
#X connect 3 0 8 0;
#X connect 9 0 1 0;
#X connect 10 0 11 0;
#X connect 11 0 8 0;
#X connect 12 0 21 0;
#X connect 13 0 14 0;
#X connect 14 0 8 0;
#X connect 15 0 22 0;
#X connect 21 0 11 1;
#X connect 22 0 14 1;
#X coords 0 -1 1 1 130 35 2 300 100;
#X restore 131 39 pd beatSel;
#N canvas 500 112 639 465 markovPulse 0;
#X obj 34 243 bng 15 250 50 0 empty empty empty 20 8 0 8 #fcfcfc #000000
#000000;
#X obj 34 328 bng 15 250 50 0 empty empty empty 20 8 0 8 #fcfcfc #000000
#000000;
#X obj 113 327 bng 15 250 50 0 empty empty empty 20 8 0 8 #fcfcfc #000000
#000000;
#X obj 166 329 bng 15 250 50 0 empty empty empty 20 8 0 8 #fcfcfc #000000
#000000;
#X obj 206 245 bng 15 250 50 0 empty empty empty 20 8 0 8 #fcfcfc #000000
#000000;
#X obj 206 330 bng 15 250 50 0 empty empty empty 20 8 0 8 #fcfcfc #000000
#000000;
#X obj 276 332 bng 15 250 50 0 empty empty empty 20 8 0 8 #fcfcfc #000000
#000000;
#X obj 329 335 bng 15 250 50 0 empty empty empty 20 8 0 8 #fcfcfc #000000
#000000;
#X obj 370 246 bng 15 250 50 0 empty empty empty 20 8 0 8 #fcfcfc #000000
#000000;
#X obj 370 331 bng 15 250 50 0 empty empty empty 20 8 0 8 #fcfcfc #000000
#000000;
#X obj 443 330 bng 15 250 50 0 empty empty empty 20 8 0 8 #fcfcfc #000000
#000000;
#X obj 496 333 bng 15 250 50 0 empty empty empty 20 8 0 8 #fcfcfc #000000
#000000;
#X obj 34 191 f 1;
#X obj 34 271 random 100;
#X obj 206 272 random 100;
#X obj 206 302 moses 10;
#X obj 370 273 random 100;
#X obj 64 155 r \$0-mkPulseState;
#X obj 276 415 s \$0-mkPulseState;
#X obj 34 217 select 0 1 2, f 37;
#X msg 34 350 0;
#X msg 113 350 1;
#X msg 166 350 2;
#X msg 206 350 0;
#X msg 276 350 1;
#X msg 329 350 2;
#X msg 370 350 0;
#X msg 443 350 1;
#X msg 496 350 2;
#X obj 34 78 inlet;
#X obj 276 303 moses 90;
#X obj 370 302 moses 20;
#X obj 443 302 moses 10;
#X obj 34 300 moses 10;
#X obj 113 301 moses 75;
#X text 203 102 MARKOV BEAT SHUFFLER, f 11;
#X obj 286 103 tgl 30 0 \$0-mkpulseOn empty empty 17 7 0 10 #dcdcdc
#000000 #000000 0 1;
#X obj 387 149 outlet;
#X obj 328 31 r \$0-mkPulseState;
#X text 324 101 Default;
#X obj 327 117 nbx 2 15 0 2 0 1 empty empty empty 0 -8 0 12 #fcfcfc
#000000 #000000 2 256 0;
#X obj 328 67 spigot;
#X obj 285 142 sel 0;
#X obj 387 117 nbx 2 15 0 2 0 1 empty empty empty 0 -8 0 12 #fcfcfc
#000000 #000000 0 256 0;
#X text 384 101 Output;
#X obj 309 166 f;
#X connect 0 0 13 0;
#X connect 1 0 20 0;
#X connect 2 0 21 0;
#X connect 3 0 22 0;
#X connect 4 0 14 0;
#X connect 5 0 23 0;
#X connect 6 0 24 0;
#X connect 7 0 25 0;
#X connect 8 0 16 0;
#X connect 9 0 26 0;
#X connect 10 0 27 0;
#X connect 11 0 28 0;
#X connect 12 0 19 0;
#X connect 13 0 33 0;
#X connect 14 0 15 0;
#X connect 15 0 5 0;
#X connect 15 1 30 0;
#X connect 16 0 31 0;
#X connect 17 0 12 1;
#X connect 19 0 0 0;
#X connect 19 1 4 0;
#X connect 19 2 8 0;
#X connect 20 0 18 0;
#X connect 21 0 18 0;
#X connect 22 0 18 0;
#X connect 23 0 18 0;
#X connect 24 0 18 0;
#X connect 25 0 18 0;
#X connect 26 0 18 0;
#X connect 27 0 18 0;
#X connect 28 0 18 0;
#X connect 29 0 12 0;
#X connect 30 0 6 0;
#X connect 30 1 7 0;
#X connect 31 0 9 0;
#X connect 31 1 32 0;
#X connect 32 0 10 0;
#X connect 32 1 11 0;
#X connect 33 0 1 0;
#X connect 33 1 34 0;
#X connect 34 0 2 0;
#X connect 34 1 3 0;
#X connect 36 0 42 0;
#X connect 36 0 41 1;
#X connect 38 0 41 0;
#X connect 40 0 45 1;
#X connect 41 0 43 0;
#X connect 42 0 45 0;
#X connect 43 0 37 0;
#X connect 45 0 43 0;
#X coords 0 -1 1 1 236 35 2 200 100;
#X restore 265 39 pd markovPulse;
#N canvas 357 96 1024 635 MarkovNoteSwap 0;
#X obj 436 139 hsl 140 30 -20 120 0 0 empty empty empty -2 -8 0 10
#fcfcfc #000000 #000000 0 1;
#X obj 172 68 f 1;
#X obj 172 92 select 1 2, f 116;
#X obj 172 116 bng 15 250 50 0 empty empty empty 17 7 0 10 #fcfcfc
#000000 #000000;
#X obj 172 183 bng 15 250 50 0 empty empty empty 17 7 0 10 #fcfcfc
#000000 #000000;
#X msg 202 202 1;
#X obj 277 183 bng 15 250 50 0 empty empty empty 17 7 0 10 #fcfcfc
#000000 #000000;
#X msg 237 202 2;
#X obj 576 118 bng 15 250 50 0 empty empty empty 17 7 0 10 #fcfcfc
#000000 #000000;
#X obj 576 184 bng 15 250 50 0 empty empty empty 17 7 0 10 #fcfcfc
#000000 #000000;
#X msg 606 203 1;
#X obj 681 184 bng 15 250 50 0 empty empty empty 17 7 0 10 #fcfcfc
#000000 #000000;
#X msg 641 203 2;
#N canvas 238 83 450 300 retrigger2 0;
#X obj 47 26 inlet;
#X obj 47 56 t b b;
#X obj 47 165 outlet;
#X obj 157 84 del 150;
#X msg 47 121 100 \, 120 100;
#X msg 157 121 120 \, 100 100;
#X connect 0 0 1 0;
#X connect 1 0 4 0;
#X connect 1 1 3 0;
#X connect 3 0 5 0;
#X connect 4 0 2 0;
#X connect 5 0 2 0;
#X restore 681 310 pd retrigger2;
#X obj 322 137 ABprob;
#X obj 583 137 ABprob;
#N canvas 238 83 450 300 retrigger1 0;
#X obj 47 26 inlet;
#X obj 47 56 t b b;
#X obj 47 165 outlet;
#X obj 157 84 del 150;
#X msg 47 121 0 \, -20 100;
#X msg 157 121 -20 \, 0 100;
#X connect 0 0 1 0;
#X connect 1 0 4 0;
#X connect 1 1 3 0;
#X connect 3 0 5 0;
#X connect 4 0 2 0;
#X connect 5 0 2 0;
#X restore 171 309 pd retrigger1;
#N canvas 238 83 450 300 1-2 0;
#X obj 47 26 inlet;
#X obj 47 165 outlet;
#X obj 47 56 t b;
#X msg 47 121 0 \, 100 200;
#X connect 0 0 2 0;
#X connect 2 0 3 0;
#X connect 3 0 1 0;
#X restore 277 308 pd 1-2;
#N canvas 238 83 450 300 2-1 0;
#X obj 47 26 inlet;
#X obj 47 165 outlet;
#X obj 47 56 t b;
#X msg 47 121 100 \, 0 200;
#X connect 0 0 2 0;
#X connect 2 0 3 0;
#X connect 3 0 1 0;
#X restore 576 310 pd 2-1;
#X obj 171 349 line;
#X obj 113 9 inlet;
#X obj 231 140 nbx 2 30 0 32 0 1 empty empty empty 0 -8 0 18 #ffffff
#000000 #000000 4 256 0;
#X obj 729 139 nbx 2 30 0 32 0 1 empty empty empty 0 -8 0 18 #ffffff
#000000 #000000 18 256 0;
#X obj 457 505 f;
#X obj 495 505 f;
#X obj 457 471 sel 1 2;
#X obj 457 565 outlet;
#X obj 457 449 r \$0-NSstate;
#X obj 290 140 bng 30 250 50 0 empty empty empty 17 7 0 10 #fcfcfc
#fce0c4 #000000;
#X obj 697 139 bng 30 250 50 0 empty empty empty 17 7 0 10 #fcfcfc
#e0c4fc #000000;
#X obj 189 140 tgl 30 0 empty empty empty 17 7 0 10 #fcfcfc #000000
#000000 0 1;
#X text 139 145 ON/OFF;
#X obj 113 32 spigot;
#X text 74 139 NOTE AMT SWAPPER, f 8;
#X obj 457 541 change;
#X obj 190 42 r \$0-NSstate;
#X obj 213 231 s \$0-NSstate;
#X obj 618 232 s \$0-NSstate;
#X connect 1 0 2 0;
#X connect 2 0 3 0;
#X connect 2 1 8 0;
#X connect 3 0 28 0;
#X connect 3 0 14 0;
#X connect 4 0 5 0;
#X connect 4 0 16 0;
#X connect 5 0 36 0;
#X connect 6 0 7 0;
#X connect 6 0 17 0;
#X connect 7 0 36 0;
#X connect 8 0 29 0;
#X connect 8 0 15 0;
#X connect 9 0 10 0;
#X connect 9 0 18 0;
#X connect 10 0 37 0;
#X connect 11 0 12 0;
#X connect 11 0 13 0;
#X connect 12 0 37 0;
#X connect 13 0 19 0;
#X connect 14 0 4 0;
#X connect 14 1 6 0;
#X connect 15 0 9 0;
#X connect 15 1 11 0;
#X connect 16 0 19 0;
#X connect 17 0 19 0;
#X connect 18 0 19 0;
#X connect 19 0 0 0;
#X connect 20 0 32 0;
#X connect 21 0 23 1;
#X connect 22 0 24 1;
#X connect 23 0 34 0;
#X connect 24 0 34 0;
#X connect 25 0 23 0;
#X connect 25 1 24 0;
#X connect 27 0 25 0;
#X connect 30 0 32 1;
#X connect 32 0 1 0;
#X connect 34 0 26 0;
#X connect 35 0 1 1;
#X coords 0 -1 1 1 720 40 2 70 135;
#X restore 131 79 pd MarkovNoteSwap;
#N canvas 500 112 639 465 markovPulse 1;
#X obj 342 71 inlet;
#X text 200 102 OFFSET SWITCHER, f 8;
#X obj 342 102 ABprob;
#X text 262 103 no change, f 6;
#X obj 309 104 bng 30 400 100 0 empty empty empty 17 7 0 10 #fcfcfc
#000000 #000000;
#X obj 457 104 bng 30 250 50 0 empty empty empty 17 7 0 10 #fcfcfc
#000000 #000000;
#X text 488 116 change;
#X obj 457 159 random 32;
#X obj 457 183 outlet;
#X connect 0 0 2 0;
#X connect 2 0 4 0;
#X connect 2 1 5 0;
#X connect 5 0 7 0;
#X connect 7 0 8 0;
#X coords 0 -1 1 1 340 40 2 200 100;
#X restore 511 37 pd markovPulse;
#X obj 3 10 inlet;
#X obj 63 10 inlet;
#X obj 131 176 outlet;
#X obj 844 171 outlet;
#X connect 0 2 2 0;
#X connect 0 3 2 1;
#X connect 0 4 2 2;
#X connect 1 0 8 0;
#X connect 1 1 9 0;
#X connect 2 0 3 0;
#X connect 2 0 5 0;
#X connect 2 0 4 0;
#X connect 2 0 1 0;
#X connect 3 0 2 3;
#X connect 4 0 1 3;
#X connect 5 0 1 4;
#X connect 6 0 0 0;
#X connect 7 0 0 1;
#X coords 0 -1 1 1 860 130 2 0 35;
