#N canvas 715 25 725 541 12;
#X obj 236 193 inlet~;
#X obj 237 478 outlet~;
#X obj 237 333 *~;
#X obj 237 374 *~;
#X obj 237 423 clip~ -1 1;
#X obj 36 2 hsl 146 30 0.01 1.01 1 0 \$0-volume \$0-setVolume VOLUME
5 16 0 15 #c4fcc4 #000000 #000000 0 1;
#X obj 291 253 r \$0-volume;
#X obj 291 275 - 0.01;
#X msg 291 297 \$1 10;
#X obj 291 318 line~;
#X obj 2 2 tgl 30 0 \$0-mute \$0-setMute MUTE 3 16 0 10 #fcc4c4 #000000
#000000 1 1;
#X msg 424 337 \$1 10;
#X obj 424 358 line~;
#X obj 417 239 r \$0-mute;
#X obj 424 271 t b f;
#X obj 424 314 -;
#X msg 424 293 1;
#X obj 489 213 loadbang;
#X msg 489 237 0;
#X text 234 170 signal in;
#X text 234 500 signal out;
#X obj 307 45 inlet;
#X obj 438 40 inlet;
#X text 306 16 volume 0-1;
#X text 435 16 mute 0/1 mute==1;
#X obj 307 68 s \$0-setVolume;
#X obj 438 142 s \$0-setMute;
#X obj 438 62 sel 0;
#X msg 438 86 0;
#X obj 470 85 t b;
#X msg 470 106 1;
#X connect 0 0 2 0;
#X connect 2 0 3 0;
#X connect 3 0 4 0;
#X connect 4 0 1 0;
#X connect 6 0 7 0;
#X connect 7 0 8 0;
#X connect 8 0 9 0;
#X connect 9 0 2 1;
#X connect 11 0 12 0;
#X connect 12 0 3 1;
#X connect 13 0 14 0;
#X connect 14 0 16 0;
#X connect 14 1 15 1;
#X connect 15 0 11 0;
#X connect 16 0 15 0;
#X connect 17 0 18 0;
#X connect 18 0 14 0;
#X connect 21 0 25 0;
#X connect 22 0 27 0;
#X connect 27 0 28 0;
#X connect 27 1 29 0;
#X connect 28 0 26 0;
#X connect 29 0 30 0;
#X connect 30 0 26 0;
#X coords 0 -1 1 1 190 35 2 0 0;
