#N canvas 827 239 527 327 12;
#X obj 82 59 hsl 136 21 0 127 0 0 empty empty empty -2 -8 0 10 #e3dfd9 #5a5a5a #5a5a5a 0 1;
#X obj 79 99 mtof;
#X text 79 38 Carrier;
#X obj 262 59 hsl 136 21 0 127 0 0 empty empty empty -2 -8 0 10 #e3dfd9 #5a5a5a #5a5a5a 0 1;
#X obj 259 99 mtof;
#X text 259 38 Modulator;
#X obj 79 139 osc~;
#X obj 259 139 osc~;
#X obj 440 59 hsl 128 22 0 1 0 0 empty empty empty -2 -8 0 10 #e3dfd9 #5a5a5a #5a5a5a 0 1;
#X text 439 38 Depth;
#X obj 79 319 am~, f 46;
#X obj 99 179 scope~ 130 130 8 3 128 -1 1 0 0 0 0 90 90 90 213 227 192 150 142 130 0 empty;
#X obj 274 179 scope~ 130 130 8 3 128 -1 1 0 0 0 0 90 90 90 159 202 227 150 142 130 0 empty;
#X obj 319 359 scope~ 130 130 8 3 128 -1 1 0 0 0 0 90 90 90 178 227 194 150 142 130 0 empty;
#X obj 79 376 stereoOut~;
#X obj 442 199 hsl 128 22 0 5 0 0 empty empty empty -2 -8 0 10 #e3dfd9 #5a5a5a #5a5a5a 0 1;
#X text 449 178 Depth with overmodulation;
#X connect 0 0 1 0 empty;
#X connect 1 0 6 0 empty;
#X connect 3 0 4 0 empty;
#X connect 4 0 7 0 empty;
#X connect 6 0 10 0 empty;
#X connect 6 0 11 0 empty;
#X connect 7 0 10 1 empty;
#X connect 7 0 12 0 empty;
#X connect 8 0 15 0 empty;
#X connect 10 0 13 0 empty;
#X connect 10 0 14 0 empty;
#X connect 10 0 14 1 empty;
#X connect 15 0 10 2 empty;
