#N canvas 827 239 527 327 12;
#X obj 22 59 hsl 136 21 0 127 0 0 empty empty empty -2 -8 0 10 #e3dfd9 #5a5a5a #5a5a5a 0 1;
#X obj 19 87 mtof;
#X text 19 38 Carrier;
#X obj 202 59 hsl 136 21 0.001 4 0 0 empty empty empty -2 -8 0 10 #e3dfd9 #5a5a5a #5a5a5a 0 1;
#X text 199 38 Modulator;
#X obj 19 139 osc~;
#X obj 199 149 osc~;
#X obj 580 97 hsl 128 22 0 1 0 0 empty empty empty -2 -8 0 10 #e3dfd9 #5a5a5a #5a5a5a 0 1;
#X text 579 76 Depth;
#X obj 65 179 scope~ 130 130 8 3 128 -1 1 0 0 0 0 90 90 90 213 227 192 150 142 130 0 empty;
#X obj 239 179 scope~ 130 130 8 3 128 -1 1 0 0 0 0 90 90 90 159 202 227 150 142 130 0 empty;
#X obj 396 304 stereoOut~;
#X obj 19 339 s~ car;
#X obj 199 339 s~ mod;
#X obj 461 154 r~ car;
#X obj 511 154 r~ mod;
#X obj 520 194 *~;
#X obj 461 234 xFade~, f 20;
#X obj 647 149 r~ car;
#X obj 697 149 r~ mod;
#X obj 647 234 am~;
#X obj 647 304 stereoOut~;
#X obj 199 119 *;
#X obj 199 87 t b f;
#X listbox 259 87 9 0 0 0 empty - - 0;
#X obj 239 379 scope~ 130 130 8 3 128 -1 1 0 0 0 0 90 90 90 173 227 195 150 142 130 0 empty;
#X listbox 259 149 9 0 0 0 empty - - 0;
#X connect 0 0 1 0 empty;
#X connect 1 0 5 0 empty;
#X connect 1 0 22 0 empty;
#X connect 3 0 23 0 empty;
#X connect 3 0 24 0 empty;
#X connect 5 0 9 0 empty;
#X connect 5 0 12 0 empty;
#X connect 6 0 10 0 empty;
#X connect 6 0 13 0 empty;
#X connect 7 0 17 2 empty;
#X connect 7 0 20 2 32.................JB...LF...fh....iA...jI....;
#X connect 11 0 25 0 empty;
#X connect 14 0 17 0 empty;
#X connect 14 0 16 0 empty;
#X connect 15 0 16 1 empty;
#X connect 16 0 17 1 empty;
#X connect 17 0 11 0 empty;
#X connect 17 0 11 1 empty;
#X connect 18 0 20 0 empty;
#X connect 19 0 20 1 empty;
#X connect 20 0 21 0 empty;
#X connect 20 0 21 1 empty;
#X connect 21 0 25 0 empty;
#X connect 22 0 6 0 empty;
#X connect 22 0 26 0 empty;
#X connect 23 0 22 0 empty;
#X connect 23 1 22 1 empty;
