#N canvas 827 239 527 327 12;
#X obj 22 39 hsl 136 21 0 127 0 0 empty empty empty -2 -8 0 10 #e3dfd9 #5a5a5a #5a5a5a 0 1;
#X obj 19 79 mtof;
#X text 19 18 Carrier;
#X obj 202 39 hsl 136 21 0 127 0 0 empty empty empty -2 -8 0 10 #e3dfd9 #5a5a5a #5a5a5a 0 1;
#X obj 199 79 mtof;
#X text 199 18 Modulator;
#X obj 19 119 osc~;
#X obj 199 119 osc~;
#X obj 380 39 hsl 128 22 0 1 0 0 empty empty empty -2 -8 0 10 #e3dfd9 #5a5a5a #5a5a5a 0 1;
#X text 379 18 Depth;
#X obj 65 159 scope~ 130 130 8 3 128 -1 1 0 0 0 0 90 90 90 213 227 192 150 142 130 0 empty;
#X obj 239 159 scope~ 130 130 8 3 128 -1 1 0 0 0 0 90 90 90 159 202 227 150 142 130 0 empty;
#X obj 19 519 stereoOut~;
#X obj 19 339 *~;
#X obj 399 159 scope~ 130 130 8 3 128 -1 1 0 0 0 0 90 90 90 159 202 227 150 142 130 0 empty;
#X obj 49 369 scope~ 130 130 8 3 128 -1 1 0 0 0 0 90 90 90 156 227 178 150 142 130 0 empty;
#X obj 199 299 expr~ 1 - ((($v1*0.5) + 0.5)*$f2);
#X connect 0 0 1 0 empty;
#X connect 1 0 6 0 empty;
#X connect 3 0 4 0 empty;
#X connect 4 0 7 0 empty;
#X connect 6 0 10 0 empty;
#X connect 6 0 13 0 empty;
#X connect 7 0 11 0 empty;
#X connect 7 0 16 0 empty;
#X connect 8 0 16 1 empty;
#X connect 13 0 12 0 empty;
#X connect 13 0 15 0 empty;
#X connect 13 0 12 1 32.................bB...DD....m....AA....J....;
#X connect 16 0 13 1 empty;
#X connect 16 0 14 0 64.................K....fL...vB....HC...T.....x....E....fL...PX++++bC...D1+++O2....g8+++C;
