#N canvas 827 239 527 327 12;
#X obj 398 18 hsl 154 37 0 127 0 0 empty empty empty -2 -8 0 10 #e3dfd9 #5a5a5a #5a5a5a 0 1;
#X text 395 -7 Osc Frequency;
#X obj 395 64 mtof;
#X obj 395 93 osc~;
#X obj 473 274 scope~ 130 130 8 3 128 -1 1 0 0 0 0 90 90 90 224 227 196 150 142 130 0 empty;
#X obj 395 294 *~;
#X obj 613 234 adsrEnv~;
#X obj 696 64 hsl 128 17 20 2000 1 0 empty empty empty -2 -8 0 10 #e3dfd9 #5a5a5a #5a5a5a 0 1;
#X obj 696 104 hsl 128 17 20 2000 1 0 empty empty empty -2 -8 0 10 #e3dfd9 #5a5a5a #5a5a5a 0 1;
#X obj 696 144 hsl 128 17 0 1 0 0 empty empty empty -2 -8 0 10 #e3dfd9 #5a5a5a #5a5a5a 0 1;
#X obj 696 184 hsl 128 17 20 2000 1 0 empty empty empty -2 -8 0 10 #e3dfd9 #5a5a5a #5a5a5a 0 1;
#X obj 613 42 tgl 25 0 empty empty empty 17 7 0 10 #e3dfd9 #5a5a5a #5a5a5a 0 1;
#X obj 613 274 scope~ 130 130 8 3 128 -1 1 0 0 0 0 90 90 90 175 205 227 150 142 130 0 empty;
#X text 737 85 decay;
#X text 734 126 sustain;
#X text 734 166 release;
#X text 736 46 attack;
#X obj 473 414 scope~ 130 130 8 3 128 -1 1 0 0 0 0 90 90 90 171 227 178 150 142 130 0 empty;
#X obj 395 574 stereoOut~;
#X connect 0 0 2 0 empty;
#X connect 2 0 3 0 empty;
#X connect 3 0 5 0 empty;
#X connect 3 0 4 0 32.................n....3D....J....NA...DJ....;
#X connect 5 0 17 0 empty;
#X connect 5 0 18 0 empty;
#X connect 5 0 18 1 32.................7C...DD....+....AA...PP....;
#X connect 6 0 12 0 empty;
#X connect 6 0 5 1 32.................M....Hy+++eC....x7+++iB....;
#X connect 7 0 6 1 32.................H....D7+++OB....A++++mI....;
#X connect 8 0 6 2 32.................G....D8++++A....Q++++GG....;
#X connect 9 0 6 3 32.................I....D9+++eB....g++++mD....;
#X connect 10 0 6 4 32.................J....H++++uB....x++++GB....;
#X connect 11 0 6 0 empty;
