#N canvas 827 239 527 327 12;
#X obj 22 239 hsl 136 21 0 127 0 0 empty empty empty -2 -8 0 10 #e3dfd9 #5a5a5a #5a5a5a 0 1;
#X obj 19 267 mtof;
#X text 39 218 Carrier;
#X obj 322 168 hsl 136 21 0 5 0 0 empty empty empty -2 -8 0 10 #e3dfd9 #5a5a5a #5a5a5a 0 1;
#X obj 19 319 osc~;
#X obj 199 329 osc~;
#X obj 580 239 hsl 128 22 0 1 0 0 empty empty empty -2 -8 0 10 #e3dfd9 #5a5a5a #5a5a5a 0 1;
#X text 579 218 Depth;
#X obj 65 359 scope~ 130 130 8 3 128 -1 1 0 0 0 0 90 90 90 213 227 192 150 142 130 0 empty;
#X obj 239 359 scope~ 130 130 8 3 128 -1 1 0 0 0 0 90 90 90 159 202 227 150 142 130 0 empty;
#X obj 396 484 stereoOut~;
#X obj 19 519 s~ car;
#X obj 199 519 s~ mod;
#X obj 461 334 r~ car;
#X obj 511 334 r~ mod;
#X obj 520 374 *~;
#X obj 461 414 xFade~, f 20;
#X obj 647 329 r~ car;
#X obj 697 329 r~ mod;
#X obj 647 414 am~;
#X obj 647 484 stereoOut~;
#X obj 319 228 *;
#X obj 319 196 t b f;
#X listbox 379 196 9 0 0 0 empty - - 0;
#X obj 239 559 scope~ 130 130 8 3 128 -1 1 0 0 0 0 90 90 90 173 227 195 150 142 130 0 empty;
#X listbox 259 329 9 0 0 0 empty - - 0;
#X obj 19 139 notein;
#X obj 19 168 stripnote;
#X obj 65 299 s fundFreq;
#X obj 241 194 r fundFreq;
#X text 313 147 Modulator Ratio;
#X obj 162 168 hsl 136 21 1 1000 1 0 empty empty empty -2 -8 0 10 #e3dfd9 #5a5a5a #5a5a5a 0 1;
#X text 159 147 Fixed Ratio;
#X obj 228 228 r modChoice;
#X obj 224 275 == 0;
#X obj 284 275 == 1;
#X obj 259 300 spigot;
#X obj 199 299 spigot;
#X obj 159 69 vradio 20 1 0 2 empty empty empty 0 -8 0 10 #e3dfd9 #5a5a5a #5a5a5a 0;
#X obj 159 119 s modChoice;
#X text 185 70 fixed mod;
#X text 185 90 tracking mod;
#X connect 0 0 1 0 empty;
#X connect 1 0 4 0 empty;
#X connect 1 0 28 0 empty;
#X connect 3 0 22 0 empty;
#X connect 3 0 23 0 empty;
#X connect 4 0 8 0 empty;
#X connect 4 0 11 0 empty;
#X connect 5 0 9 0 empty;
#X connect 5 0 12 0 empty;
#X connect 6 0 16 2 empty;
#X connect 6 0 19 2 32.................dA...LF...fW....iA...LG....;
#X connect 10 0 24 0 empty;
#X connect 13 0 16 0 empty;
#X connect 13 0 15 0 empty;
#X connect 14 0 15 1 empty;
#X connect 15 0 16 1 empty;
#X connect 16 0 10 0 empty;
#X connect 16 0 10 1 empty;
#X connect 17 0 19 0 empty;
#X connect 18 0 19 1 empty;
#X connect 19 0 20 0 empty;
#X connect 19 0 20 1 empty;
#X connect 20 0 24 0 empty;
#X connect 21 0 36 0 empty;
#X connect 22 0 21 0 empty;
#X connect 22 1 21 1 empty;
#X connect 26 0 27 0 empty;
#X connect 26 1 27 1 empty;
#X connect 27 0 0 0 empty;
#X connect 29 0 21 0 empty;
#X connect 31 0 37 0 empty;
#X connect 33 0 35 0 empty;
#X connect 33 0 34 0 empty;
#X connect 34 0 37 1 empty;
#X connect 35 0 36 1 empty;
#X connect 36 0 5 0 empty;
#X connect 36 0 25 0 empty;
#X connect 37 0 5 0 empty;
#X connect 37 0 25 0 empty;
#X connect 38 0 39 0 empty;
