#N canvas 827 239 527 327 12;
#X text 19 38 Carrier;
#X obj 19 139 osc~;
#X obj 199 149 osc~;
#X obj 580 97 hsl 128 22 0 1 0 0 empty empty empty -2 -8 0 10 #e3dfd9 #5a5a5a #5a5a5a 0 1;
#X text 579 76 Depth;
#X obj 65 179 scope~ 130 130 8 3 128 -1 1 0 0 0 0 90 90 90 213 227 192 150 142 130 0 empty;
#X obj 239 179 scope~ 130 130 8 3 128 -1 1 0 0 0 0 90 90 90 159 202 227 150 142 130 0 empty;
#X obj 396 304 stereoOut~;
#X obj 19 339 s~ car;
#X obj 199 339 s~ mod;
#X obj 461 154 r~ car;
#X obj 511 154 r~ mod;
#X obj 520 194 *~;
#X obj 461 234 xFade~, f 20;
#X obj 647 149 r~ car;
#X obj 697 149 r~ mod;
#X obj 647 234 am~;
#X obj 647 304 stereoOut~;
#X obj 199 119 *;
#X obj 199 87 t b f;
#X listbox 199 62 9 0 0 0 empty - - 0;
#X obj 239 379 scope~ 130 130 8 3 128 -1 1 0 0 0 0 90 90 90 173 227 195 150 142 130 0 empty;
#X listbox 259 149 9 0 0 0 empty - - 0;
#X text 199 -2 Modulator Ratio;
#X msg 170 35 2;
#X msg 209 35 0.5;
#X text 165 18 consonant;
#X text 259 18 dissonant;
#X msg 339 35 2.76452;
#X msg 259 35 0.161438;
#X msg 19 62 400;
#X connect 1 0 5 0 empty;
#X connect 1 0 8 0 empty;
#X connect 2 0 6 0 empty;
#X connect 2 0 9 0 empty;
#X connect 3 0 13 2 empty;
#X connect 3 0 16 2 32.................JB...LF...fh....iA...jI....;
#X connect 7 0 21 0 empty;
#X connect 10 0 13 0 empty;
#X connect 10 0 12 0 empty;
#X connect 11 0 12 1 empty;
#X connect 12 0 13 1 empty;
#X connect 13 0 7 0 empty;
#X connect 13 0 7 1 empty;
#X connect 14 0 16 0 empty;
#X connect 15 0 16 1 empty;
#X connect 16 0 17 0 empty;
#X connect 16 0 17 1 empty;
#X connect 17 0 21 0 empty;
#X connect 18 0 2 0 empty;
#X connect 18 0 22 0 empty;
#X connect 19 0 18 0 empty;
#X connect 19 1 18 1 empty;
#X connect 20 0 19 0 empty;
#X connect 24 0 20 0 empty;
#X connect 25 0 20 0 empty;
#X connect 28 0 20 0 empty;
#X connect 29 0 20 0 empty;
#X connect 30 0 18 0 empty;
#X connect 30 0 1 0 empty;
