#N canvas 417 104 693 458 12;
#X obj 3 3 cnv 15 800 40 empty empty Lab6a_-_MIDI 20 12 0 20 -233017
-66577 0;
#X text 9 47 So far we have only made use of [notein] but there are
many options for getting data in and out of Pd...;
#X obj 11 145 notein;
#X floatatom 11 210 5 0 0 0 - - -;
#X floatatom 30 189 5 0 0 0 - - -;
#X floatatom 50 168 5 0 0 0 - - -;
#X text 52 209 <- MIDI note number;
#X text 65 188 <- Note velocity;
#X text 91 166 <- MIDI channel;
#X text 316 186 <- CC channel number;
#X text 307 206 <- CC value;
#X text 343 166 <- MIDI Channel;
#X obj 504 145 pgmin;
#X floatatom 504 188 5 0 0 0 - - -;
#X floatatom 536 167 5 0 0 0 - - -;
#X text 573 167 <- MIDI channel;
#X text 539 188 <- program number;
#X text 502 124 Program message;
#X obj 10 275 touchin;
#X obj 68 275 polytouchin;
#X text 8 255 After touch;
#X obj 260 275 bendin;
#X floatatom 260 319 5 0 0 0 - - -;
#X floatatom 299 299 5 0 0 0 - - -;
#X text 260 254 Pitch bend;
#X obj 505 275 sysexin;
#X text 505 253 system exclusive;
#X obj 8 404 noteout;
#X obj 71 404 ctlout;
#X obj 127 404 pgmout;
#X obj 183 404 touchout;
#X obj 253 404 bendout;
#X text 10 124 MIDI notes;
#X floatatom 261 210 5 0 0 0 - - -;
#X floatatom 280 189 5 0 0 0 - - -;
#X floatatom 300 168 5 0 0 0 - - -;
#X obj 261 145 ctlin, f 6;
#X text 259 124 MIDI CC message;
#X text 9 99 Getting information into Pd;
#X text 6 365 These all have counterparts that send data out to another
midi device....;
#X connect 2 0 3 0;
#X connect 2 1 4 0;
#X connect 2 2 5 0;
#X connect 12 0 13 0;
#X connect 12 1 14 0;
#X connect 21 0 22 0;
#X connect 21 1 23 0;
#X connect 36 0 33 0;
#X connect 36 1 34 0;
#X connect 36 2 35 0;
