#N canvas 1571 48 1408 847 12;
#X obj 3 3 cnv 15 1400 60 empty empty 9c_OperatorPlayground 20 12 0
20 -233017 -66577 0;
#X text 6 68 Copy and paste these operators to create interesting PM
algorithms!;
#X obj 1245 111 notein, f 16;
#X obj 1245 182 s MIDInotes;
#X obj 1009 81 randMIDI12-tone;
#X obj 556 700 vol-ctl~;
#X obj 554 747 dac~;
#X text 759 716 Then send the audio out here!;
#X obj 14 114 opGUI~;
#X obj 550 162 opGUI~;
#X obj 1245 134 pack f f;
#X floatatom 1305 239 5 0 0 0 - - -;
#X obj 1305 262;
#X obj 669 757 snapper~;
#X obj 577 486 snapper~;
#X connect 2 0 10 0;
#X connect 2 0 11 0;
#X connect 2 1 10 1;
#X connect 4 0 3 0;
#X connect 5 0 6 0;
#X connect 5 0 6 1;
#X connect 5 0 13 0;
#X connect 9 0 5 0;
#X connect 9 0 14 0;
#X connect 10 0 3 0;
#X connect 11 0 12 0;
